<svg xmlns="http://www.w3.org/2000/svg" viewBox="0 0 24.56 24.56"><defs><style>.cls-1{fill:#2b2873;}.cls-2{fill:#fff;}</style></defs><g id="Layer_2" data-name="Layer 2"><g id="Layer_1-2" data-name="Layer 1"><path class="cls-1" d="M24.56,12.28a12.28,12.28,0,1,0-14.2,12.13V15.83H7.24V12.28h3.12V9.57C10.36,6.5,12.19,4.8,15,4.8A19,19,0,0,1,17.75,5v3H16.2a1.77,1.77,0,0,0-2,1.91v2.31h3.4l-.54,3.55H14.2v8.58A12.28,12.28,0,0,0,24.56,12.28Z"/><path class="cls-2" d="M17.06,15.83l.54-3.55H14.2V10a1.77,1.77,0,0,1,2-1.91h1.55V5A19,19,0,0,0,15,4.8c-2.81,0-4.64,1.7-4.64,4.77v2.71H7.24v3.55h3.12v8.58a13.45,13.45,0,0,0,1.92.15,13.56,13.56,0,0,0,1.92-.15V15.83Z"/></g></g></svg>