<svg xmlns="http://www.w3.org/2000/svg" viewBox="0 0 24.56 24.56"><defs><style>.cls-1{fill:#2b2873;}.cls-2{fill:#fff;}</style></defs><g id="Layer_2" data-name="Layer 2"><g id="Layer_1-2" data-name="Layer 1"><circle class="cls-1" cx="12.28" cy="12.28" r="12.28"/><path class="cls-2" d="M16.09,7.63a.85.85,0,1,0,.84.85A.85.85,0,0,0,16.09,7.63Z"/><path class="cls-2" d="M12.34,8.72a3.55,3.55,0,1,0,3.54,3.54A3.55,3.55,0,0,0,12.34,8.72Zm0,5.81a2.27,2.27,0,1,1,2.27-2.27A2.27,2.27,0,0,1,12.34,14.53Z"/><path class="cls-2" d="M15.15,19.46H9.4a4.33,4.33,0,0,1-4.32-4.33V9.39A4.33,4.33,0,0,1,9.4,5.06h5.75a4.33,4.33,0,0,1,4.33,4.33v5.74A4.33,4.33,0,0,1,15.15,19.46ZM9.4,6.42a3,3,0,0,0-3,3v5.74a3,3,0,0,0,3,3h5.75a3,3,0,0,0,3-3V9.39a3,3,0,0,0-3-3Z"/></g></g></svg>