<svg width="98" height="98" viewBox="0 0 98 98" fill="none" xmlns="http://www.w3.org/2000/svg">
<g clip-path="url(#clip0)">
<circle cx="47.5" cy="48.5" r="41.5" fill="white"/>
<path d="M48.875 0C21.883 0 0 21.882 0 48.875C0 75.868 21.883 97.75 48.875 97.75C75.867 97.75 97.75 75.868 97.75 48.875C97.75 21.882 75.867 0 48.875 0ZM54.499 65.109C49.978 65.109 45.726 62.665 44.27 59.89C44.27 59.89 41.838 69.535 41.327 71.396C39.514 77.976 34.181 84.558 33.766 85.097C33.477 85.472 32.838 85.355 32.772 84.857C32.659 84.019 31.297 75.718 32.899 68.948C33.7 65.548 38.282 46.134 38.282 46.134C38.282 46.134 36.948 43.461 36.948 39.509C36.948 33.304 40.544 28.672 45.022 28.672C48.829 28.672 50.667 31.531 50.667 34.958C50.667 38.786 48.231 44.51 46.974 49.814C45.923 54.255 49.199 57.878 53.579 57.878C61.512 57.878 66.851 47.69 66.851 35.617C66.851 26.443 60.675 19.573 49.433 19.573C36.736 19.573 28.818 29.044 28.818 39.625C28.818 43.271 29.896 45.846 31.582 47.835C32.355 48.75 32.465 49.118 32.184 50.168C31.981 50.939 31.524 52.793 31.33 53.526C31.051 54.588 30.193 54.966 29.232 54.575C23.386 52.188 20.66 45.782 20.66 38.581C20.66 26.688 30.689 12.427 50.582 12.427C66.567 12.427 77.088 23.993 77.088 36.411C77.089 52.839 67.956 65.109 54.499 65.109Z" fill="#2B2873"/>
</g>
<defs>
<clipPath id="clip0">
<rect width="97.75" height="97.75" fill="white"/>
</clipPath>
</defs>
</svg>
