<svg xmlns="http://www.w3.org/2000/svg" viewBox="0 0 24.56 24.56"><defs><style>.cls-1{fill:#2b2873;}.cls-2{fill:#fff;}</style></defs><g id="Layer_2" data-name="Layer 2"><g id="Layer_1-2" data-name="Layer 1"><circle class="cls-1" cx="12.28" cy="12.28" r="12.28"/><path class="cls-2" d="M19.06,8.07a5.66,5.66,0,0,1-1.35.39c.22,0,.53-.43.66-.59a2.44,2.44,0,0,0,.45-.82s0-.06,0-.07a.06.06,0,0,0-.07,0,6.55,6.55,0,0,1-1.61.62.11.11,0,0,1-.11,0l-.14-.15A2.71,2.71,0,0,0,16.11,7a2.53,2.53,0,0,0-1.19-.19,2.67,2.67,0,0,0-1.13.32,2.73,2.73,0,0,0-.91.74,2.81,2.81,0,0,0-.55,1.09,3,3,0,0,0,0,1.16c0,.06,0,.07-.05.06A8.58,8.58,0,0,1,6.73,7.32c-.07-.07-.1-.07-.15,0a2.79,2.79,0,0,0,.47,3.3,3.17,3.17,0,0,0,.34.3,2.78,2.78,0,0,1-1.06-.3c-.07,0-.1,0-.1.06a1.63,1.63,0,0,0,0,.31A2.85,2.85,0,0,0,8,13.26a1.42,1.42,0,0,0,.35.11,3,3,0,0,1-1,0c-.08,0-.11,0-.08.1a2.93,2.93,0,0,0,2.19,1.83l.3,0s0,0,0,0a3.52,3.52,0,0,1-1.5.8,5.52,5.52,0,0,1-2.28.29c-.12,0-.15,0-.18,0s0,.05,0,.08.31.19.47.28a7.43,7.43,0,0,0,1.52.61,8.13,8.13,0,0,0,7.87-1.84,8.25,8.25,0,0,0,2.17-6c0-.09.1-.14.17-.18A5.93,5.93,0,0,0,19.05,8.3a.35.35,0,0,0,.07-.22h0S19.12,8.05,19.06,8.07Z"/></g></g></svg>