<svg xmlns="http://www.w3.org/2000/svg" viewBox="0 0 24.56 24.56"><defs><style>.cls-1{fill:#2b2873;}.cls-2{fill:#fff;}</style></defs><g id="Layer_2" data-name="Layer 2"><g id="Layer_1-2" data-name="Layer 1"><circle class="cls-1" cx="12.28" cy="12.28" r="12.28"/><path class="cls-2" d="M18.85,10.49a3,3,0,0,0-3-2.95H8.36a3,3,0,0,0-2.94,3V14A3,3,0,0,0,8.36,17H15.9a3,3,0,0,0,3-2.95Zm-4.43,2L11,14.18c-.14.07-.59,0-.59-.17V10.57c0-.15.46-.24.59-.17l3.24,1.76C14.41,12.24,14.55,12.44,14.42,12.51Z"/></g></g></svg>