<svg xmlns="http://www.w3.org/2000/svg" viewBox="0 0 80.82 106.73"><defs><style>.cls-1{fill:#2b2873;}</style></defs><g id="Layer_2" data-name="Layer 2"><g id="Layer_1-2" data-name="Layer 1"><path class="cls-1" d="M79.26,64.75H17.92a1.57,1.57,0,1,0,0,3.13H32.37v10a11.24,11.24,0,0,0-3.12,6.33H3.13V67.88h8a1.57,1.57,0,0,0,0-3.13H1.56A1.56,1.56,0,0,0,0,66.31V85.74A1.56,1.56,0,0,0,1.56,87.3H29.25a11.3,11.3,0,0,0,3.12,6.34v11.52a1.57,1.57,0,0,0,2.27,1.4l5.77-2.89,5.78,2.89a1.57,1.57,0,0,0,.7.17,1.53,1.53,0,0,0,.82-.24,1.56,1.56,0,0,0,.74-1.33V93.64a11.31,11.31,0,0,0,3.13-6.34H65.16a1.57,1.57,0,1,0,0-3.13H51.58a11.19,11.19,0,0,0-3.13-6.33v-10H77.7V84.17H72a1.57,1.57,0,1,0,0,3.13h7.28a1.56,1.56,0,0,0,1.56-1.56V66.31A1.56,1.56,0,0,0,79.26,64.75Zm-30.7,21h0a8.15,8.15,0,0,1-16.3,0h0a8.15,8.15,0,0,1,16.3,0Zm-7.45,14.8a1.57,1.57,0,0,0-1.4,0l-4.21,2.1V95.89a11.32,11.32,0,0,0,9.82,0v6.74Zm4.21-24.94a11.23,11.23,0,0,0-9.82,0V67.88h9.82v7.71Z"/><path class="cls-1" d="M35.61,85.74a4.8,4.8,0,1,0,4.8-4.8,4.81,4.81,0,0,0-4.8,4.8Zm6.48,0a1.68,1.68,0,1,1-1.68-1.68A1.68,1.68,0,0,1,42.09,85.74Z"/><path class="cls-1" d="M79.26,38.85H77.59V27l2.46-1.43a1.57,1.57,0,0,0,0-2.7L63.07,13a1.56,1.56,0,0,0-1.57,2.7l12,7H66.74L41.2,7.77a1.54,1.54,0,0,0-1.58,0L13.72,22.88a1.57,1.57,0,0,0,0,2.7l25.9,15.11a1.61,1.61,0,0,0,.79.21,1.58,1.58,0,0,0,.79-.21l25.54-14.9h6.74L40.41,45.08,4.67,24.23,40.41,3.37l15.2,8.87a1.56,1.56,0,1,0,1.58-2.7L41.2.21a1.59,1.59,0,0,0-1.58,0L.78,22.88a1.56,1.56,0,0,0,0,2.7L13,32.68V46.89a1.57,1.57,0,0,0,.86,1.4l25.9,13a1.61,1.61,0,0,0,1.4,0l25.9-13a1.58,1.58,0,0,0,.87-1.4V32.68l6.58-3.84v10H72.79a1.56,1.56,0,0,0-1.57,1.56v13a1.57,1.57,0,0,0,1.57,1.57h6.47a1.56,1.56,0,0,0,1.56-1.57v-13a1.56,1.56,0,0,0-1.56-1.56ZM40.41,37.52,17.61,24.23l22.8-13.3L60.53,22.66H40.41a1.57,1.57,0,0,0,0,3.13H60.53Zm24.34,8.4L40.41,58.09,16.08,45.92V34.5L39.62,48.24a1.61,1.61,0,0,0,.79.21,1.58,1.58,0,0,0,.79-.21L64.75,34.5Zm13,5.88H74.35V42H77.7Z"/></g></g></svg>