<svg xmlns="http://www.w3.org/2000/svg" viewBox="0 0 74.17 79.03"><defs><style>.cls-1{fill:#2b2873;}</style></defs><g id="Layer_2" data-name="Layer 2"><g id="Layer_1-2" data-name="Layer 1"><path class="cls-1" d="M42,57H24.25a1.56,1.56,0,0,0,0,3.11H42A1.56,1.56,0,1,0,42,57Z"/><path class="cls-1" d="M16,66.48A1.55,1.55,0,0,0,17.51,68h8.68a1.56,1.56,0,0,0,0-3.11H17.51A1.55,1.55,0,0,0,16,66.48Z"/><path class="cls-1" d="M38.49,66.48A1.56,1.56,0,0,0,40.05,68h8.67a1.56,1.56,0,1,0,0-3.11H40.05A1.56,1.56,0,0,0,38.49,66.48Z"/><path class="cls-1" d="M33.1,64.92a1.56,1.56,0,0,0,0,3.11h0a1.56,1.56,0,1,0,0-3.11Z"/><path class="cls-1" d="M1.55,25.7a1.55,1.55,0,0,0,1.56-1.55v0a1.56,1.56,0,1,0-3.11,0v0A1.55,1.55,0,0,0,1.55,25.7Z"/><path class="cls-1" d="M72.34,61.32l-7-7V14.83a.13.13,0,0,1,0-.06.25.25,0,0,1,0-.08s0,0,0-.08,0,0,0-.06,0-.05,0-.08a.14.14,0,0,1,0-.06.25.25,0,0,0,0-.07.14.14,0,0,0,0-.06l0-.07,0-.06a.21.21,0,0,0,0-.06L65,14l0,0v0L53.41.54l0,0L53.31.44l-.05,0L53.19.33l-.06,0-.08,0,0,0-.09,0,0,0-.11,0h0l-.12,0h0l-.13,0H7A7,7,0,0,0,0,7V17.19a1.56,1.56,0,1,0,3.11,0V7A3.84,3.84,0,0,1,7,3.11H50.67v10a3.41,3.41,0,0,0,3.41,3.4h8.17v34.7l-3.42-3.41,0,0,0,0-7.33-7.32A20.69,20.69,0,1,0,18,45a2,2,0,0,0,.24.26,20.64,20.64,0,0,0,24.44,4L50,56.54l0,0,0,0L62.25,68.78v3.29a3.86,3.86,0,0,1-3.85,3.85H7a3.85,3.85,0,0,1-3.84-3.85v-41a1.56,1.56,0,1,0-3.11,0v41a7,7,0,0,0,7,7H58.4a7,7,0,0,0,6.95-7v-.64a5.67,5.67,0,0,0,2.55.63,6.38,6.38,0,0,0,4.44-10.74ZM53.78,13.13V5.74l6.63,7.68H54.08A.3.3,0,0,1,53.78,13.13Zm-20.66.16a17.58,17.58,0,0,1,15.2,26.4,1.54,1.54,0,0,0-.26.42,15.2,15.2,0,0,1-1,1.43,16.16,16.16,0,0,0-8.42-7.4,9.23,9.23,0,1,0-11.55,0A15.83,15.83,0,0,0,23.61,36a16.12,16.12,0,0,0-4.73,5.17A17.57,17.57,0,0,1,33.12,13.29ZM26.75,27a6.13,6.13,0,1,1,6.13,6.12A6.14,6.14,0,0,1,26.75,27ZM21.08,43.67A13,13,0,0,1,44.81,44a17.61,17.61,0,0,1-2.45,1.84,1.38,1.38,0,0,0-.43.26,17.56,17.56,0,0,1-20.85-2.41Zm26.51,2a1.48,1.48,0,0,0,.28-.28,21,21,0,0,0,1.89-2.21l5.75,5.75-4.38,4.38-5.75-5.75a21,21,0,0,0,2.21-1.89ZM70,68a2.78,2.78,0,0,1-4.24-.1L53.33,55.47l4.38-4.38,5,5,.06.06,7.41,7.41A3.1,3.1,0,0,1,70,68Z"/></g></g></svg>