<svg xmlns="http://www.w3.org/2000/svg" viewBox="0 0 95.71 95.67"><defs><style>.cls-1{fill:#2b2873;}</style></defs><g id="Layer_2" data-name="Layer 2"><g id="Layer_1-2" data-name="Layer 1"><path class="cls-1" d="M92.62,58.62H83.36V54a4.64,4.64,0,0,0-4.63-4.63H63.29a4.62,4.62,0,0,0-3.37,1.47l-16.7-2.78V44.18a15.41,15.41,0,0,0,7.72-13.34h1.55a4.64,4.64,0,0,0,0-9.27h-.74l.84-2A12.47,12.47,0,0,0,46.31,3.32L42,1.36A15.82,15.82,0,0,0,26.21,3.08L23.77,4.9h0a9.6,9.6,0,0,0-6.2,13.6l1.53,3.06h-.59a4.64,4.64,0,0,0,0,9.27h1.55a15.41,15.41,0,0,0,7.72,13.34v3.87L9,51.18A10.77,10.77,0,0,0,0,61.84V94.13a1.54,1.54,0,0,0,1.54,1.54H92.62a3.08,3.08,0,0,0,3.09-3.08V61.71A3.09,3.09,0,0,0,92.62,58.62ZM80.27,54v4.63H70.5a10.81,10.81,0,0,0-5-6.17H78.73A1.54,1.54,0,0,1,80.27,54Zm-18.52.3a7.71,7.71,0,0,1,5.45,4.33H61.75ZM54,26.2a1.54,1.54,0,0,1-1.54,1.55H50.94V24.66h1.55A1.54,1.54,0,0,1,54,26.2ZM20.58,10.85a6.56,6.56,0,0,1,5.6-3.17,7.19,7.19,0,0,1,6,3.22l.49.72,2.57-1.71-.49-.73A10.3,10.3,0,0,0,28.94,5a12.68,12.68,0,0,1,11.78-.81l4.31,2a9.38,9.38,0,0,1,4.73,12.26l-.11.24-2-3.92a1.53,1.53,0,0,0-2.3-.55L42.92,16A12.33,12.33,0,0,1,28.1,16l-2.47-1.86a1.56,1.56,0,0,0-1.29-.26,1.52,1.52,0,0,0-1,.81l-2.09,4.18-.89-1.76a6.52,6.52,0,0,1,.24-6.28Zm-2.06,16.9a1.55,1.55,0,0,1,0-3.09h1.55v3.09Zm4.64,3.09v-8.9l2.09-4.2,1,.75a15.48,15.48,0,0,0,18.53,0l1-.75,2.1,4.2v8.9a12.35,12.35,0,0,1-24.7,0ZM35.51,46.27a15.46,15.46,0,0,0,4.63-.71v3.16l-4.63,4.63-4.64-4.63V45.56a15.47,15.47,0,0,0,4.64.71Zm-.5,17h1l2.52,6.3-3,13.08-3-13.08Zm3.42-6.4-2.21,3.32H34.79l-2.21-3.32.51-1.54,1.32,1.32a1.57,1.57,0,0,0,1.1.45,1.55,1.55,0,0,0,1.09-.45l1.32-1.32ZM18.52,92.59V66.34H15.44V92.59H3.09V61.84a7.7,7.7,0,0,1,6.45-7.62L28.8,51l1.85,1.85-1.24,3.73a1.54,1.54,0,0,0,.18,1.35l2.64,4-2.79,7a1.52,1.52,0,0,0-.07.92L34,89.85a1.55,1.55,0,0,0,3,0l4.63-20.07a1.52,1.52,0,0,0-.07-.92l-2.79-7,2.64-4a1.54,1.54,0,0,0,.18-1.35l-1.24-3.73L42.21,51l16.48,2.75a1.81,1.81,0,0,0,0,.23v4.63H49.4a3.1,3.1,0,0,0-3.09,3.09V92.59Zm32.42,0H49.4V89.5H92.63v3.09Zm41.69-6.18H49.4V73.89a10.76,10.76,0,0,0,7.72,3.26h9.26v1.54a4.63,4.63,0,1,0,9.26,0V77.15h9.27a10.78,10.78,0,0,0,7.72-3.26ZM69.47,78.69V71h3.09v7.72a1.55,1.55,0,1,1-3.09,0ZM92.62,66.34a7.72,7.72,0,0,1-7.71,7.72H75.64V69.43a1.54,1.54,0,0,0-1.54-1.54H67.92a1.54,1.54,0,0,0-1.54,1.54v4.63H57.12a7.72,7.72,0,0,1-7.72-7.72V61.71H92.62Z"/></g></g></svg>