<svg xmlns="http://www.w3.org/2000/svg" viewBox="0 0 35.76 35.7"><defs><style>.cls-1{fill:#2b2873;}</style></defs><g id="Layer_2" data-name="Layer 2"><g id="Layer_1-2" data-name="Layer 1"><path class="cls-1" d="M6.72,2.77c0,.91,0,1.8,0,2.69a2.73,2.73,0,0,0,.07.64,2.89,2.89,0,0,0,5.7-.23,3.38,3.38,0,0,0,0-.55c0-.84,0-1.69,0-2.55H23.23V5.48A2.9,2.9,0,0,0,29,6.06a3,3,0,0,0,.06-.6V2.79l.08,0c1.16,0,2.32,0,3.47,0A3.38,3.38,0,0,1,35.75,6a2.26,2.26,0,0,1,0,.26V32.18a3.4,3.4,0,0,1-2.43,3.37,3.5,3.5,0,0,1-1,.15h-29A3.41,3.41,0,0,1,0,32.39V6.22A3.4,3.4,0,0,1,2.51,2.89a3.91,3.91,0,0,1,.9-.13H6.72Zm-4,9.69V31.2A1.71,1.71,0,0,0,4.53,33h26.7A1.71,1.71,0,0,0,33,31.2V12.46Z"/><path class="cls-1" d="M11,3.41c0,.69,0,1.39,0,2.08a1.34,1.34,0,0,1-2.62.38,1.32,1.32,0,0,1-.06-.39c0-1.38,0-2.76,0-4.13A1.34,1.34,0,0,1,10.9,1,1.74,1.74,0,0,1,11,1.4Z"/><path class="cls-1" d="M27.48,3.43v2a1.35,1.35,0,0,1-1.34,1.39A1.34,1.34,0,0,1,24.8,5.44q0-2,0-4.05a1.34,1.34,0,1,1,2.68,0v2Z"/><path class="cls-1" d="M29.59,26.46v3h-4.1v-3Z"/><path class="cls-1" d="M10.26,29.5H6.17v-3h4.09Z"/><path class="cls-1" d="M12.61,26.46H16.7v3H12.61Z"/><path class="cls-1" d="M23.15,26.46v3h-4.1v-3Z"/><path class="cls-1" d="M19.05,24.24v-3h4.09v3Z"/><path class="cls-1" d="M16.71,21.2v3h-4.1v-3Z"/><path class="cls-1" d="M25.5,21.2h4.09v3H25.5Z"/><path class="cls-1" d="M10.26,24.25H6.17V21.2h4.09Z"/><path class="cls-1" d="M6.17,15.94h4.09v3H6.17Z"/><path class="cls-1" d="M23.15,16v3H19.06V16Z"/><path class="cls-1" d="M29.59,16v3H25.5V16Z"/><path class="cls-1" d="M12.61,16H16.7v3H12.61Z"/></g></g></svg>