<svg xmlns="http://www.w3.org/2000/svg" viewBox="0 0 119.44 115.7"><defs><style>.cls-1{fill:#2b2873;}</style></defs><g id="Layer_2" data-name="Layer 2"><g id="Layer_1-2" data-name="Layer 1"><path class="cls-1" d="M28.75,74.8H10.28V89.52H28.75Zm-15,3.5h4V86h-4ZM25.24,86h-4V78.3h4Z"/><path class="cls-1" d="M10.28,108.22H28.75V93.5H10.28Zm15-3.5h-4V97h4ZM13.79,97h4v7.72h-4Z"/><path class="cls-1" d="M109.16,74.8H90.69V89.52h18.47Zm-15,3.5h4V86h-4ZM105.65,86h-4V78.3h4Z"/><path class="cls-1" d="M90.69,108.22h18.47V93.5H90.69Zm15-3.5h-4V97h4ZM94.2,97h4v7.72h-4Z"/><path class="cls-1" d="M87.77,67.32v3.5h28.17V112.2h-32V84h-3.5V112.2H72.69V97h3.74V86H43V97h3.74v15.2H3.51V89.64H0V115.7H119.44V67.32ZM69.19,112.2H61.47V97h7.72ZM46.51,89.52H72.93v4H46.51ZM50.25,97H58v15.2H50.25Z"/><path class="cls-1" d="M3.51,70.82h32v37.52H39V56.71L59.72,36,80.41,56.71V80.29h3.5V60.21l3.86,3.86L95.86,56,61.47,21.6V14.73h15V0H58V21.6L23.58,56l8.09,8.09,3.86-3.86v7.11H0V85.9H3.51Zm58-67.31H72.93v7.71H61.47ZM28.54,56,59.72,24.8,90.9,56l-3.13,3.13-28-28-28,28.05Z"/><path class="cls-1" d="M50.37,74.8h3.74v3.5H50.37Z"/><path class="cls-1" d="M57.85,74.8h3.74v3.5H57.85Z"/><path class="cls-1" d="M65.33,74.8h3.74v3.5H65.33Z"/><path class="cls-1" d="M69,57.85a9.23,9.23,0,1,0-9.23,9.23A9.24,9.24,0,0,0,69,57.85Zm-9.23,5.73a5.73,5.73,0,1,1,5.73-5.73A5.74,5.74,0,0,1,59.72,63.58Z"/></g></g></svg>