<svg xmlns="http://www.w3.org/2000/svg" viewBox="0 0 29.32 29.31"><defs><style>.cls-1{fill:#2b2873;}</style></defs><g id="Layer_2" data-name="Layer 2"><g id="Layer_1-2" data-name="Layer 1"><path class="cls-1" d="M14.69,0A14.66,14.66,0,1,1,0,14.63,14.62,14.62,0,0,1,14.69,0Zm0,26.11A11.48,11.48,0,1,0,3.19,14.55,11.47,11.47,0,0,0,14.65,26.11Z"/><path class="cls-1" d="M13.46,11.88c0-1.06,0-2.11,0-3.16,0-.86.39-1.45,1.28-1.41s1.18.61,1.18,1.41c0,1.75,0,3.49,0,5.24a2.09,2.09,0,0,0,.51,1.21c1.12,1.2,2.3,2.34,3.46,3.48.61.61.93,1.25.28,2s-1.29.48-2.07-.29c-1.24-1.22-2.44-2.49-3.71-3.68a2.68,2.68,0,0,1-1-2.3C13.51,13.55,13.46,12.71,13.46,11.88Z"/></g></g></svg>