<svg width="58" height="58" viewBox="0 0 58 58" fill="none" xmlns="http://www.w3.org/2000/svg">
<path d="M24.2188 18.9819L19.5791 14.3412C19.4033 14.1655 19.1649 14.0667 18.9163 14.0667C18.6677 14.0667 18.4293 14.1655 18.2535 14.3412L16.2641 16.3297C16.0029 16.5909 15.6928 16.7981 15.3516 16.9395C15.0103 17.0808 14.6446 17.1536 14.2752 17.1536C13.9058 17.1536 13.54 17.0808 13.1988 16.9395C12.8575 16.7981 12.5474 16.5909 12.2863 16.3297L12.0594 16.1028C11.7982 15.8416 11.591 15.5316 11.4496 15.1903C11.3082 14.849 11.2355 14.4833 11.2355 14.1139C11.2355 13.7445 11.3082 13.3787 11.4496 13.0375C11.591 12.6962 11.7982 12.3862 12.0594 12.125L14.0478 10.1356C14.2236 9.95981 14.3223 9.72139 14.3223 9.4728C14.3223 9.22421 14.2236 8.98579 14.0478 8.80999L9.40627 4.1703C9.23046 3.99455 8.99204 3.89581 8.74345 3.89581C8.49486 3.89581 8.25645 3.99455 8.08064 4.1703L6.0922 6.15874C4.51214 7.74229 3.62476 9.88797 3.62476 12.125C3.62476 14.362 4.51214 16.5077 6.0922 18.0912L10.2969 22.2959C11.8804 23.876 14.0261 24.7634 16.2631 24.7634C18.5002 24.7634 20.6458 23.876 22.2294 22.2959L24.2188 20.3075C24.3945 20.1317 24.4933 19.8933 24.4933 19.6447C24.4933 19.3961 24.3945 19.1577 24.2188 18.9819ZM18.9163 16.3297L22.2303 19.6447L21.5675 20.3075L18.2535 16.9925L18.9163 16.3297ZM8.74439 6.15874L12.0585 9.4728L11.3956 10.1365L8.08064 6.82155L8.74439 6.15874ZM11.6225 20.9712L7.41783 16.7656C6.3039 15.6486 5.62878 14.1683 5.5157 12.5949C5.40263 11.0214 5.85913 9.45978 6.80189 8.19499L10.1356 11.5287C9.54148 12.4308 9.27645 13.5101 9.38524 14.5848C9.49402 15.6594 9.96995 16.6637 10.7328 17.4284L10.9597 17.6553C11.7247 18.4177 12.7289 18.8933 13.8034 19.0021C14.878 19.1109 15.9572 18.8461 16.8594 18.2525L20.1931 21.5862C18.9283 22.5288 17.3667 22.9852 15.7933 22.8721C14.2199 22.759 12.7396 22.0841 11.6225 20.9703V20.9712Z" fill="#FFCB05"/>
<path d="M24.3125 29H3.6875C2.94158 29 2.22621 28.7037 1.69876 28.1762C1.17132 27.6488 0.875 26.9334 0.875 26.1875V3.6875C0.875 2.94158 1.17132 2.22621 1.69876 1.69876C2.22621 1.17132 2.94158 0.875 3.6875 0.875H24.3125C25.0584 0.875 25.7738 1.17132 26.3012 1.69876C26.8287 2.22621 27.125 2.94158 27.125 3.6875V26.1875C27.125 26.9334 26.8287 27.6488 26.3012 28.1762C25.7738 28.7037 25.0584 29 24.3125 29ZM3.6875 2.75C3.43886 2.75 3.2004 2.84877 3.02459 3.02459C2.84877 3.2004 2.75 3.43886 2.75 3.6875V26.1875C2.75 26.4361 2.84877 26.6746 3.02459 26.8504C3.2004 27.0262 3.43886 27.125 3.6875 27.125H24.3125C24.5611 27.125 24.7996 27.0262 24.9754 26.8504C25.1512 26.6746 25.25 26.4361 25.25 26.1875V3.6875C25.25 3.43886 25.1512 3.2004 24.9754 3.02459C24.7996 2.84877 24.5611 2.75 24.3125 2.75H3.6875Z" fill="#FFCB05"/>
<path d="M24.3125 57.125H3.6875C2.94158 57.125 2.22621 56.8287 1.69876 56.3012C1.17132 55.7738 0.875 55.0584 0.875 54.3125V33.6875C0.875 32.9416 1.17132 32.2262 1.69876 31.6988C2.22621 31.1713 2.94158 30.875 3.6875 30.875H24.3125C25.0584 30.875 25.7738 31.1713 26.3012 31.6988C26.8287 32.2262 27.125 32.9416 27.125 33.6875V54.3125C27.125 55.0584 26.8287 55.7738 26.3012 56.3012C25.7738 56.8287 25.0584 57.125 24.3125 57.125ZM3.6875 32.75C3.43886 32.75 3.2004 32.8488 3.02459 33.0246C2.84877 33.2004 2.75 33.4389 2.75 33.6875V54.3125C2.75 54.5611 2.84877 54.7996 3.02459 54.9754C3.2004 55.1512 3.43886 55.25 3.6875 55.25H24.3125C24.5611 55.25 24.7996 55.1512 24.9754 54.9754C25.1512 54.7996 25.25 54.5611 25.25 54.3125V33.6875C25.25 33.4389 25.1512 33.2004 24.9754 33.0246C24.7996 32.8488 24.5611 32.75 24.3125 32.75H3.6875Z" fill="#FFCB05"/>
<path d="M22.4375 37.4375H5.5625C5.31386 37.4375 5.0754 37.5363 4.89959 37.7121C4.72377 37.8879 4.625 38.1264 4.625 38.375V49.625C4.625 49.8736 4.72377 50.1121 4.89959 50.2879C5.0754 50.4637 5.31386 50.5625 5.5625 50.5625H22.4375C22.6861 50.5625 22.9246 50.4637 23.1004 50.2879C23.2762 50.1121 23.375 49.8736 23.375 49.625V38.375C23.375 38.1264 23.2762 37.8879 23.1004 37.7121C22.9246 37.5363 22.6861 37.4375 22.4375 37.4375ZM14 44.6094L8.03 39.3125H19.9681L14 44.6094ZM10.4994 44.0084L6.5 47.5437V40.4609L10.4994 44.0084ZM11.9113 45.2619L12.755 46.0119C13.0978 46.3225 13.5436 46.4949 14.0061 46.4958C14.4687 46.4966 14.9151 46.3259 15.2591 46.0166L16.1028 45.2666L19.9634 48.6875H8.03656L11.9113 45.2619ZM17.51 44.0084L21.5 40.4609V47.5437L17.51 44.0084Z" fill="#FFCB05"/>
<path d="M54.3125 0.875H33.6875C32.9416 0.875 32.2262 1.17132 31.6988 1.69876C31.1713 2.22621 30.875 2.94158 30.875 3.6875V26.1875C30.875 26.9334 31.1713 27.6488 31.6988 28.1762C32.2262 28.7037 32.9416 29 33.6875 29H38.375V40.7544L37.2781 38.4303C37.0753 37.7442 36.6156 37.1629 35.9947 36.8075C35.3473 36.434 34.5782 36.3328 33.8563 36.5262L32.9928 36.7588C32.7464 36.8252 32.5162 36.9412 32.3163 37.0996C32.1163 37.2581 31.9507 37.4557 31.8298 37.6804C31.7089 37.9051 31.6351 38.1521 31.6129 38.4063C31.5907 38.6605 31.6207 38.9165 31.7009 39.1587L35.6141 50.525C35.6516 50.6348 35.7095 50.7366 35.7847 50.825L38.3244 53.825L38.375 56.2072C38.3802 56.4524 38.4812 56.6858 38.6565 56.8574C38.8317 57.029 39.0672 57.1251 39.3125 57.125H52.4375C52.6861 57.125 52.9246 57.0262 53.1004 56.8504C53.2762 56.6746 53.375 56.4361 53.375 56.1875V53.6562L55.0925 51.08C55.1944 50.9266 55.2492 50.7467 55.25 50.5625V38.375C55.2528 38.0075 55.1817 37.6432 55.0409 37.3037C54.9002 36.9642 54.6926 36.6565 54.4306 36.3988C54.04 36.0136 53.547 35.7487 53.0103 35.6353C52.4735 35.522 51.9155 35.5651 51.4025 35.7594C51.278 35.2898 51.0285 34.8628 50.6806 34.5238C50.2898 34.1388 49.7969 33.874 49.2602 33.7607C48.7235 33.6474 48.1655 33.6903 47.6525 33.8844C47.528 33.4148 47.2785 32.9878 46.9306 32.6487C46.553 32.2752 46.0788 32.0142 45.5612 31.8948C45.0437 31.7755 44.5031 31.8025 44 31.9728V29H54.3125C55.0584 29 55.7738 28.7037 56.3012 28.1762C56.8287 27.6488 57.125 26.9334 57.125 26.1875V3.6875C57.125 2.94158 56.8287 2.22621 56.3012 1.69876C55.7738 1.17132 55.0584 0.875 54.3125 0.875ZM44.9375 33.6875C45.0625 33.6871 45.1862 33.7123 45.301 33.7617C45.4158 33.811 45.5193 33.8834 45.605 33.9744C45.6916 34.059 45.7601 34.1603 45.8065 34.2721C45.8529 34.3839 45.8762 34.5039 45.875 34.625V41.1875C45.875 41.4361 45.9738 41.6746 46.1496 41.8504C46.3254 42.0262 46.5639 42.125 46.8125 42.125C47.0611 42.125 47.2996 42.0262 47.4754 41.8504C47.6512 41.6746 47.75 41.4361 47.75 41.1875V36.5C47.75 36.2514 47.8488 36.0129 48.0246 35.8371C48.2004 35.6613 48.4389 35.5625 48.6875 35.5625C48.8125 35.5621 48.9362 35.5873 49.051 35.6367C49.1658 35.686 49.2693 35.7584 49.355 35.8494C49.4416 35.934 49.5101 36.0353 49.5565 36.1471C49.6029 36.2589 49.6262 36.3789 49.625 36.5V41.1875C49.625 41.4361 49.7238 41.6746 49.8996 41.8504C50.0754 42.0262 50.3139 42.125 50.5625 42.125C50.8111 42.125 51.0496 42.0262 51.2254 41.8504C51.4012 41.6746 51.5 41.4361 51.5 41.1875V38.375C51.5 38.1264 51.5988 37.8879 51.7746 37.7121C51.9504 37.5363 52.1889 37.4375 52.4375 37.4375C52.5625 37.4371 52.6862 37.4623 52.801 37.5117C52.9158 37.561 53.0193 37.6334 53.105 37.7244C53.1916 37.809 53.2601 37.9103 53.3065 38.0221C53.3529 38.1339 53.3762 38.2539 53.375 38.375V50.2812L51.6575 52.8575C51.5556 53.0109 51.5008 53.1908 51.5 53.375V55.25H40.2303L40.1919 53.4491C40.1877 53.2338 40.1096 53.0266 39.9706 52.8622L37.3287 49.7441L33.4803 38.5625L34.3372 38.3319C34.5802 38.267 34.8389 38.3007 35.0572 38.4256C35.1631 38.486 35.2559 38.5668 35.3303 38.6633C35.4046 38.7599 35.459 38.8703 35.4903 38.9881C35.5044 39.0434 38.465 45.3284 38.465 45.3284C38.5557 45.5202 38.7087 45.6756 38.8991 45.7691C39.0894 45.8627 39.3059 45.8889 39.5131 45.8435C39.7203 45.7981 39.906 45.6838 40.0399 45.5193C40.1737 45.3547 40.2478 45.1496 40.25 44.9375V26.2925C40.2399 26.0449 40.3208 25.8021 40.4775 25.61C40.6341 25.4179 40.8557 25.2899 41.1003 25.25C41.2392 25.2361 41.3795 25.2542 41.5103 25.3029C41.6412 25.3517 41.7591 25.4298 41.855 25.5312C41.9423 25.6165 42.0112 25.7187 42.0576 25.8315C42.1041 25.9444 42.127 26.0655 42.125 26.1875V41.1875C42.125 41.4361 42.2238 41.6746 42.3996 41.8504C42.5754 42.0262 42.8139 42.125 43.0625 42.125C43.3111 42.125 43.5496 42.0262 43.7254 41.8504C43.9012 41.6746 44 41.4361 44 41.1875V34.625C44 34.3764 44.0988 34.1379 44.2746 33.9621C44.4504 33.7863 44.6889 33.6875 44.9375 33.6875ZM55.25 26.1875C55.25 26.4361 55.1512 26.6746 54.9754 26.8504C54.7996 27.0262 54.5611 27.125 54.3125 27.125H44V26.1875C44.0028 25.82 43.9317 25.4557 43.7909 25.1162C43.6502 24.7767 43.4426 24.469 43.1806 24.2113C42.8923 23.9162 42.5418 23.689 42.1548 23.5461C41.7677 23.4033 41.3537 23.3483 40.9428 23.3853C40.23 23.464 39.5721 23.8054 39.0973 24.3429C38.6226 24.8804 38.3651 25.5754 38.375 26.2925V27.125H33.6875C33.4389 27.125 33.2004 27.0262 33.0246 26.8504C32.8488 26.6746 32.75 26.4361 32.75 26.1875V3.6875C32.75 3.43886 32.8488 3.2004 33.0246 3.02459C33.2004 2.84877 33.4389 2.75 33.6875 2.75H54.3125C54.5611 2.75 54.7996 2.84877 54.9754 3.02459C55.1512 3.2004 55.25 3.43886 55.25 3.6875V26.1875Z" fill="#FFCB05"/>
<path d="M44 6.5C42.0109 6.5 40.1032 7.29018 38.6967 8.6967C37.2902 10.1032 36.5 12.0109 36.5 14C36.5 15.9891 37.2902 17.8968 38.6967 19.3033C40.1032 20.7098 42.0109 21.5 44 21.5H47.75C47.9986 21.5 48.2371 21.4012 48.4129 21.2254C48.5887 21.0496 48.6875 20.8111 48.6875 20.5625C48.6875 20.3139 48.5887 20.0754 48.4129 19.8996C48.2371 19.7238 47.9986 19.625 47.75 19.625H44C42.8875 19.625 41.7999 19.2951 40.8749 18.677C39.9499 18.0589 39.2289 17.1804 38.8032 16.1526C38.3774 15.1248 38.266 13.9938 38.4831 12.9026C38.7001 11.8115 39.2359 10.8092 40.0225 10.0225C40.8092 9.23585 41.8115 8.70012 42.9026 8.48308C43.9938 8.26604 45.1248 8.37744 46.1526 8.80318C47.1804 9.22892 48.0589 9.94989 48.677 10.8749C49.2951 11.7999 49.625 12.8875 49.625 14V14.9375C49.625 15.1861 49.5262 15.4246 49.3504 15.6004C49.1746 15.7762 48.9361 15.875 48.6875 15.875C48.4389 15.875 48.2004 15.7762 48.0246 15.6004C47.8488 15.4246 47.75 15.1861 47.75 14.9375V14C47.7571 13.1298 47.4638 12.2838 46.9197 11.6048C46.3755 10.9257 45.6137 10.4551 44.7629 10.2724C43.9121 10.0898 43.0243 10.2061 42.2494 10.602C41.4744 10.9978 40.8597 11.6488 40.509 12.4452C40.1582 13.2416 40.0929 14.1346 40.3241 14.9735C40.5553 15.8125 41.0687 16.546 41.7779 17.0503C42.487 17.5546 43.3485 17.7989 44.2168 17.7419C45.0851 17.685 45.9072 17.3302 46.5444 16.7375C46.9128 17.1817 47.4094 17.5012 47.9664 17.6523C48.5233 17.8034 49.1133 17.7788 49.6557 17.5818C50.1981 17.3847 50.6664 17.025 50.9965 16.5516C51.3267 16.0783 51.5025 15.5146 51.5 14.9375V14C51.4978 12.0116 50.7069 10.1052 49.3008 8.69917C47.8948 7.29313 45.9884 6.50223 44 6.5ZM44 15.875C43.6292 15.875 43.2666 15.765 42.9583 15.559C42.65 15.353 42.4096 15.0601 42.2677 14.7175C42.1258 14.3749 42.0887 13.9979 42.161 13.6342C42.2334 13.2705 42.4119 12.9364 42.6742 12.6742C42.9364 12.412 43.2705 12.2334 43.6342 12.161C43.9979 12.0887 44.3749 12.1258 44.7175 12.2677C45.0601 12.4096 45.353 12.65 45.559 12.9583C45.765 13.2666 45.875 13.6292 45.875 14C45.875 14.4973 45.6775 14.9742 45.3258 15.3258C44.9742 15.6775 44.4973 15.875 44 15.875Z" fill="#FFCB05"/>
</svg>
