<svg width="491" height="491" viewBox="0 0 491 491" fill="none" xmlns="http://www.w3.org/2000/svg">
<g clip-path="url(#clip0)">
<path d="M245.333 490.667C110.059 490.667 0 380.608 0 245.334C0 110.06 110.059 0.00100708 245.333 0.00100708C380.607 0.00100708 490.666 110.06 490.666 245.334C490.666 380.608 380.608 490.667 245.333 490.667ZM245.333 21.334C121.813 21.334 21.333 121.814 21.333 245.334C21.333 368.854 121.813 469.334 245.333 469.334C368.853 469.334 469.333 368.854 469.333 245.334C469.333 121.814 368.853 21.334 245.333 21.334Z" fill="white"/>
<path d="M245.333 384C239.445 384 234.666 379.221 234.666 373.333V117.333C234.666 111.445 239.445 106.666 245.333 106.666C251.221 106.666 256 111.446 256 117.334V373.334C256 379.222 251.221 384 245.333 384Z" fill="white"/>
<path d="M338.219 295.552L252.886 380.885C248.726 385.045 241.963 385.045 237.803 380.885L152.47 295.552C148.31 291.392 148.31 284.629 152.47 280.469C156.63 276.309 163.393 276.309 167.553 280.469L245.334 358.25L323.115 280.447C325.206 278.378 327.936 277.332 330.667 277.332C333.398 277.332 336.128 278.377 338.219 280.468C342.379 284.63 342.379 291.392 338.219 295.552Z" fill="white"/>
</g>
<defs>
<clipPath id="clip0">
<rect width="490.667" height="490.667" fill="white" transform="matrix(1 0 0 -1 0 490.667)"/>
</clipPath>
</defs>
</svg>
