<svg width="22" height="24" viewBox="0 0 22 24" fill="none" xmlns="http://www.w3.org/2000/svg">
<path d="M10.4214 12.0047C10.1349 11.2547 10.1406 9.80625 10.3068 9.80625C10.788 9.80625 10.7422 11.5359 10.4214 12.0047ZM10.324 14.2172C9.88281 15.1641 9.33281 16.2469 8.69688 17.1562C9.74531 16.8281 10.9312 16.35 12.3005 16.1297C11.5729 15.6797 10.874 15.0328 10.324 14.2172ZM4.93281 20.0672C4.93281 20.1047 5.68906 19.8141 6.93229 18.1828C6.54844 18.4781 5.2651 19.3313 4.93281 20.0672ZM14.2083 7.5H22V22.875C22 23.4984 21.387 24 20.625 24H1.375C0.613021 24 0 23.4984 0 22.875V1.125C0 0.501562 0.613021 0 1.375 0H12.8333V6.375C12.8333 6.99375 13.4521 7.5 14.2083 7.5ZM13.75 15.5531C12.6042 14.9812 11.8422 14.1938 11.3036 13.0312C11.5615 12.1641 11.9682 10.8469 11.6589 10.0219C11.3896 8.64375 9.22969 8.77969 8.92031 9.70312C8.63385 10.5609 8.8974 11.7703 9.38438 13.3125C8.71979 14.6062 7.7401 16.3406 7.04688 17.3344C7.04115 17.3344 7.04115 17.3391 7.03542 17.3391C5.48281 17.9906 2.81875 19.425 3.91302 20.5266C4.23385 20.85 4.82969 20.9953 5.14479 20.9953C6.17031 20.9953 7.1901 20.1516 8.64531 18.0984C10.1234 17.7 11.7448 17.2031 13.1714 17.0109C14.4146 17.5641 15.8698 17.925 16.838 17.925C18.5109 17.925 18.6255 16.425 17.9667 15.8906C17.1703 15.2531 14.8557 15.4359 13.75 15.5531ZM21.599 4.92188L15.9844 0.328125C15.7266 0.117188 15.3771 0 15.0104 0H14.6667V6H22V5.71406C22 5.41875 21.8568 5.13281 21.599 4.92188ZM17.3536 16.8891C17.5885 16.7625 17.2104 16.3312 14.9016 16.4672C17.0271 17.2078 17.3536 16.8891 17.3536 16.8891Z" fill="white"/>
</svg>
