<svg width="48" height="35" viewBox="0 0 48 35" fill="none" xmlns="http://www.w3.org/2000/svg">
<path d="M38.75 19L35 22.76L34.84 22.59L30 17.75C29.8674 17.6174 29.6875 17.5429 29.5 17.5429C29.3125 17.5429 29.1326 17.6174 29 17.75C28.8674 17.8826 28.7929 18.0625 28.7929 18.25C28.7929 18.4376 28.8674 18.6174 29 18.75L33.84 23.59C33.9401 23.6886 34.0195 23.8062 34.0738 23.9358C34.128 24.0654 34.156 24.2045 34.156 24.345C34.156 24.4855 34.128 24.6246 34.0738 24.7542C34.0195 24.8839 33.9401 25.0014 33.84 25.1C33.6382 25.2973 33.3672 25.4078 33.085 25.4078C32.8028 25.4078 32.5318 25.2973 32.33 25.1L29.64 22.41C29.5074 22.2774 29.3275 22.2029 29.14 22.2029C28.9525 22.2029 28.7726 22.2774 28.64 22.41C28.5074 22.5426 28.4329 22.7225 28.4329 22.91C28.4329 23.0976 28.5074 23.2774 28.64 23.41L31.4 26C31.4984 26.0985 31.5764 26.2155 31.6296 26.3442C31.6828 26.4729 31.7101 26.6108 31.71 26.75C31.7107 27.0343 31.5993 27.3073 31.4 27.51C31.1995 27.7097 30.928 27.8218 30.645 27.8218C30.362 27.8218 30.0905 27.7097 29.89 27.51L27.2 24.86C27.0674 24.7274 26.8875 24.6529 26.7 24.6529C26.5125 24.6529 26.3326 24.7274 26.2 24.86C26.0674 24.9926 25.9929 25.1725 25.9929 25.36C25.9929 25.5476 26.0674 25.7274 26.2 25.86L28.89 28.55C29.0357 28.7009 29.1343 28.8909 29.1739 29.0968C29.2134 29.3028 29.1921 29.5158 29.1125 29.7099C29.033 29.904 28.8987 30.0707 28.726 30.1897C28.5533 30.3087 28.3497 30.3748 28.14 30.38C27.8545 30.377 27.5816 30.2621 27.38 30.06L24.7 27.37C24.6348 27.3035 24.557 27.2506 24.4712 27.2146C24.3853 27.1785 24.2931 27.1599 24.2 27.1599C24.1069 27.1599 24.0147 27.1785 23.9288 27.2146C23.843 27.2506 23.7652 27.3035 23.7 27.37C23.6309 27.4337 23.5758 27.511 23.538 27.5971C23.5003 27.6831 23.4809 27.7761 23.4809 27.87C23.4809 27.964 23.5003 28.0569 23.538 28.143C23.5758 28.229 23.6309 28.3063 23.7 28.37L26.45 31C26.5976 31.1502 26.6976 31.3406 26.7375 31.5473C26.7774 31.7541 26.7554 31.968 26.6742 32.1623C26.5931 32.3566 26.4564 32.5227 26.2813 32.6397C26.1063 32.7567 25.9006 32.8194 25.69 32.82C25.5507 32.8201 25.4128 32.7928 25.2841 32.7396C25.1555 32.6864 25.0385 32.6084 24.94 32.51L23.19 30.77C23.4675 30.3103 23.5829 29.7708 23.5176 29.2379C23.4524 28.7049 23.2102 28.2092 22.83 27.83V27.83C22.5803 27.5747 22.2761 27.3791 21.9401 27.2579C21.6042 27.1367 21.2452 27.093 20.89 27.13C20.8498 26.552 20.6011 26.0083 20.19 25.6C19.873 25.254 19.4578 25.0132 19 24.91C19.1096 24.6332 19.164 24.3377 19.16 24.04C19.1613 23.7245 19.1001 23.4118 18.98 23.12C18.8599 22.8282 18.6831 22.5631 18.46 22.34C18.2369 22.1169 17.9718 21.9402 17.68 21.82C17.3882 21.6999 17.0755 21.6387 16.76 21.64C16.3974 21.639 16.039 21.7175 15.71 21.87C15.596 21.4898 15.3859 21.1454 15.1 20.87C14.877 20.6463 14.6121 20.4687 14.3204 20.3476C14.0286 20.2265 13.7159 20.1641 13.4 20.1641C13.0841 20.1641 12.7714 20.2265 12.4796 20.3476C12.1879 20.4687 11.923 20.6463 11.7 20.87L11.41 21.15L11.21 20.94C11.0458 20.7778 10.9154 20.5848 10.8261 20.372C10.7369 20.1591 10.6906 19.9308 10.69 19.7V17.87C10.6903 17.7807 10.6728 17.6923 10.6385 17.6098C10.6041 17.5274 10.5536 17.4527 10.49 17.39L7.56999 14.47L8.38999 13.64C8.45908 13.5763 8.51422 13.499 8.55194 13.413C8.58965 13.3269 8.60912 13.234 8.60912 13.14C8.60912 13.0461 8.58965 12.9531 8.55194 12.8671C8.51422 12.781 8.45908 12.7037 8.38999 12.64C8.32482 12.5735 8.24702 12.5207 8.16117 12.4846C8.07531 12.4485 7.98312 12.4299 7.88999 12.4299C7.79687 12.4299 7.70467 12.4485 7.61882 12.4846C7.53296 12.5207 7.45517 12.5735 7.38999 12.64L6.28999 13.75C6.18933 13.8472 6.05489 13.9015 5.91499 13.9015C5.7751 13.9015 5.64066 13.8472 5.53999 13.75L2.00999 10.22C1.94433 10.1544 1.86638 10.1023 1.78059 10.0667C1.6948 10.0312 1.60285 10.0129 1.50999 10.0129C1.41713 10.0129 1.32519 10.0312 1.2394 10.0667C1.1536 10.1023 1.07565 10.1544 1.00999 10.22C0.944333 10.2857 0.892247 10.3636 0.856711 10.4494C0.821176 10.5352 0.802887 10.6272 0.802887 10.72C0.802887 10.8129 0.821176 10.9048 0.856711 10.9906C0.892247 11.0764 0.944333 11.1544 1.00999 11.22L4.53999 14.74C4.72811 14.9337 4.95616 15.0842 5.20829 15.1809C5.46041 15.2776 5.73057 15.3182 5.99999 15.3C6.15856 15.2998 6.31646 15.2797 6.46999 15.24L9.37999 18.16V19.66C9.3792 20.071 9.46012 20.478 9.61807 20.8574C9.77601 21.2368 10.0078 21.581 10.3 21.87L10.5 22.08L10.27 22.31C9.93401 22.6476 9.7056 23.0772 9.61361 23.5446C9.52162 24.0119 9.57018 24.496 9.75314 24.9358C9.93611 25.3755 10.2453 25.7512 10.6416 26.0154C11.038 26.2796 11.5037 26.4204 11.98 26.42V26.42C11.9787 26.7356 12.0398 27.0482 12.16 27.34C12.2801 27.6318 12.4569 27.8969 12.68 28.12C12.9031 28.3431 13.1682 28.5199 13.46 28.64C13.7518 28.7602 14.0644 28.8213 14.38 28.82V28.82C14.376 29.139 14.4354 29.4556 14.5548 29.7515C14.6741 30.0474 14.851 30.3166 15.0752 30.5436C15.2994 30.7705 15.5664 30.9508 15.8607 31.0737C16.1551 31.1967 16.471 31.26 16.79 31.26V31.26C16.7858 31.5804 16.8455 31.8985 16.9657 32.1955C17.0859 32.4926 17.2642 32.7627 17.49 32.99H17.54C17.7623 33.215 18.027 33.3936 18.3188 33.5154C18.6106 33.6373 18.9237 33.7001 19.24 33.7001C19.5562 33.7001 19.8693 33.6373 20.1612 33.5154C20.453 33.3936 20.7177 33.215 20.94 32.99L22.23 31.71L24 33.47C24.2253 33.6964 24.4934 33.8758 24.7887 33.9977C25.084 34.1196 25.4006 34.1816 25.72 34.18C26.0442 34.1814 26.3654 34.1179 26.6647 33.9933C26.964 33.8687 27.2353 33.6854 27.4627 33.4543C27.6901 33.2232 27.8689 32.9489 27.9887 32.6476C28.1084 32.3464 28.1667 32.0242 28.16 31.7V31.7C28.4803 31.7037 28.7982 31.6437 29.0952 31.5235C29.3922 31.4033 29.6623 31.2254 29.89 31C30.1232 30.7714 30.3067 30.4971 30.4289 30.1942C30.551 29.8913 30.6093 29.5665 30.6 29.24V29.24C31.2454 29.2374 31.8634 28.9791 32.3189 28.5218C32.7743 28.0645 33.03 27.4454 33.03 26.8V26.8H33.08C33.4139 26.8008 33.7444 26.7328 34.0509 26.6002C34.3574 26.4676 34.6333 26.2732 34.8613 26.0293C35.0893 25.7853 35.2646 25.497 35.3762 25.1822C35.4878 24.8675 35.5334 24.5331 35.51 24.2L39.72 20C39.7891 19.9363 39.8442 19.859 39.8819 19.773C39.9197 19.6869 39.9391 19.594 39.9391 19.5C39.9391 19.4061 39.9197 19.3131 39.8819 19.2271C39.8442 19.141 39.7891 19.0637 39.72 19C39.6548 18.9335 39.577 18.8807 39.4912 18.8446C39.4053 18.8085 39.3131 18.7899 39.22 18.7899C39.1269 18.7899 39.0347 18.8085 38.9488 18.8446C38.863 18.8807 38.7852 18.9335 38.72 19H38.75ZM11.2 24.74C11.1001 24.6465 11.0204 24.5334 10.966 24.4079C10.9115 24.2823 10.8834 24.1469 10.8834 24.01C10.8834 23.8731 10.9115 23.7377 10.966 23.6122C11.0204 23.4866 11.1001 23.3736 11.2 23.28L12.68 21.79C12.8781 21.5974 13.1437 21.4897 13.42 21.49C13.6337 21.469 13.8485 21.5174 14.0326 21.6279C14.2167 21.7385 14.3604 21.9054 14.4422 22.1039C14.5241 22.3025 14.5399 22.5221 14.4873 22.7303C14.4346 22.9385 14.3164 23.1242 14.15 23.26L12.67 24.74C12.5764 24.8415 12.4627 24.9225 12.3362 24.9779C12.2097 25.0333 12.0731 25.0619 11.935 25.0619C11.7969 25.0619 11.6603 25.0333 11.5338 24.9779C11.4073 24.9225 11.2936 24.8415 11.2 24.74ZM14.37 27.48C14.1563 27.501 13.9415 27.4527 13.7574 27.3421C13.5732 27.2315 13.4296 27.0646 13.3477 26.8661C13.2659 26.6675 13.2501 26.4479 13.3027 26.2397C13.3553 26.0315 13.4736 25.8458 13.64 25.71L15.12 24.23L16.04 23.31C16.2349 23.1151 16.4993 23.0056 16.775 23.0056C17.0507 23.0056 17.3151 23.1151 17.51 23.31C17.7049 23.505 17.8144 23.7693 17.8144 24.045C17.8144 24.3207 17.7049 24.5851 17.51 24.78L15.11 27.18C15.0139 27.2782 14.8986 27.3555 14.7712 27.4071C14.6439 27.4587 14.5073 27.4835 14.37 27.48V27.48ZM16.08 29.62C15.9785 29.5264 15.8975 29.4127 15.8421 29.2862C15.7867 29.1597 15.7581 29.0231 15.7581 28.885C15.7581 28.7469 15.7867 28.6103 15.8421 28.4838C15.8975 28.3573 15.9785 28.2437 16.08 28.15L17.71 26.51C17.9063 26.3176 18.1702 26.2099 18.445 26.2099C18.7198 26.2099 18.9837 26.3176 19.18 26.51C19.3717 26.7087 19.4792 26.9739 19.48 27.25C19.4821 27.3857 19.4566 27.5204 19.4051 27.6459C19.3535 27.7714 19.2769 27.8851 19.18 27.98L17.54 29.62C17.4465 29.7199 17.3334 29.7996 17.2078 29.854C17.0823 29.9085 16.9469 29.9366 16.81 29.9366C16.6731 29.9366 16.5377 29.9085 16.4122 29.854C16.2866 29.7996 16.1735 29.7199 16.08 29.62V29.62ZM20 32.09C19.9059 32.1887 19.7926 32.2672 19.667 32.3205C19.5415 32.3738 19.4064 32.4009 19.27 32.4C19.1319 32.4022 18.9949 32.3758 18.8675 32.3225C18.7402 32.2691 18.6253 32.19 18.53 32.09C18.4301 31.9965 18.3504 31.8834 18.296 31.7579C18.2415 31.6323 18.2134 31.4969 18.2134 31.36C18.2134 31.2232 18.2415 31.0877 18.296 30.9622C18.3504 30.8366 18.4301 30.7236 18.53 30.63L20.15 29L20.35 28.79C20.5481 28.5974 20.8137 28.4897 21.09 28.49C21.2257 28.4879 21.3603 28.5134 21.4858 28.565C21.6113 28.6165 21.725 28.6931 21.82 28.79C21.9199 28.8836 21.9996 28.9966 22.054 29.1222C22.1085 29.2477 22.1365 29.3832 22.1365 29.52C22.1365 29.6569 22.1085 29.7923 22.054 29.9179C21.9996 30.0434 21.9199 30.1565 21.82 30.25L20 32.09Z" fill="#2B2873"/>
<path d="M47.37 13.14C47.3063 13.0709 47.229 13.0158 47.1429 12.9781C47.0569 12.9403 46.9639 12.9209 46.87 12.9209C46.776 12.9209 46.6831 12.9403 46.597 12.9781C46.511 13.0158 46.4337 13.0709 46.37 13.14L43.83 15.7C43.8216 15.7088 43.8115 15.7158 43.8003 15.7205C43.7892 15.7253 43.7771 15.7278 43.765 15.7278C43.7528 15.7278 43.7408 15.7253 43.7297 15.7205C43.7185 15.7158 43.7084 15.7088 43.7 15.7L34.62 7C34.6157 6.97687 34.6157 6.95314 34.62 6.93C34.6147 6.9191 34.6119 6.90713 34.6119 6.895C34.6119 6.88288 34.6147 6.87091 34.62 6.86L40 1.52C40.0665 1.45483 40.1194 1.37703 40.1554 1.29118C40.1915 1.20532 40.2101 1.11313 40.2101 1.02C40.2101 0.926877 40.1915 0.834685 40.1554 0.748829C40.1194 0.662973 40.0665 0.58518 40 0.520004C39.9363 0.450917 39.859 0.395776 39.7729 0.358061C39.6869 0.320345 39.5939 0.300873 39.5 0.300873C39.406 0.300873 39.3131 0.320345 39.227 0.358061C39.141 0.395776 39.0637 0.450917 39 0.520004L33.61 5.9C33.3619 6.15385 33.2132 6.48841 33.1912 6.8427C33.1692 7.19698 33.2752 7.54738 33.49 7.83L31.02 10.24L28.74 9C28.4352 8.82724 28.0903 8.73758 27.74 8.74H21.14L20.64 8.24C20.1776 7.76591 19.6182 7.39748 19 7.16L17.17 6.46L16.33 5.62C16.5455 5.25581 16.6339 4.83036 16.5814 4.41045C16.529 3.99054 16.3385 3.59995 16.04 3.3L13.29 0.550003C13.2263 0.480916 13.149 0.425775 13.0629 0.38806C12.9769 0.350344 12.884 0.330873 12.79 0.330873C12.696 0.330873 12.6031 0.350344 12.517 0.38806C12.431 0.425775 12.3537 0.480916 12.29 0.550003C12.2235 0.615179 12.1706 0.692974 12.1345 0.77883C12.0985 0.864685 12.0799 0.956875 12.0799 1.05C12.0799 1.14313 12.0985 1.23532 12.1345 1.32118C12.1706 1.40703 12.2235 1.48483 12.29 1.55L15.04 4.3C15.0893 4.34923 15.1284 4.40768 15.1551 4.47203C15.1817 4.53637 15.1955 4.60535 15.1955 4.675C15.1955 4.74466 15.1817 4.81363 15.1551 4.87798C15.1284 4.94232 15.0893 5.00078 15.04 5.05L9.45999 10.64C9.3909 10.7037 9.33576 10.781 9.29805 10.8671C9.26033 10.9531 9.24086 11.046 9.24086 11.14C9.24086 11.234 9.26033 11.3269 9.29805 11.413C9.33576 11.499 9.3909 11.5763 9.45999 11.64C9.58779 11.7667 9.76003 11.8385 9.93999 11.84C10.0293 11.8403 10.1178 11.8228 10.2002 11.7885C10.2826 11.7541 10.3573 11.7036 10.42 11.64L15.42 6.69L16.33 7.6C16.398 7.66703 16.4799 7.71824 16.57 7.75L18.57 8.5C18.9901 8.65801 19.3718 8.90342 19.69 9.22001L19.57 9.33001L16.97 11.94C16.7142 12.1917 16.5116 12.4923 16.3742 12.8238C16.2368 13.1554 16.1673 13.5111 16.17 13.87C16.1709 14.3877 16.3185 14.8946 16.5956 15.3319C16.8727 15.7692 17.2681 16.119 17.7358 16.3409C18.2036 16.5628 18.7247 16.6475 19.2387 16.5854C19.7526 16.5233 20.2385 16.3169 20.64 15.99L22.64 14.37H24.7L27 16.65C27.0637 16.7191 27.141 16.7742 27.227 16.8119C27.3131 16.8497 27.406 16.8691 27.5 16.8691C27.5939 16.8691 27.6869 16.8497 27.7729 16.8119C27.859 16.7742 27.9363 16.7191 28 16.65C28.0691 16.5863 28.1242 16.509 28.1619 16.423C28.1997 16.3369 28.2191 16.244 28.2191 16.15C28.2191 16.056 28.1997 15.9631 28.1619 15.877C28.1242 15.791 28.0691 15.7137 28 15.65L26.25 14C26.3222 13.8901 26.3604 13.7615 26.36 13.63C26.36 13.5399 26.3421 13.4506 26.3073 13.3674C26.2725 13.2843 26.2215 13.2089 26.1573 13.1456C26.0931 13.0823 26.0169 13.0324 25.9333 12.9989C25.8496 12.9653 25.7601 12.9487 25.67 12.95H22.33C22.1706 12.9492 22.0157 13.002 21.89 13.1L19.73 14.88C19.5304 15.0461 19.2874 15.1517 19.0298 15.1841C18.7721 15.2165 18.5106 15.1745 18.2761 15.063C18.0415 14.9516 17.8438 14.7753 17.7063 14.555C17.5688 14.3347 17.4972 14.0797 17.5 13.82C17.4932 13.6346 17.5253 13.4499 17.5942 13.2777C17.6631 13.1055 17.7673 12.9496 17.9 12.82L20.5 10.21C20.5484 10.1614 20.6061 10.1231 20.6697 10.0973C20.7333 10.0715 20.8014 10.0588 20.87 10.06H27.75C27.8614 10.0616 27.971 10.0889 28.07 10.14L30.64 11.58C30.8278 11.6834 31.0439 11.7236 31.2564 11.6948C31.4689 11.666 31.6664 11.5696 31.82 11.42L34.5 8.79L41.89 15.79L40.82 17C40.7509 17.0637 40.6958 17.141 40.658 17.227C40.6203 17.3131 40.6009 17.406 40.6009 17.5C40.6009 17.594 40.6203 17.6869 40.658 17.773C40.6958 17.859 40.7509 17.9363 40.82 18C40.9478 18.1267 41.12 18.1985 41.3 18.2C41.483 18.199 41.6585 18.1273 41.79 18L42.89 16.89C43.1454 17.0771 43.4534 17.1786 43.77 17.18C44.147 17.1741 44.5064 17.0196 44.77 16.75L47.34 14.19C47.4091 14.1263 47.4642 14.049 47.5019 13.963C47.5397 13.8769 47.5591 13.784 47.5591 13.69C47.5591 13.596 47.5397 13.5031 47.5019 13.417C47.4642 13.331 47.4091 13.2537 47.34 13.19L47.37 13.14Z" fill="#2B2873"/>
</svg>
