<svg width="48" height="48" viewBox="0 0 48 48" fill="none" xmlns="http://www.w3.org/2000/svg">
<path d="M6.21176 41.9765H4.32941C3.55012 41.9765 2.91765 41.344 2.91765 40.5647C2.91765 39.7855 3.55012 39.153 4.32941 39.153H6.21176V35.953H4.32941C3.55012 35.953 2.91765 35.3205 2.91765 34.5412C2.91765 33.7619 3.55012 33.1295 4.32941 33.1295H6.21176V29.9295H4.32941C3.55012 29.9295 2.91765 29.297 2.91765 28.5177C2.91765 27.7384 3.55012 27.1059 4.32941 27.1059H6.21176V21.0824H1.41176C0.632471 21.0824 0 21.7149 0 22.4942V46.5883C0 47.3676 0.632471 48 1.41176 48H6.21581C6.21045 46.1232 6.21176 47.3455 6.21176 41.9765Z" fill="#FFCB05"/>
<path d="M29.5529 1.41176C29.5529 0.632471 28.9204 0 28.1412 0H16.0941C15.3148 0 14.6823 0.632471 14.6823 1.41176V3.2H29.5529V1.41176Z" fill="#FFCB05"/>
<path d="M38.3059 18.8235C32.9609 18.8235 28.6118 23.1727 28.6118 28.5177C28.6118 32.7981 34.3962 38.9365 37.36 41.6132C37.8984 42.0969 38.7125 42.0979 39.2518 41.6132C42.2842 38.8744 48 32.7737 48 28.5177C48 23.1727 43.6508 18.8235 38.3059 18.8235ZM40.5647 29.9294H36.0471C35.2678 29.9294 34.6353 29.297 34.6353 28.5177C34.6353 27.7384 35.2678 27.1059 36.0471 27.1059H40.5647C41.344 27.1059 41.9765 27.7384 41.9765 28.5177C41.9765 29.297 41.344 29.9294 40.5647 29.9294Z" fill="#FFCB05"/>
<path d="M46.5882 45.1764H35.2V43.4626C31.3621 39.8793 25.7882 33.7529 25.7882 28.5176C25.7882 22.687 29.7948 17.775 35.2 16.3906V7.43526C35.2 6.65597 34.5675 6.0235 33.7882 6.0235H10.447C9.66775 6.0235 9.03528 6.65597 9.03528 7.43526V48H46.5882C47.3679 48 48 47.3679 48 46.5882C48 45.8085 47.3679 45.1764 46.5882 45.1764ZM25.5059 9.03526H27.7647C28.544 9.03526 29.1765 9.66773 29.1765 10.447C29.1765 11.2263 28.544 11.8588 27.7647 11.8588H25.5059C24.7266 11.8588 24.0941 11.2263 24.0941 10.447C24.0941 9.66773 24.7266 9.03526 25.5059 9.03526ZM18.7294 35.9529H16.4706C15.6913 35.9529 15.0588 35.3204 15.0588 34.5411C15.0588 33.7619 15.6913 33.1294 16.4706 33.1294H18.7294C19.5087 33.1294 20.1412 33.7619 20.1412 34.5411C20.1412 35.3204 19.5087 35.9529 18.7294 35.9529ZM18.7294 29.9294H16.4706C15.6913 29.9294 15.0588 29.2969 15.0588 28.5176C15.0588 27.7383 15.6913 27.1059 16.4706 27.1059H18.7294C19.5087 27.1059 20.1412 27.7383 20.1412 28.5176C20.1412 29.2969 19.5087 29.9294 18.7294 29.9294ZM18.7294 23.9059H16.4706C15.6913 23.9059 15.0588 23.2734 15.0588 22.4941C15.0588 21.7148 15.6913 21.0823 16.4706 21.0823H18.7294C19.5087 21.0823 20.1412 21.7148 20.1412 22.4941C20.1412 23.2734 19.5087 23.9059 18.7294 23.9059ZM18.7294 17.8823H16.4706C15.6913 17.8823 15.0588 17.2499 15.0588 16.4706C15.0588 15.6913 15.6913 15.0588 16.4706 15.0588H18.7294C19.5087 15.0588 20.1412 15.6913 20.1412 16.4706C20.1412 17.2499 19.5087 17.8823 18.7294 17.8823ZM18.7294 11.8588H16.4706C15.6913 11.8588 15.0588 11.2263 15.0588 10.447C15.0588 9.66773 15.6913 9.03526 16.4706 9.03526H18.7294C19.5087 9.03526 20.1412 9.66773 20.1412 10.447C20.1412 11.2263 19.5087 11.8588 18.7294 11.8588ZM24.0941 16.4706C24.0941 15.6913 24.7266 15.0588 25.5059 15.0588H27.7647C28.544 15.0588 29.1765 15.6913 29.1765 16.4706C29.1765 17.2499 28.544 17.8823 27.7647 17.8823H25.5059C24.7266 17.8823 24.0941 17.2499 24.0941 16.4706Z" fill="#FFCB05"/>
</svg>
