<svg width="40" height="41" viewBox="0 0 40 41" fill="none" xmlns="http://www.w3.org/2000/svg">
<path d="M39.93 19.85V0.649999H13V7.05H9.5C10.0087 6.48358 10.3376 5.77872 10.4449 5.02496C10.5521 4.2712 10.4329 3.50258 10.1023 2.81675C9.77174 2.13091 9.24475 1.55882 8.58831 1.17316C7.93186 0.787501 7.1756 0.605681 6.41559 0.650802C5.65558 0.695923 4.92613 0.965947 4.31993 1.42657C3.71373 1.88719 3.25814 2.51761 3.01104 3.23775C2.76394 3.95788 2.73648 4.73521 2.93216 5.47098C3.12783 6.20676 3.53781 6.86776 4.11 7.37C2.98068 7.76384 2.00165 8.49888 1.30834 9.47346C0.615027 10.448 0.241701 11.614 0.240001 12.81V14.73C0.240001 15.0662 0.306218 15.3991 0.43487 15.7097C0.563522 16.0203 0.752089 16.3025 0.989807 16.5402C1.22753 16.7779 1.50974 16.9665 1.82033 17.0951C2.13093 17.2238 2.46382 17.29 2.8 17.29V24C2.78667 24.3445 2.85521 24.6872 3 25H0.240001V30.1H3C2.85509 30.5112 2.7807 30.944 2.78 31.38C2.77995 31.9258 2.89684 32.4652 3.12281 32.962C3.34878 33.4588 3.67858 33.9014 4.09 34.26C2.96068 34.6538 1.98165 35.3889 1.28834 36.3635C0.595027 37.338 0.221702 38.504 0.220001 39.7V40.34H36.09V39.7C36.0883 38.504 35.715 37.338 35.0217 36.3635C34.3284 35.3889 33.3493 34.6538 32.22 34.26C32.6314 33.9014 32.9612 33.4588 33.1872 32.962C33.4132 32.4652 33.5301 31.9258 33.53 31.38C33.5293 30.944 33.4549 30.5112 33.31 30.1H39.93V25H35.81L32.74 19.88L39.93 19.85ZM14.32 1.93H38.65V18.57H14.32V10.89H16.24C16.6367 10.8885 17.0232 10.7648 17.3471 10.5358C17.671 10.3068 17.9164 9.9835 18.05 9.61H25.85V3.21H15.6V7.05H14.32V1.93ZM10.26 25C10.4117 24.6889 10.4871 24.3461 10.48 24V10.89H13V19.89H20.19L17.16 25H10.26ZM21.73 19.88H23.44L20.36 25H18.65L21.73 19.88ZM24.57 20.49V25H21.86L24.57 20.49ZM25.85 19.88H27.13V25H25.85V19.88ZM28.41 20.49L31.12 25H28.41V20.49ZM18.05 8.33C17.9533 8.06194 17.7981 7.81876 17.5957 7.61812C17.3934 7.41748 17.1489 7.26441 16.88 7.17V4.49H24.57V8.33H18.05ZM6.64 1.93C7.14632 1.93 7.64127 2.08014 8.06226 2.36144C8.48325 2.64273 8.81137 3.04255 9.00513 3.51033C9.19889 3.97811 9.24959 4.49284 9.15081 4.98943C9.05203 5.48602 8.80822 5.94217 8.45019 6.30019C8.09217 6.65822 7.63602 6.90203 7.13943 7.00081C6.64284 7.09959 6.12811 7.04889 5.66033 6.85513C5.19255 6.66137 4.79274 6.33325 4.51144 5.91226C4.23014 5.49127 4.08 4.99632 4.08 4.49C4.08 3.81104 4.34972 3.1599 4.82981 2.67981C5.3099 2.19971 5.96105 1.93 6.64 1.93V1.93ZM4.08 24V12.81H2.8V16C2.46052 16 2.13495 15.8651 1.8949 15.6251C1.65486 15.385 1.52 15.0595 1.52 14.72V12.81C1.52264 11.6226 1.99549 10.4847 2.83508 9.64508C3.67467 8.80549 4.81264 8.33264 6 8.33H16.24C16.4097 8.33 16.5725 8.39743 16.6926 8.51745C16.8126 8.63747 16.88 8.80026 16.88 8.97C16.88 9.13974 16.8126 9.30252 16.6926 9.42255C16.5725 9.54257 16.4097 9.61 16.24 9.61H9.24V24C9.17942 24.2077 9.0531 24.3902 8.88 24.52C8.7069 24.6498 8.49637 24.72 8.28 24.72C8.06363 24.72 7.8531 24.6498 7.68 24.52C7.50691 24.3902 7.38058 24.2077 7.32 24V15.37H6V24C5.93942 24.2077 5.8131 24.3902 5.64 24.52C5.4669 24.6498 5.25637 24.72 5.04 24.72C4.82363 24.72 4.6131 24.6498 4.44 24.52C4.26691 24.3902 4.14058 24.2077 4.08 24ZM6.64 28.81C7.14632 28.81 7.64127 28.9601 8.06226 29.2414C8.48325 29.5227 8.81137 29.9226 9.00513 30.3903C9.19889 30.8581 9.24959 31.3728 9.15081 31.8694C9.05203 32.366 8.80822 32.8222 8.45019 33.1802C8.09217 33.5382 7.63602 33.782 7.13943 33.8808C6.64284 33.9796 6.12811 33.9289 5.66033 33.7351C5.19255 33.5414 4.79274 33.2132 4.51144 32.7923C4.23014 32.3713 4.08 31.8763 4.08 31.37C4.08 30.691 4.34972 30.0399 4.82981 29.5598C5.3099 29.0797 5.96105 28.81 6.64 28.81V28.81ZM1.56 39.06C1.71602 37.9936 2.2504 37.0189 3.06556 36.3139C3.88072 35.6089 4.92227 35.2206 6 35.22H7.28C8.35716 35.2227 9.39762 35.6117 10.2123 36.3164C11.0271 37.021 11.562 37.9945 11.72 39.06H1.56ZM9.17 34.26C9.58142 33.9014 9.91122 33.4588 10.1372 32.962C10.3632 32.4652 10.4801 31.9258 10.48 31.38C10.4793 30.944 10.4049 30.5112 10.26 30.1H14.55C14.3969 30.5093 14.319 30.943 14.32 31.38C14.3192 31.9269 14.4368 32.4674 14.6646 32.9645C14.8925 33.4617 15.2252 33.9036 15.64 34.26C14.2406 34.7483 13.0813 35.7538 12.4 37.07C11.7203 35.7563 10.5651 34.7514 9.17 34.26V34.26ZM20.73 31.38C20.732 31.8887 20.5829 32.3866 20.3017 32.8105C20.0206 33.2345 19.6199 33.5654 19.1504 33.7615C18.681 33.9575 18.164 34.0099 17.6648 33.9118C17.1656 33.8138 16.7067 33.5698 16.3463 33.2108C15.9859 32.8518 15.7401 32.3939 15.6401 31.8951C15.5402 31.3963 15.5905 30.879 15.7847 30.4088C15.9789 29.9386 16.3083 29.5367 16.7312 29.2538C17.154 28.971 17.6513 28.82 18.16 28.82C18.8399 28.82 19.4921 29.0894 19.9737 29.5692C20.4554 30.049 20.7274 30.7001 20.73 31.38ZM13.09 39.06C13.2438 37.9945 13.7762 37.0199 14.5897 36.3148C15.4032 35.6096 16.4434 35.221 17.52 35.22H18.8C19.8783 35.2186 20.921 35.6061 21.7365 36.3115C22.5521 37.0169 23.086 37.9928 23.24 39.06H13.09ZM20.69 34.26C21.1029 33.9027 21.4338 33.4603 21.6599 32.9632C21.886 32.4662 22.002 31.9261 22 31.38C21.9961 30.9434 21.9183 30.5106 21.77 30.1H26.06C25.9151 30.5112 25.8407 30.944 25.84 31.38C25.8399 31.9258 25.9568 32.4652 26.1828 32.962C26.4088 33.4588 26.7386 33.9014 27.15 34.26C25.7549 34.7514 24.5997 35.7563 23.92 37.07C23.2363 35.7557 22.0778 34.751 20.68 34.26H20.69ZM30.33 35.26C31.4072 35.2627 32.4476 35.6517 33.2623 36.3563C34.0771 37.061 34.612 38.0345 34.77 39.1H24.61C24.764 38.0327 25.2979 37.0569 26.1134 36.3515C26.929 35.6461 27.9717 35.2586 29.05 35.26H30.33ZM29.69 33.98C29.1837 33.98 28.6887 33.8299 28.2677 33.5486C27.8467 33.2673 27.5186 32.8674 27.3249 32.3997C27.1311 31.9319 27.0804 31.4172 27.1792 30.9206C27.278 30.424 27.5218 29.9678 27.8798 29.6098C28.2378 29.2518 28.694 29.008 29.1906 28.9092C29.6872 28.8104 30.2019 28.8611 30.6697 29.0549C31.1374 29.2486 31.5373 29.5768 31.8186 29.9977C32.0999 30.4187 32.25 30.9137 32.25 31.42C32.25 32.099 31.9803 32.7501 31.5002 33.2302C31.0201 33.7103 30.369 33.98 29.69 33.98V33.98ZM38.69 28.86H32.54C32.1816 28.4568 31.7419 28.1342 31.2498 27.9132C30.7577 27.6922 30.2244 27.578 29.685 27.578C29.1456 27.578 28.6123 27.6922 28.1202 27.9132C27.6281 28.1342 27.1884 28.4568 26.83 28.86H21C20.6416 28.4568 20.2019 28.1342 19.7098 27.9132C19.2177 27.6922 18.6844 27.578 18.145 27.578C17.6056 27.578 17.0723 27.6922 16.5802 27.9132C16.0881 28.1342 15.6484 28.4568 15.29 28.86H9.5C9.13984 28.458 8.69899 28.1365 8.20619 27.9163C7.7134 27.6962 7.17973 27.5824 6.64 27.5824C6.10027 27.5824 5.56661 27.6962 5.07381 27.9163C4.58102 28.1365 4.14016 28.458 3.78 28.86H1.52V26.26H38.65L38.69 28.86ZM34.32 25H32.61L29.54 19.88H31.25L34.32 25Z" fill="#2B2873"/>
<path d="M25.85 14.73V16H24.57V10.89H23.29V16H22V17.28H37.37V8.28H36.09V16H34.81V9.6H33.53V16H32.25V13.45H31V16H29.69V12.17H28.41V16H27.13V14.73H25.85Z" fill="#2B2873"/>
<path d="M28.41 3.21H27.13V4.49H28.41V3.21Z" fill="#2B2873"/>
<path d="M37.37 3.21H29.69V4.49H37.37V3.21Z" fill="#2B2873"/>
<path d="M37.37 5.77H27.13V7.05H37.37V5.77Z" fill="#2B2873"/>
<path d="M16.88 13.45H15.6V14.73H16.88V13.45Z" fill="#2B2873"/>
<path d="M16.88 16.01H15.6V17.29H16.88V16.01Z" fill="#2B2873"/>
</svg>
