<svg width="60" height="60" viewBox="0 0 60 60" fill="none" xmlns="http://www.w3.org/2000/svg">
<path d="M51.2136 8.78685C45.5474 3.1206 38.0129 0 30 0C21.9872 0 14.4527 3.1206 8.7864 8.78685C3.12015 14.4531 0 21.9866 0 30C0 38.0135 3.12015 45.5469 8.7864 51.2132C14.4527 56.8794 21.9872 60 30 60C38.0129 60 45.5474 56.8794 51.2136 51.2132C56.8799 45.5469 60 38.0135 60 30C60 21.9866 56.8799 14.4531 51.2136 8.78685ZM30 54.957C16.239 54.957 5.0424 43.7615 5.0424 30C5.0424 16.2386 16.239 5.043 30 5.043C43.761 5.043 54.9576 16.2386 54.9576 30C54.9576 43.7615 43.761 54.957 30 54.957Z" fill="#FFCB05"/>
<path d="M20.8203 45.9306C19.8532 45.3726 18.6156 45.703 18.0556 46.6702C17.4978 47.6385 17.8297 48.8763 18.7968 49.4344C19.1151 49.6188 19.4637 49.7065 19.8072 49.7065C20.5059 49.7065 21.1854 49.3437 21.5607 48.6949C22.1192 47.7264 21.7882 46.4889 20.8203 45.9306Z" fill="#FFCB05"/>
<path d="M19.7709 14.3637C20.1156 14.3637 20.4657 14.2758 20.7855 14.0904C21.751 13.5294 22.0804 12.2904 21.5191 11.3247C20.9568 10.3578 19.7194 10.0297 18.7535 10.5906C17.7866 11.1516 17.4587 12.3892 18.0198 13.3561C18.3953 14.0025 19.0731 14.3637 19.7709 14.3637Z" fill="#FFCB05"/>
<path d="M11.301 21.5721C11.6191 21.7546 11.9667 21.8427 12.3099 21.8427C13.009 21.8427 13.69 21.48 14.064 20.8297C14.6221 19.8628 14.2899 18.6252 13.3228 18.067C12.3546 17.5075 11.1171 17.8396 10.5588 18.8077C10.0005 19.7763 10.3329 21.0126 11.301 21.5721Z" fill="#FFCB05"/>
<path d="M29.9654 11.6177C29.9669 11.6177 29.9669 11.6177 29.9679 11.6177C31.0857 11.6148 31.9898 10.7079 31.9889 9.59026C31.9857 8.47246 31.0793 7.56841 29.9613 7.57111C28.8434 7.57246 27.9394 8.47951 27.942 9.59701C27.9433 10.7135 28.8487 11.6177 29.9654 11.6177Z" fill="#FFCB05"/>
<path d="M11.3192 38.4712C10.3521 39.0307 10.0227 40.2682 10.584 41.2356C10.9595 41.8827 11.639 42.2445 12.3368 42.2445C12.6813 42.2445 13.0299 42.1566 13.3497 41.971C14.3166 41.4117 14.6457 40.1724 14.0847 39.2067C13.5239 38.2398 12.2861 37.9101 11.3192 38.4712Z" fill="#FFCB05"/>
<path d="M11.6176 30.0211C11.6161 28.9032 10.7092 27.9993 9.59175 28.0005C8.4741 28.0018 7.5699 28.9087 7.57125 30.025C7.57275 31.1428 8.47815 32.0469 9.5946 32.0469H9.59565C10.7137 32.0455 11.6191 31.1385 11.6176 30.0211Z" fill="#FFCB05"/>
<path d="M30.0096 48.3823C28.8936 48.3838 27.9878 49.2894 27.9878 50.4069C27.9893 51.5247 28.8951 52.4302 30.0126 52.4287C31.1301 52.4287 32.0359 51.5217 32.0344 50.404C32.0346 49.2877 31.128 48.3823 30.0096 48.3823Z" fill="#FFCB05"/>
<path d="M48.6893 38.4503C47.7226 37.8909 46.4853 38.2214 45.9252 39.1884C45.3658 40.1553 45.6964 41.393 46.6633 41.9526C46.9831 42.137 47.3317 42.2246 47.6748 42.2246C48.374 42.2246 49.0535 41.8634 49.4274 41.2143C49.9872 40.2474 49.6563 39.0096 48.6893 38.4503Z" fill="#FFCB05"/>
<path d="M50.4015 27.9293C49.284 27.9321 48.3796 28.8405 48.3826 29.958C48.3826 29.9693 48.3826 29.9805 48.3826 29.9901C48.3826 29.9945 48.3826 29.9972 48.3826 30C48.3826 31.1177 49.2879 32.0232 50.4055 32.0232C51.5235 32.0232 52.4289 31.1177 52.4289 30C52.4289 29.993 52.4289 29.9846 52.4289 29.9763C52.4289 29.9679 52.4289 29.958 52.4289 29.9484C52.4263 28.8308 51.519 27.9279 50.4015 27.9293Z" fill="#FFCB05"/>
<path d="M39.1607 14.0581C39.4785 14.2423 39.8262 14.3287 40.1693 14.3287C40.8684 14.3287 41.5494 13.966 41.9234 13.3158C42.4817 12.3472 42.1494 11.1097 41.1811 10.5516C40.2126 9.99478 38.9748 10.3269 38.4182 11.2954C37.8603 12.2637 38.1923 13.5015 39.1607 14.0581Z" fill="#FFCB05"/>
<path d="M39.1968 45.9211C38.2299 46.4805 37.8994 47.718 38.4603 48.6852C38.8356 49.3324 39.5148 49.6953 40.2129 49.6953C40.5576 49.6953 40.905 49.6074 41.2244 49.4223C42.1914 48.8628 42.5208 47.625 41.9615 46.6576C41.4015 45.6906 40.1637 45.36 39.1968 45.9211Z" fill="#FFCB05"/>
<path d="M47.6554 21.7828C48.0016 21.7828 48.3502 21.6934 48.6711 21.5079C49.6369 20.9455 49.965 19.7079 49.4027 18.7423C48.8417 17.7753 47.6025 17.4487 46.6369 18.0097C45.6711 18.5706 45.3432 19.8096 45.9043 20.7753C46.2798 21.4213 46.9578 21.7828 47.6554 21.7828Z" fill="#FFCB05"/>
<path d="M42.7139 31.4184L32.0891 30.6938L31.0286 15.1322C30.992 14.5968 30.5468 14.1812 30.0099 14.1812C29.4732 14.1812 29.0286 14.5968 28.9917 15.1322L27.9499 30.4115L26.2494 30.2955C26.0226 30.2799 25.7996 30.3593 25.6335 30.5145C25.4678 30.6696 25.3734 30.8868 25.3734 31.1142V33.36C25.3734 33.5876 25.4678 33.8045 25.6335 33.9596C25.7859 34.1019 25.9865 34.1807 26.1938 34.1807C26.2121 34.1807 26.2307 34.18 26.2494 34.1789L27.6999 34.0799L27.5952 35.6112C27.5763 35.8934 27.6749 36.1706 27.8678 36.377C28.0607 36.5837 28.3308 36.701 28.6137 36.701H31.4064C31.4076 36.701 31.409 36.701 31.4096 36.701C31.973 36.701 32.4299 36.2441 32.4299 35.6804C32.4299 35.6307 32.2992 33.7656 32.2992 33.7656L42.7143 33.0555C43.145 33.0261 43.4795 32.6684 43.4795 32.2368C43.4786 31.8056 43.1445 31.4478 42.7139 31.4184Z" fill="#FFCB05"/>
</svg>
