<svg xmlns="http://www.w3.org/2000/svg" viewBox="0 0 25.04 25.05"><defs><style>.cls-1{fill:#ffca05;}</style></defs><g id="Layer_2" data-name="Layer 2"><g id="Layer_1-2" data-name="Layer 1"><path class="cls-1" d="M14.83,16.18A9.25,9.25,0,0,1,1.92,14.71,9.1,9.1,0,0,1,14.58,1.85a9.21,9.21,0,0,1,1.61,13c.47.49.84,1.07,1.7,1a1.66,1.66,0,0,1,1,.54q2.79,2.75,5.54,5.53a1.79,1.79,0,1,1-2.53,2.52q-2.82-2.77-5.59-5.6a1.5,1.5,0,0,1-.48-1C15.91,17,15.28,16.67,14.83,16.18ZM9.11,1.79A7.31,7.31,0,0,0,9,16.4,7.31,7.31,0,1,0,9.11,1.79Z"/><path class="cls-1" d="M15.15,8.69c0,.52-.05,1.05-.7,1.08s-.73-.45-.76-1A4.66,4.66,0,0,0,9.44,4.45c-.25,0-.57,0-.72-.15s-.36-.63-.27-.74a1.25,1.25,0,0,1,.87-.5,5.93,5.93,0,0,1,5.45,4A14.87,14.87,0,0,1,15.15,8.69Z"/></g></g></svg>