<svg width="41" height="40" viewBox="0 0 41 40" fill="none" xmlns="http://www.w3.org/2000/svg">
<path d="M38.67 34.59C38.4385 33.8109 37.9952 33.1114 37.3897 32.5694C36.7841 32.0273 36.0399 31.6641 35.24 31.52L31.11 30.77V30.44C31.8837 29.9907 32.5519 29.3806 33.0694 28.6508C33.587 27.9211 33.9418 27.0887 34.11 26.21C34.6755 26.0926 35.1832 25.7839 35.5476 25.3357C35.9119 24.8876 36.1105 24.3275 36.11 23.75V17.54C36.1018 16.6937 35.8253 15.8718 35.3203 15.1926C34.8154 14.5133 34.108 14.0117 33.3 13.76L33 13.44C31.9164 12.3616 30.5378 11.6282 29.0379 11.3323C27.5381 11.0364 25.9842 11.1914 24.5723 11.7775C23.1604 12.3637 21.9537 13.3548 21.1044 14.626C20.255 15.8971 19.8012 17.3912 19.8 18.92V23.75C19.7995 24.3275 19.9981 24.8876 20.3624 25.3357C20.7268 25.7839 21.2345 26.0926 21.8 26.21C21.9682 27.0887 22.323 27.9211 22.8406 28.6508C23.3581 29.3806 24.0263 29.9907 24.8 30.44V30.77L20.67 31.52C19.8697 31.663 19.125 32.0259 18.5192 32.5681C17.9134 33.1103 17.4705 33.8104 17.24 34.59L15.78 39.47H40.13L38.67 34.59ZM34.26 24.83V22.67C34.4488 22.78 34.6055 22.9377 34.7144 23.1272C34.8233 23.3167 34.8806 23.5314 34.8806 23.75C34.8806 23.9686 34.8233 24.1833 34.7144 24.3728C34.6055 24.5623 34.4488 24.72 34.26 24.83V24.83ZM21.68 24.83C21.4886 24.722 21.3293 24.5651 21.2185 24.3753C21.1077 24.1856 21.0493 23.9698 21.0493 23.75C21.0493 23.5302 21.1077 23.3144 21.2185 23.1247C21.3293 22.9349 21.4886 22.778 21.68 22.67V24.83ZM21.68 20.61V21.32C21.4605 21.3815 21.249 21.4688 21.05 21.58V18.92C21.0468 17.6361 21.4252 16.3801 22.137 15.3116C22.8488 14.243 23.862 13.41 25.048 12.9182C26.2341 12.4264 27.5395 12.2981 28.7986 12.5495C30.0576 12.8008 31.2137 13.4205 32.12 14.33L32.68 14.89H32.85C33.4259 15.0411 33.9352 15.3796 34.2973 15.8522C34.6595 16.3248 34.8539 16.9046 34.85 17.5V21.5C34.6554 21.3871 34.447 21.2997 34.23 21.24V20.53H32.23C31.386 20.5261 30.5543 20.3274 29.7998 19.9493C29.0452 19.5711 28.3882 19.0238 27.88 18.35L27.38 17.68L26.16 19C25.6557 19.5076 25.0558 19.9104 24.395 20.185C23.7342 20.4596 23.0256 20.6007 22.31 20.6L21.68 20.61ZM22.94 25V21.84C24.4944 21.6928 25.9484 21.0065 27.05 19.9L27.29 19.66C27.9237 20.3554 28.696 20.9103 29.5571 21.2892C30.4183 21.6681 31.3492 21.8626 32.29 21.86H33V25C33 26.334 32.4701 27.6134 31.5267 28.5567C30.5834 29.5001 29.304 30.03 27.97 30.03C26.636 30.03 25.3566 29.5001 24.4133 28.5567C23.4699 27.6134 22.94 26.334 22.94 25ZM26.14 31C27.3335 31.3598 28.6065 31.3598 29.8 31L28 32.39L26.14 31ZM27 33.25L25.72 34.53L24.9 32L25.3 31.93L27 33.25ZM30.64 32H31L30.17 34.49L28.89 33.21L30.64 32ZM17.5 38.21L18.5 34.95C18.6642 34.3932 18.9805 33.8932 19.4133 33.5063C19.8461 33.1194 20.3783 32.861 20.95 32.76L23.67 32.26L25.2 36.86L28 34.07L30.79 36.86L32.32 32.26L35.04 32.76C35.6123 32.8701 36.1424 33.1383 36.5701 33.5342C36.9978 33.9301 37.3061 34.4379 37.46 35L38.46 38.26L17.5 38.21Z" fill="#2B2873"/>
<path d="M17.28 10.65V6.64999L15.57 6.18999C15.52 6.05999 15.47 5.92999 15.41 5.79999L16.3 4.26999L13.48 1.44999L12 2.35999L11.61 2.18999L11.15 0.48999H7.15001L6.69001 2.18999L6.30001 2.35999L4.77001 1.46999L1.95001 4.28999L2.84001 5.81999C2.78001 5.94999 2.72001 6.07999 2.67001 6.20999L0.960007 6.66999V10.67L2.67001 11.13C2.67001 11.26 2.78001 11.39 2.84001 11.52L1.92001 13L4.74001 15.82L6.27001 15L6.66001 15.17L7.12001 16.87H11.12L11.58 15.17L12 15L13.53 15.89L16.29 13L15.41 11.47C15.47 11.34 15.52 11.21 15.57 11.08L17.28 10.65ZM14.72 12.83L13.27 14.28L12 13.54L11.7 13.69C11.428 13.8352 11.1435 13.9557 10.85 14.05L10.52 14.15L10.14 15.58H8.08001L7.70001 14.15L7.38001 14.05C7.08579 13.9575 6.80114 13.837 6.53001 13.69L6.22001 13.54L4.94001 14.28L3.49001 12.83L4.23001 11.55L4.08001 11.24C3.9348 10.968 3.81432 10.6835 3.72001 10.39L3.62001 10.07L2.19001 9.68999V7.62999L3.62001 7.25999L3.72001 6.92999C3.81432 6.63645 3.9348 6.35198 4.08001 6.07999L4.23001 5.77999L3.49001 4.49999L4.94001 2.99999L6.22001 3.74999L6.53001 3.58999C6.80511 3.45142 7.08906 3.33116 7.38001 3.22999L7.70001 3.12999L8.08001 1.70999H10.13L10.51 3.12999L10.84 3.22999C11.1303 3.33293 11.4141 3.45314 11.69 3.58999L11.99 3.74999L13.27 2.99999L14.72 4.45999L14 5.77999L14.16 6.07999C14.2979 6.35412 14.4149 6.63826 14.51 6.92999L14.62 7.25999L16.04 7.62999V9.68999L14.62 10.07L14.51 10.39C14.4149 10.6817 14.2979 10.9659 14.16 11.24L14 11.55L14.72 12.83Z" fill="#2B2873"/>
<path d="M12.64 11.29C13.2321 10.4959 13.5389 9.5252 13.5108 8.53505C13.4826 7.54491 13.1212 6.59322 12.485 5.834C11.8488 5.07477 10.9751 4.55242 10.0051 4.35147C9.03517 4.15053 8.0258 4.28275 7.14033 4.72674C6.25487 5.17072 5.54512 5.9005 5.12594 6.79798C4.70675 7.69545 4.60267 8.70811 4.83052 9.6721C5.05837 10.6361 5.60482 11.495 6.38146 12.1098C7.15809 12.7246 8.11946 13.0594 9.11001 13.06C10.0802 13.0662 11.0242 12.7457 11.79 12.15L11.02 11.15C10.4751 11.5763 9.80185 11.8055 9.11001 11.8C8.40577 11.7977 7.72288 11.5581 7.17171 11.1197C6.62054 10.6813 6.2333 10.0699 6.0726 9.38426C5.9119 8.6986 5.98711 7.97879 6.28609 7.34117C6.58507 6.70355 7.09035 6.18539 7.72024 5.87044C8.35012 5.5555 9.06782 5.46218 9.7573 5.60556C10.4468 5.74895 11.0678 6.12066 11.5199 6.66062C11.972 7.20058 12.2288 7.87722 12.2488 8.58117C12.2687 9.28512 12.0507 9.97525 11.63 10.54L12.64 11.29Z" fill="#2B2873"/>
<path d="M38.84 8.21999L38 8.99999V6.76999C37.9974 5.10351 37.3335 3.50619 36.1542 2.32875C34.9749 1.15131 33.3765 0.489988 31.71 0.48999H28V1.74999H31.77C33.0961 1.74999 34.3679 2.27677 35.3055 3.21446C36.2432 4.15214 36.77 5.42391 36.77 6.74999V8.99999L36 8.21999L35.11 9.10999L37.44 11.44L39.77 9.10999L38.84 8.21999Z" fill="#2B2873"/>
<path d="M4.08 33.18V30.93L4.88999 31.74L5.78 30.85L3.45 28.52L1.12 30.85L2.01 31.74L2.81999 30.93V33.18C2.81999 34.8482 3.48269 36.4481 4.66229 37.6277C5.8419 38.8073 7.44178 39.47 9.11 39.47V38.21C7.78391 38.21 6.51214 37.6832 5.57446 36.7455C4.63678 35.8078 4.11 34.5361 4.11 33.21L4.08 33.18Z" fill="#2B2873"/>
<path d="M17.28 19.35H0.929993V20.61H17.28V19.35Z" fill="#2B2873"/>
<path d="M17.28 24.38H0.929993V25.64H17.28V24.38Z" fill="#2B2873"/>
<path d="M8.46999 21.86H0.929993V23.12H8.46999V21.86Z" fill="#2B2873"/>
<path d="M13.35 21.86H9.74001V23.12H17.28V21.86H13.35Z" fill="#2B2873"/>
<path d="M26.71 0.48999H25.45V1.74999H26.71V0.48999Z" fill="#2B2873"/>
<path d="M24.2 0.48999H22.94V1.74999H24.2V0.48999Z" fill="#2B2873"/>
<path d="M11.63 38.21H10.37V39.47H11.63V38.21Z" fill="#2B2873"/>
<path d="M14.14 38.21H12.88V39.47H14.14V38.21Z" fill="#2B2873"/>
</svg>
