<svg xmlns="http://www.w3.org/2000/svg" viewBox="0 0 112.24 112.19"><defs><style>.cls-1{fill:#2b2873;}</style></defs><g id="Layer_2" data-name="Layer 2"><g id="Layer_1-2" data-name="Layer 1"><path class="cls-1" d="M108.62,68.75H97.76V63.32a5.44,5.44,0,0,0-5.43-5.44H74.22a5.43,5.43,0,0,0-4,1.73L50.69,56.35V51.81a18.09,18.09,0,0,0,9.05-15.65h1.81a5.43,5.43,0,1,0,0-10.86h-.87l1-2.3A14.6,14.6,0,0,0,54.31,3.9L49.26,1.6a18.57,18.57,0,0,0-18.53,2L27.88,5.75h0A11.4,11.4,0,0,0,21,10.86a11.23,11.23,0,0,0-.41,10.84l1.8,3.6h-.7a5.43,5.43,0,0,0,0,10.86h1.81a18.08,18.08,0,0,0,9.06,15.65v4.54L10.59,60A12.63,12.63,0,0,0,0,72.52v37.86a1.81,1.81,0,0,0,1.81,1.81H108.62a3.62,3.62,0,0,0,3.62-3.62V72.37A3.62,3.62,0,0,0,108.62,68.75ZM94.14,63.32v5.43H82.67a12.62,12.62,0,0,0-5.86-7.24H92.33A1.82,1.82,0,0,1,94.14,63.32Zm-21.73.35a9,9,0,0,1,6.39,5.08H72.41Zm-9-32.94a1.81,1.81,0,0,1-1.81,1.81H59.74V28.92h1.81A1.81,1.81,0,0,1,63.36,30.73Zm-39.22-18A7.68,7.68,0,0,1,30.7,9a8.45,8.45,0,0,1,7.05,3.77l.57.85,3-2-.57-.85a12,12,0,0,0-6.82-4.93,14.86,14.86,0,0,1,13.81-1l5.06,2.3a11,11,0,0,1,5.54,14.37l-.12.28-2.3-4.59a1.8,1.8,0,0,0-2.71-.64l-2.89,2.17a14.47,14.47,0,0,1-17.38,0l-2.9-2.17a1.79,1.79,0,0,0-1.5-.31,1.84,1.84,0,0,0-1.21.95l-2.45,4.91-1-2.08a7.59,7.59,0,0,1,.28-7.36ZM21.72,32.54a1.81,1.81,0,1,1,0-3.62h1.81v3.62Zm5.43,3.62V25.73l2.46-4.92,1.17.87a18.1,18.1,0,0,0,21.72,0l1.16-.87,2.46,4.92V36.16a14.49,14.49,0,0,1-29,0Zm14.49,18.1a18.08,18.08,0,0,0,5.43-.83v3.7l-5.43,5.44-5.43-5.44v-3.7a18,18,0,0,0,5.43.83Zm-.59,19.92h1.17l3,7.38L41.64,96.9,38.1,81.56Zm4-7.51-2.59,3.89H40.8l-2.6-3.89.61-1.81,1.55,1.55a1.8,1.8,0,0,0,1.28.53,1.84,1.84,0,0,0,1.28-.53l1.55-1.55Zm-23.35,41.9V77.8H18.1v30.77H3.62v-36a9,9,0,0,1,7.56-8.93l22.6-3.77L36,62l-1.46,4.37a1.8,1.8,0,0,0,.21,1.58l3.09,4.64-3.27,8.17a1.89,1.89,0,0,0-.08,1.08l5.43,23.53a1.81,1.81,0,0,0,3.53,0l5.43-23.53a1.81,1.81,0,0,0-.08-1.08l-3.27-8.17,3.09-4.64a1.84,1.84,0,0,0,.22-1.58L47.33,62l2.17-2.17L68.82,63c0,.09,0,.18,0,.28v5.43H57.93a3.62,3.62,0,0,0-3.62,3.62v36.2Zm38,0H57.93V105h50.69v3.62Zm48.88-7.24H57.93V86.65A12.64,12.64,0,0,0,67,90.47H77.84v1.81a5.44,5.44,0,0,0,10.87,0V90.47H99.57a12.64,12.64,0,0,0,9.05-3.82Zm-27.16-9v-9h3.63v9a1.82,1.82,0,0,1-3.63,0ZM108.62,77.8a9.06,9.06,0,0,1-9.05,9H88.71V81.42a1.82,1.82,0,0,0-1.81-1.81H79.65a1.81,1.81,0,0,0-1.81,1.81v5.43H67a9.06,9.06,0,0,1-9.05-9V72.37h50.69Z"/></g></g></svg>