<svg width="90" height="90" viewBox="0 0 90 90" fill="none" xmlns="http://www.w3.org/2000/svg">
<path d="M21.0001 59.2501C16.0365 59.2501 12.0001 63.2866 12.0001 68.2501C12.0001 73.2137 16.0365 77.2501 21.0001 77.2501C25.9636 77.2501 30.0001 73.2137 30.0001 68.2501C30.0001 63.2866 25.9634 59.2501 21.0001 59.2501ZM21.0001 74.2501C17.691 74.2501 15.0001 71.559 15.0001 68.2501C15.0001 64.941 17.6912 62.2502 21.0001 62.2502C24.309 62.2502 27 64.9412 27 68.2501C27 71.559 24.309 74.2501 21.0001 74.2501Z" fill="#222052"/>
<path d="M72 59.2501C67.0365 59.2501 63 63.2866 63 68.2501C63 73.2137 67.0365 77.2501 72 77.2501C76.9635 77.2501 81 73.2137 81 68.2501C81 63.2866 76.9635 59.2501 72 59.2501ZM72 74.2501C68.6909 74.2501 66.0001 71.559 66.0001 68.2501C66.0001 64.941 68.6911 62.2502 72 62.2502C75.3091 62.2502 77.9999 64.9412 77.9999 68.2501C77.9999 71.559 75.3091 74.2501 72 74.2501Z" fill="#222052"/>
<path d="M89.7615 50.9387L76.2615 29.9387C75.9855 29.5096 75.51 29.2501 74.9999 29.2501H58.5C57.6705 29.2501 57.0001 29.9221 57.0001 30.7501V68.25C57.0001 69.0795 57.6705 69.75 58.5 69.75H64.4999V66.7499H59.9999V32.2502H74.1809L86.9999 52.1912V66.7502H79.4999V69.7501H88.4999C89.3294 69.7501 89.9998 69.0797 89.9998 68.2502V51.7501C90 51.4636 89.9176 51.1801 89.7615 50.9387Z" fill="#222052"/>
<path d="M66.0001 48.75V38.2501H78.0001V35.25H64.5001C63.6706 35.25 63.0002 35.922 63.0002 36.7499V50.2499C63.0002 51.0795 63.6706 51.7499 64.5001 51.7499H87.0001V48.7498H66.0001V48.75Z" fill="#222052"/>
<path d="M58.5 18.7501H1.49994C0.672012 18.7501 0 19.4221 0 20.2501V68.2501C0 69.0796 0.672012 69.7501 1.49994 69.7501H13.5V66.75H3.00006V21.75H57.0001V66.75H28.4999V69.7501H58.5C59.3295 69.7501 59.9999 69.0796 59.9999 68.2501V20.2501C59.9999 19.4221 59.3295 18.7501 58.5 18.7501Z" fill="#222052"/>
<path d="M10.4999 60.75H1.49994V63.7501H10.4999V60.75Z" fill="#222052"/>
<path d="M57 60.75H31.5V63.7501H57V60.75Z" fill="#222052"/>
<path d="M88.4999 60.75H82.4999V63.7501H88.4999V60.75Z" fill="#222052"/>
<path d="M58.5 24.7501H5.99994V27.7502H58.5V24.7501Z" fill="#222052"/>
<path d="M22.5 66.75H19.4999V69.7501H22.5V66.75Z" fill="#222052"/>
<path d="M73.5001 66.75H70.5001V69.7501H73.5001V66.75Z" fill="#222052"/>
<path d="M27 12.75H5.99994V15.7501H27V12.75Z" fill="#222052"/>
<path d="M3.00006 12.75H0V15.7501H3.00006V12.75Z" fill="#222052"/>
</svg>
