<svg width="88" height="88" viewBox="0 0 88 88" fill="none" xmlns="http://www.w3.org/2000/svg">
<g clip-path="url(#clip0)">
<path d="M72.9048 80.3978C72.4182 80.3978 72.0233 80.0029 72.0233 79.5164V75.5797H44.8815V79.5164C44.8815 80.0029 44.4866 80.3978 44 80.3978C43.5134 80.3978 43.1185 80.0029 43.1185 79.5164V75.5797H16.1353V79.5164C16.1353 80.0029 15.7404 80.3978 15.2539 80.3978C14.7673 80.3978 14.3724 80.0029 14.3724 79.5164V58.391C14.3724 57.9044 14.7673 57.5095 15.2539 57.5095C15.7404 57.5095 16.1353 57.9044 16.1353 58.391V73.8168H43.1185V58.391C43.1185 57.9044 43.5134 57.5095 44 57.5095C44.4866 57.5095 44.8815 57.9044 44.8815 58.391V73.8168H72.0233V58.391C72.0233 57.9044 72.4182 57.5095 72.9048 57.5095C73.3914 57.5095 73.7863 57.9044 73.7863 58.391V79.5164C73.7863 80.0029 73.3918 80.3978 72.9048 80.3978ZM68.5173 70.5412H48.1553C46.6206 70.5412 45.3716 69.2922 45.3716 67.7575V67.17C45.3716 66.0519 46.034 65.0858 46.9873 64.6433V50.2744C46.9873 48.0659 47.6211 46.0028 48.7172 44.2575H39.3137C40.4093 46.0028 41.0435 48.0663 41.0435 50.2744V64.6433C41.9969 65.0858 42.6593 66.0519 42.6593 67.17V67.7575C42.6593 69.2922 41.4102 70.5412 39.8756 70.5412H19.5136C17.9789 70.5412 16.7299 69.2922 16.7299 67.7575V67.17C16.7299 66.0519 17.3928 65.0853 18.3461 64.6433V50.2744C18.3461 48.0659 18.9799 46.0028 20.076 44.2575H1.76294V48.1937C1.76294 48.6803 1.36804 49.0752 0.881472 49.0752C0.394899 49.0752 0 48.6803 0 48.1937V27.0688C0 26.5822 0.394899 26.1873 0.881472 26.1873C1.36804 26.1873 1.76294 26.5822 1.76294 27.0688V42.4945H21.4396C23.3066 40.5143 25.8761 39.2036 28.7457 38.9647V27.0688C28.7457 26.5822 29.1406 26.1873 29.6272 26.1873C30.1137 26.1873 30.5086 26.5822 30.5086 27.0688V38.9545C33.4329 39.1626 36.0535 40.4835 37.95 42.4945H50.0808C51.9703 40.4905 54.5803 39.1718 57.4914 38.9567V27.0688C57.4914 26.5822 57.8863 26.1873 58.3728 26.1873C58.8594 26.1873 59.2543 26.5822 59.2543 27.0688V38.9625C62.1363 39.1939 64.7172 40.5073 66.5908 42.4945H86.2366V27.0688C86.2366 26.5822 86.6315 26.1873 87.1181 26.1873C87.6047 26.1873 87.9996 26.5822 87.9996 27.0688V48.1937C87.9996 48.6803 87.6047 49.0752 87.1181 49.0752C86.6315 49.0752 86.2366 48.6803 86.2366 48.1937V44.2575H67.9549C69.0506 46.0028 69.6848 48.0663 69.6848 50.2744V64.6433C70.6381 65.0853 71.3009 66.0519 71.3009 67.17V67.7575C71.3009 69.2922 70.0519 70.5412 68.5173 70.5412ZM48.1553 66.1488C47.5924 66.1488 47.1345 66.6068 47.1345 67.1696V67.7571C47.1345 68.3199 47.5924 68.7778 48.1553 68.7778H68.5173C69.0801 68.7778 69.538 68.3199 69.538 67.7571V67.1696C69.538 66.6068 69.0801 66.1488 68.5173 66.1488H48.1553ZM19.5131 66.1488C18.9503 66.1488 18.4924 66.6068 18.4924 67.1696V67.7571C18.4924 68.3199 18.9503 68.7778 19.5131 68.7778H39.8752C40.438 68.7778 40.8959 68.3199 40.8959 67.7571V67.1696C40.8959 66.6068 40.438 66.1488 39.8752 66.1488H19.5131ZM48.7498 64.2841H67.9218V50.2744C67.9218 44.9887 63.6216 40.6884 58.3358 40.6884C53.0501 40.6884 48.7498 44.9887 48.7498 50.2744V64.2841ZM20.1086 64.2841H39.2806V50.2744C39.2806 44.9887 34.9803 40.6884 29.6946 40.6884C24.4088 40.6884 20.1086 44.9887 20.1086 50.2744V64.2841ZM82.7861 39.2185H62.4241C60.8894 39.2185 59.6404 37.9695 59.6404 36.4349V35.8474C59.6404 34.7292 60.3028 33.7631 61.2561 33.3206V18.9517C61.2561 12.6942 66.3475 7.60278 72.6051 7.60278C78.8627 7.60278 83.954 12.6942 83.954 18.9517V33.3206C84.9073 33.7627 85.5702 34.7292 85.5702 35.8474V36.4349C85.5698 37.9695 84.3207 39.2185 82.7861 39.2185ZM62.4241 34.8262C61.8613 34.8262 61.4033 35.2841 61.4033 35.8469V36.4344C61.4033 36.9972 61.8613 37.4552 62.4241 37.4552H82.7861C83.3489 37.4552 83.8068 36.9972 83.8068 36.4344V35.8469C83.8068 35.2841 83.3489 34.8262 82.7861 34.8262H62.4241ZM63.0186 32.9614H82.1907V18.9517C82.1907 13.666 77.8904 9.36573 72.6047 9.36573C67.3189 9.36573 63.0186 13.666 63.0186 18.9517V32.9614ZM54.1444 39.2185H33.7824C32.2478 39.2185 30.9987 37.9695 30.9987 36.4349V35.8474C30.9987 34.7292 31.6616 33.7627 32.6149 33.3206V18.9517C32.6149 12.6942 37.7063 7.60278 43.9639 7.60278C50.2214 7.60278 55.3124 12.6937 55.3124 18.9517V33.3206C56.2657 33.7631 56.9281 34.7292 56.9281 35.8474V36.4349C56.9281 37.9695 55.6791 39.2185 54.1444 39.2185ZM33.782 34.8262C33.2192 34.8262 32.7612 35.2841 32.7612 35.8469V36.4344C32.7612 36.9972 33.2192 37.4552 33.782 37.4552H54.144C54.7068 37.4552 55.1647 36.9972 55.1647 36.4344V35.8469C55.1647 35.2841 54.7068 34.8262 54.144 34.8262H33.782ZM34.3774 32.9614H53.5494V18.9517C53.5494 13.666 49.2492 9.36573 43.9634 9.36573C38.6777 9.36573 34.3774 13.6655 34.3774 18.9517V32.9614ZM25.5023 39.2185H5.1403C3.60566 39.2185 2.35662 37.9695 2.35662 36.4349V35.8474C2.35662 34.7292 3.01948 33.7627 3.97279 33.3206V18.9517C3.97279 12.6942 9.06418 7.60278 15.3217 7.60278C21.5793 7.60278 26.6707 12.6937 26.6707 18.9517V33.3206C27.624 33.7631 28.2869 34.7292 28.2869 35.8474V36.4349C28.2869 37.9695 27.0378 39.2185 25.5023 39.2185ZM5.1403 34.8262C4.57748 34.8262 4.11956 35.2841 4.11956 35.8469V36.4344C4.11956 36.9972 4.57748 37.4552 5.1403 37.4552H25.5023C26.0651 37.4552 26.5235 36.9972 26.5235 36.4344V35.8469C26.5235 35.2841 26.0651 34.8262 25.5023 34.8262H5.1403ZM5.73574 32.9614H24.9078V18.9517C24.9078 13.666 20.6075 9.36573 15.3217 9.36573C10.036 9.36573 5.73574 13.6655 5.73574 18.9517V32.9614Z" fill="#222052"/>
</g>
<defs>
<clipPath id="clip0">
<rect width="88" height="88" fill="white"/>
</clipPath>
</defs>
</svg>
