<svg width="68" height="68" viewBox="0 0 68 68" fill="none" xmlns="http://www.w3.org/2000/svg">
<path d="M34 0H19.2667C18.6408 0 18.1333 0.507454 18.1333 1.13333V9.06667H1.13333C0.507454 9.06667 0 9.57412 0 10.2V66.8667C0 67.4925 0.507454 68 1.13333 68H34C34.6259 68 35.1333 67.4925 35.1333 66.8667V1.13333C35.1333 0.507454 34.6259 0 34 0ZM32.8667 58.9333H20.4V56.6667H32.8667V58.9333ZM2.26667 17H18.1333V51H2.26667V17ZM32.8667 12.4667H20.4V9.06667H32.8667V12.4667ZM2.26667 53.2667H18.1333V56.6667H2.26667V53.2667ZM20.4 54.4V14.7333H32.8667V54.4H20.4ZM32.8667 2.26667V6.8H20.4V2.26667H32.8667ZM18.1333 11.3333V14.7333H2.26667V11.3333H18.1333ZM2.26667 58.9333H18.1333V65.7333H2.26667V58.9333ZM20.4 65.7333V61.2H32.8667V65.7333H20.4Z" fill="white"/>
<path d="M67.9634 62.0478L54.3634 9.91448C54.2876 9.62229 54.0983 9.37271 53.8371 9.22053C53.5765 9.06891 53.2661 9.0274 52.9744 9.10543L35.9744 13.6388C35.3723 13.7992 35.0126 14.4157 35.1698 15.0189L48.7698 67.1522C48.8456 67.4444 49.0354 67.694 49.2966 67.8456C49.5573 67.9967 49.8677 68.0377 50.1588 67.9591L67.1588 63.4257C67.7598 63.2653 68.1189 62.6499 67.9634 62.0478ZM39.4536 22.4603L54.2638 18.5119L54.7967 20.5517L39.9876 24.5061L39.4536 22.4603ZM55.3689 22.7508L61.942 47.9647L47.1373 51.9148L40.5642 26.6992L55.3689 22.7508ZM62.5192 50.1589L63.6797 54.6064L48.8694 58.5548L47.7134 54.1089L62.5192 50.1589ZM52.4576 11.5885L53.6916 16.3199L38.8814 20.2672L37.6484 15.538L52.4576 11.5885ZM50.6757 65.4783L49.4416 60.7468L64.2519 56.7973L65.4848 61.5265L50.6757 65.4783Z" fill="white"/>
<path d="M14.7333 20.3999H5.66666C5.04078 20.3999 4.53333 20.9074 4.53333 21.5332V30.5999C4.53333 31.2258 5.04078 31.7332 5.66666 31.7332H14.7333C15.3592 31.7332 15.8667 31.2258 15.8667 30.5999V21.5332C15.8667 20.9074 15.3592 20.3999 14.7333 20.3999ZM13.6 29.4666H6.79999V22.6666H13.6V29.4666Z" fill="white"/>
</svg>
