<svg width="70" height="70" viewBox="0 0 70 70" fill="none" xmlns="http://www.w3.org/2000/svg">
<path d="M64.1426 6.8916C61.7312 6.8916 8.27392 6.8916 5.85729 6.8916C4.97929 6.8916 4.26508 7.60595 4.26508 8.48382V47.4415C4.26508 48.3195 4.97943 49.0337 5.85743 49.0337H64.1426C65.0208 49.0337 65.735 48.3193 65.735 47.4415V30.3553C65.735 29.7889 65.276 29.3299 64.7096 29.3299C64.1432 29.3299 63.6842 29.7889 63.6842 30.3553V46.983H6.31571V14.0131H63.6842V25.5701C63.6842 26.1366 64.1432 26.5955 64.7096 26.5955C65.276 26.5955 65.735 26.1366 65.735 25.5701C65.735 25.0557 65.7348 8.75466 65.7348 8.48382C65.735 7.60582 65.0206 6.8916 64.1426 6.8916ZM10.422 11.9623H6.31571V8.94237H10.422V11.9623ZM63.6842 11.9623H12.4728V8.94237H63.6841V11.9623H63.6842Z" fill="white"/>
<path d="M56.981 19.1121H40.8333C40.2669 19.1121 39.8079 19.571 39.8079 20.1375C39.8079 20.7039 40.2669 21.1628 40.8333 21.1628H56.981C57.5475 21.1628 58.0064 20.7039 58.0064 20.1375C58.0064 19.571 57.5475 19.1121 56.981 19.1121Z" fill="white"/>
<path d="M56.981 23.1587H40.8333C40.2669 23.1587 39.8079 23.6177 39.8079 24.1841C39.8079 24.7505 40.2669 25.2095 40.8333 25.2095H56.981C57.5475 25.2095 58.0064 24.7505 58.0064 24.1841C58.0064 23.6177 57.5475 23.1587 56.981 23.1587Z" fill="white"/>
<path d="M56.981 27.2056H40.8333C40.2669 27.2056 39.8079 27.6645 39.8079 28.231C39.8079 28.7974 40.2669 29.2563 40.8333 29.2563H56.981C57.5475 29.2563 58.0064 28.7974 58.0064 28.231C58.0064 27.6645 57.5475 27.2056 56.981 27.2056Z" fill="white"/>
<path d="M56.981 31.2522H40.8333C40.2669 31.2522 39.8079 31.7112 39.8079 32.2776C39.8079 32.844 40.2669 33.303 40.8333 33.303H56.981C57.5475 33.303 58.0064 32.844 58.0064 32.2776C58.0064 31.7112 57.5475 31.2522 56.981 31.2522Z" fill="white"/>
<path d="M56.981 35.2993H40.8333C40.2669 35.2993 39.8079 35.7583 39.8079 36.3247C39.8079 36.8911 40.2669 37.3501 40.8333 37.3501H56.981C57.5475 37.3501 58.0064 36.8911 58.0064 36.3247C58.0064 35.7583 57.5475 35.2993 56.981 35.2993Z" fill="white"/>
<path d="M56.981 39.3462H40.8333C40.2669 39.3462 39.8079 39.8052 39.8079 40.3716C39.8079 40.938 40.2669 41.397 40.8333 41.397H56.981C57.5475 41.397 58.0064 40.938 58.0064 40.3716C58.0064 39.8052 57.5475 39.3462 56.981 39.3462Z" fill="white"/>
<path d="M18.6935 25.3961C15.2175 27.3322 13.1755 31.0013 13.3089 34.925C13.4928 40.3453 17.8788 44.7873 23.2942 45.0372C29.1989 45.3094 34.2773 40.6339 34.2773 34.5613C34.2773 30.8263 32.267 27.2645 28.8571 25.3799V25.38C28.1752 25.0029 27.7515 24.2666 27.7515 23.4584V18.4922C28.1942 18.3787 28.5219 17.9782 28.5219 17.5C28.5219 16.9336 28.0629 16.4746 27.4965 16.4746C25.984 16.4746 21.5873 16.4746 20.0834 16.4746C19.517 16.4746 19.058 16.9336 19.058 17.5C19.058 17.9781 19.3856 18.3787 19.8284 18.4922V23.4591C19.8286 24.2641 19.3938 25.0064 18.6935 25.3961ZM32.2267 34.5613C32.2267 39.362 28.2347 43.2119 23.3888 42.9886C19.0338 42.7875 15.5065 39.2149 15.3587 34.8555C15.3393 34.2873 15.377 33.8078 15.4485 33.3009C16.3734 32.6265 19.5584 30.7388 23.1593 33.5489C26.0561 35.8098 28.7877 35.682 30.5697 35.1763C31.2024 34.9966 31.7605 34.7575 32.2259 34.5162C32.226 34.5314 32.2267 34.5463 32.2267 34.5613ZM21.8793 23.4591V18.5254H25.7009V23.4584C25.7009 25.0128 26.5302 26.4367 27.8653 27.1747V27.1748C29.8825 28.2899 31.3268 30.1603 31.9232 32.3204C31.5095 32.5934 30.8446 32.9665 30.01 33.2033C28.083 33.7499 26.2024 33.3225 24.4211 31.9322C21.8186 29.9011 18.9966 29.5468 16.3879 30.509C17.1371 29.1402 18.2668 27.9813 19.6916 27.1878C21.041 26.4363 21.8793 25.0076 21.8793 23.4591Z" fill="white"/>
<path d="M65.0345 2.62646H37.3925C36.8261 2.62646 36.3671 3.08543 36.3671 3.65185C36.3671 4.21827 36.8261 4.67723 37.3925 4.67723H65.0345C66.6418 4.67723 67.9492 5.98467 67.9492 7.59192V48.3331C67.9492 49.9403 66.6418 51.2479 65.0345 51.2479C63.4698 51.2479 6.59336 51.2479 4.9656 51.2479C3.35834 51.2479 2.05091 49.9403 2.05091 48.3331V7.59206C2.05091 5.9848 3.35834 4.67737 4.9656 4.67737H32.6075C33.1739 4.67737 33.6329 4.21841 33.6329 3.65199C33.6329 3.08556 33.1739 2.6266 32.6075 2.6266H4.96546C2.22755 2.62646 0 4.85401 0 7.59206V48.3332C0 51.0712 2.22755 53.2988 4.96546 53.2988H27.6114V56.2761C27.6114 57.5254 27.0101 58.7024 26.042 59.3482L23.4794 61.0577H21.4419C20.1227 61.0577 19.0495 62.1309 19.0495 63.4501V64.9809C19.0495 66.3001 20.1227 67.3734 21.4419 67.3734H48.5578C49.877 67.3734 50.9503 66.3001 50.9503 64.9809V63.4501C50.9503 62.1309 49.877 61.0577 48.5578 61.0577H46.5203L43.9576 59.3482C42.9896 58.7024 42.3883 57.5253 42.3883 56.2761V53.2988H65.0343C67.7722 53.2988 69.9997 51.0712 69.9997 48.3332V7.59206C70 4.85401 67.7725 2.62646 65.0345 2.62646ZM48.558 63.1084C48.7464 63.1084 48.8996 63.2617 48.8996 63.4501V64.9809C48.8996 65.1693 48.7464 65.3226 48.558 65.3226H21.442C21.2536 65.3226 21.1004 65.1693 21.1004 64.9809V63.4501C21.1004 63.2617 21.2536 63.1084 21.442 63.1084H48.558ZM42.8197 61.0543L42.8248 61.0577H27.175L27.1802 61.0543C28.7343 60.0177 29.6622 58.2314 29.6622 56.2762V53.2989H40.3378V56.2762C40.3378 58.2313 41.2656 60.0175 42.8197 61.0543Z" fill="white"/>
</svg>
