<svg width="63" height="82" viewBox="0 0 63 82" fill="none" xmlns="http://www.w3.org/2000/svg">
<path d="M0 82V0H62.4609V82H0ZM19.2188 72.2305V77.1953H43.2422V72.2305H19.2188ZM35.3889 67.4258C34.5568 65.9913 33.0047 65.0234 31.2305 65.0234C29.4562 65.0234 27.9041 65.9913 27.072 67.4258H35.3889ZM14.4141 77.1953V67.4258H21.9251C22.9949 63.2861 26.7611 60.2188 31.2305 60.2188C35.6998 60.2188 39.4666 63.2861 40.5358 67.4258H48.0469V77.1953H57.6562V43.4023H45.4431C44.2957 50.2109 38.3599 55.4141 31.2305 55.4141C24.101 55.4141 18.1652 50.2109 17.0179 43.4023H4.80469V77.1953H14.4141ZM21.9251 43.4023C22.9949 47.542 26.7611 50.6094 31.2305 50.6094C35.6998 50.6094 39.4666 47.542 40.5358 43.4023H21.9251ZM40.5358 38.5977C39.466 34.458 35.6998 31.3906 31.2305 31.3906C26.7611 31.3906 22.9943 34.458 21.9251 38.5977H40.5358ZM43.2422 9.76953V4.80469H19.2188V9.76953H43.2422ZM27.072 14.5742C27.9041 16.0087 29.4562 16.9766 31.2305 16.9766C33.0047 16.9766 34.5568 16.0087 35.3889 14.5742H27.072ZM48.0469 4.80469V14.5742H40.5358C39.466 18.7139 35.6998 21.7812 31.2305 21.7812C26.7611 21.7812 22.9943 18.7139 21.9251 14.5742H14.4141V4.80469H4.80469V38.5977H17.0179C18.1652 31.7891 24.101 26.5859 31.2305 26.5859C38.3599 26.5859 44.2957 31.7891 45.4431 38.5977H57.6562V4.80469H48.0469Z" fill="#222052"/>
</svg>
