<svg width="68" height="68" viewBox="0 0 68 68" fill="none" xmlns="http://www.w3.org/2000/svg">
<path d="M67.5137 14.2113L67.525 14.2L64.15 9.7C64.0444 9.56117 63.9083 9.44842 63.7523 9.37041C63.5963 9.29239 63.4244 9.2512 63.25 9.25V6.2125L65.3088 3.11875L63.4412 1.88125L61.1912 5.25625C61.0662 5.4383 60.9995 5.65412 61 5.875V9.25H57.625V2.5H59.875V0.25H53.125V2.5H55.375V9.25H53.125C52.8267 9.25222 52.5408 9.36903 52.3263 9.57625L49.75 12.1637V1.375C49.75 1.07663 49.6315 0.790483 49.4205 0.579505C49.2095 0.368526 48.9234 0.25 48.625 0.25H19.375C19.0766 0.25 18.7905 0.368526 18.5795 0.579505C18.3685 0.790483 18.25 1.07663 18.25 1.375V12.1637L15.6737 9.57625C15.4592 9.36903 15.1733 9.25222 14.875 9.25H12.625V2.5H14.875V0.25H8.125V2.5H10.375V9.25H7V5.875C7.00054 5.65412 6.93384 5.4383 6.80875 5.25625L4.55875 1.88125L2.69125 3.11875L4.75 6.2125V9.25C4.57556 9.2512 4.40373 9.29239 4.2477 9.37041C4.09168 9.44842 3.95562 9.56117 3.85 9.7L0.475 14.2L0.48625 14.2113C0.338885 14.4017 0.256123 14.6342 0.25 14.875V66.625C0.25 66.9234 0.368526 67.2095 0.579505 67.4205C0.790483 67.6315 1.07663 67.75 1.375 67.75H66.625C66.9234 67.75 67.2095 67.6315 67.4205 67.4205C67.6315 67.2095 67.75 66.9234 67.75 66.625V14.875C67.7439 14.6342 67.6611 14.4017 67.5137 14.2113ZM5.3125 11.5H14.4137L16.6637 13.75H3.625L5.3125 11.5ZM18.25 65.5H2.5V16H18.25V65.5ZM39.625 65.5H28.375V53.125C28.375 51.6332 28.9676 50.2024 30.0225 49.1475C31.0774 48.0926 32.5082 47.5 34 47.5C35.4918 47.5 36.9226 48.0926 37.9775 49.1475C39.0324 50.2024 39.625 51.6332 39.625 53.125V65.5ZM47.5 65.5H41.875V53.125C41.875 51.0364 41.0453 49.0334 39.5685 47.5565C38.0916 46.0797 36.0886 45.25 34 45.25C31.9114 45.25 29.9084 46.0797 28.4315 47.5565C26.9547 49.0334 26.125 51.0364 26.125 53.125V65.5H20.5V2.5H47.5V65.5ZM53.5863 11.5H62.6875L64.375 13.75H51.3363L53.5863 11.5ZM65.5 65.5H49.75V16H65.5V65.5Z" fill="white"/>
<path d="M25 20.5H29.5V25C29.5 25.2984 29.6185 25.5845 29.8295 25.7955C30.0405 26.0065 30.3266 26.125 30.625 26.125H37.375C37.6734 26.125 37.9595 26.0065 38.1705 25.7955C38.3815 25.5845 38.5 25.2984 38.5 25V20.5H43C43.2984 20.5 43.5845 20.3815 43.7955 20.1705C44.0065 19.9595 44.125 19.6734 44.125 19.375V12.625C44.125 12.3266 44.0065 12.0405 43.7955 11.8295C43.5845 11.6185 43.2984 11.5 43 11.5H38.5V7C38.5 6.70163 38.3815 6.41548 38.1705 6.20451C37.9595 5.99353 37.6734 5.875 37.375 5.875H30.625C30.3266 5.875 30.0405 5.99353 29.8295 6.20451C29.6185 6.41548 29.5 6.70163 29.5 7V11.5H25C24.7016 11.5 24.4155 11.6185 24.2045 11.8295C23.9935 12.0405 23.875 12.3266 23.875 12.625V19.375C23.875 19.6734 23.9935 19.9595 24.2045 20.1705C24.4155 20.3815 24.7016 20.5 25 20.5ZM26.125 13.75H30.625C30.9234 13.75 31.2095 13.6315 31.4205 13.4205C31.6315 13.2095 31.75 12.9234 31.75 12.625V8.125H36.25V12.625C36.25 12.9234 36.3685 13.2095 36.5795 13.4205C36.7905 13.6315 37.0766 13.75 37.375 13.75H41.875V18.25H37.375C37.0766 18.25 36.7905 18.3685 36.5795 18.5795C36.3685 18.7905 36.25 19.0766 36.25 19.375V23.875H31.75V19.375C31.75 19.0766 31.6315 18.7905 31.4205 18.5795C31.2095 18.3685 30.9234 18.25 30.625 18.25H26.125V13.75Z" fill="white"/>
<path d="M52 29.5H54.25V31.75H52V29.5Z" fill="white"/>
<path d="M56.5 29.5H58.75V31.75H56.5V29.5Z" fill="white"/>
<path d="M61 29.5H63.25V31.75H61V29.5Z" fill="white"/>
<path d="M52 34H54.25V36.25H52V34Z" fill="white"/>
<path d="M56.5 34H58.75V36.25H56.5V34Z" fill="white"/>
<path d="M61 34H63.25V36.25H61V34Z" fill="white"/>
<path d="M52 38.5H54.25V40.75H52V38.5Z" fill="white"/>
<path d="M56.5 38.5H58.75V40.75H56.5V38.5Z" fill="white"/>
<path d="M61 38.5H63.25V40.75H61V38.5Z" fill="white"/>
<path d="M52 43H54.25V45.25H52V43Z" fill="white"/>
<path d="M56.5 43H58.75V45.25H56.5V43Z" fill="white"/>
<path d="M61 43H63.25V45.25H61V43Z" fill="white"/>
<path d="M52 47.5H54.25V49.75H52V47.5Z" fill="white"/>
<path d="M56.5 47.5H58.75V49.75H56.5V47.5Z" fill="white"/>
<path d="M61 47.5H63.25V49.75H61V47.5Z" fill="white"/>
<path d="M52 52H54.25V54.25H52V52Z" fill="white"/>
<path d="M56.5 52H58.75V54.25H56.5V52Z" fill="white"/>
<path d="M61 52H63.25V54.25H61V52Z" fill="white"/>
<path d="M52 56.5H54.25V58.75H52V56.5Z" fill="white"/>
<path d="M56.5 56.5H58.75V58.75H56.5V56.5Z" fill="white"/>
<path d="M61 56.5H63.25V58.75H61V56.5Z" fill="white"/>
<path d="M52 61H54.25V63.25H52V61Z" fill="white"/>
<path d="M56.5 61H58.75V63.25H56.5V61Z" fill="white"/>
<path d="M61 61H63.25V63.25H61V61Z" fill="white"/>
<path d="M52 27.25H63.25C63.5484 27.25 63.8345 27.1315 64.0455 26.9205C64.2565 26.7095 64.375 26.4234 64.375 26.125V19.375C64.375 19.0766 64.2565 18.7905 64.0455 18.5795C63.8345 18.3685 63.5484 18.25 63.25 18.25H52C51.7016 18.25 51.4155 18.3685 51.2045 18.5795C50.9935 18.7905 50.875 19.0766 50.875 19.375V26.125C50.875 26.4234 50.9935 26.7095 51.2045 26.9205C51.4155 27.1315 51.7016 27.25 52 27.25ZM53.125 20.5H62.125V25H53.125V20.5Z" fill="white"/>
<path d="M13.75 29.5H16V31.75H13.75V29.5Z" fill="white"/>
<path d="M9.25 29.5H11.5V31.75H9.25V29.5Z" fill="white"/>
<path d="M4.75 29.5H7V31.75H4.75V29.5Z" fill="white"/>
<path d="M13.75 34H16V36.25H13.75V34Z" fill="white"/>
<path d="M9.25 34H11.5V36.25H9.25V34Z" fill="white"/>
<path d="M4.75 34H7V36.25H4.75V34Z" fill="white"/>
<path d="M13.75 38.5H16V40.75H13.75V38.5Z" fill="white"/>
<path d="M9.25 38.5H11.5V40.75H9.25V38.5Z" fill="white"/>
<path d="M4.75 38.5H7V40.75H4.75V38.5Z" fill="white"/>
<path d="M13.75 43H16V45.25H13.75V43Z" fill="white"/>
<path d="M9.25 43H11.5V45.25H9.25V43Z" fill="white"/>
<path d="M4.75 43H7V45.25H4.75V43Z" fill="white"/>
<path d="M13.75 47.5H16V49.75H13.75V47.5Z" fill="white"/>
<path d="M9.25 47.5H11.5V49.75H9.25V47.5Z" fill="white"/>
<path d="M4.75 47.5H7V49.75H4.75V47.5Z" fill="white"/>
<path d="M13.75 52H16V54.25H13.75V52Z" fill="white"/>
<path d="M9.25 52H11.5V54.25H9.25V52Z" fill="white"/>
<path d="M4.75 52H7V54.25H4.75V52Z" fill="white"/>
<path d="M13.75 56.5H16V58.75H13.75V56.5Z" fill="white"/>
<path d="M9.25 56.5H11.5V58.75H9.25V56.5Z" fill="white"/>
<path d="M4.75 56.5H7V58.75H4.75V56.5Z" fill="white"/>
<path d="M13.75 61H16V63.25H13.75V61Z" fill="white"/>
<path d="M9.25 61H11.5V63.25H9.25V61Z" fill="white"/>
<path d="M4.75 61H7V63.25H4.75V61Z" fill="white"/>
<path d="M16 18.25H4.75C4.45163 18.25 4.16548 18.3685 3.95451 18.5795C3.74353 18.7905 3.625 19.0766 3.625 19.375V26.125C3.625 26.4234 3.74353 26.7095 3.95451 26.9205C4.16548 27.1315 4.45163 27.25 4.75 27.25H16C16.2984 27.25 16.5845 27.1315 16.7955 26.9205C17.0065 26.7095 17.125 26.4234 17.125 26.125V19.375C17.125 19.0766 17.0065 18.7905 16.7955 18.5795C16.5845 18.3685 16.2984 18.25 16 18.25ZM14.875 25H5.875V20.5H14.875V25Z" fill="white"/>
<path d="M23.875 40.75H44.125C44.4234 40.75 44.7095 40.6315 44.9205 40.4205C45.1315 40.2095 45.25 39.9234 45.25 39.625V30.625C45.25 30.3266 45.1315 30.0405 44.9205 29.8295C44.7095 29.6185 44.4234 29.5 44.125 29.5H23.875C23.5766 29.5 23.2905 29.6185 23.0795 29.8295C22.8685 30.0405 22.75 30.3266 22.75 30.625V39.625C22.75 39.9234 22.8685 40.2095 23.0795 40.4205C23.2905 40.6315 23.5766 40.75 23.875 40.75ZM25 31.75H43V38.5H25V31.75Z" fill="white"/>
</svg>
