<svg width="79" height="79" viewBox="0 0 79 79" fill="none" xmlns="http://www.w3.org/2000/svg">
<g clip-path="url(#clip0)">
<path d="M54.257 53.5187H49.739C47.8369 53.5187 46.2891 55.0659 46.2891 56.9687V61.4867C46.2891 63.3889 47.8369 64.9367 49.739 64.9367H54.257C56.1592 64.9367 57.707 63.3889 57.707 61.4867V56.9687C57.707 55.0665 56.1592 53.5187 54.257 53.5187ZM55.3926 61.4867C55.3926 62.113 54.8833 62.6223 54.257 62.6223H49.739C49.1128 62.6223 48.6035 62.113 48.6035 61.4867V56.9687C48.6035 56.3425 49.1128 55.8332 49.739 55.8332H54.257C54.8833 55.8332 55.3926 56.3425 55.3926 56.9687V61.4867Z" fill="#222052"/>
<path d="M69.3781 53.5187H64.8601C62.9579 53.5187 61.4102 55.0659 61.4102 56.9687V61.4867C61.4102 63.3889 62.9579 64.9367 64.8601 64.9367H69.3781C71.2803 64.9367 72.8281 63.3889 72.8281 61.4867V56.9687C72.8281 55.0665 71.2803 53.5187 69.3781 53.5187ZM70.5137 61.4867C70.5137 62.113 70.0044 62.6223 69.3781 62.6223H64.8601C64.2339 62.6223 63.7246 62.113 63.7246 61.4867V56.9687C63.7246 56.3425 64.2339 55.8332 64.8601 55.8332H69.3781C70.0044 55.8332 70.5137 56.3425 70.5137 56.9687V61.4867Z" fill="#222052"/>
<path d="M8.5623 32.9448H13.5281C14.9301 32.9448 16.0704 31.8045 16.0704 30.4019V22.8287C16.0704 21.4268 14.9301 20.2864 13.5281 20.2864H8.5623C7.16037 20.2864 6.02002 21.4268 6.02002 22.8287V30.4019C6.02002 31.8039 7.16037 32.9448 8.5623 32.9448ZM8.33447 22.8287C8.33447 22.7034 8.43694 22.6009 8.5623 22.6009H13.5281C13.6535 22.6009 13.756 22.7034 13.756 22.8287V30.4019C13.756 30.5279 13.6541 30.6304 13.5281 30.6304H8.5623C8.43694 30.6304 8.33447 30.5279 8.33447 30.4019V22.8287Z" fill="#222052"/>
<path d="M28.4153 25.4457H33.3805C34.7825 25.4457 35.9234 24.3048 35.9234 22.9028V15.3296C35.9234 13.9277 34.7831 12.7867 33.3805 12.7867H28.4153C27.0134 12.7867 25.8724 13.9277 25.8724 15.3296V22.9028C25.8724 24.3048 27.0134 25.4457 28.4153 25.4457ZM28.1869 15.3296C28.1869 15.2037 28.2894 15.1012 28.4153 15.1012H33.3805C33.5065 15.1012 33.609 15.2037 33.609 15.3296V22.9028C33.609 23.0288 33.5065 23.1313 33.3805 23.1313H28.4153C28.2894 23.1313 28.1869 23.0288 28.1869 22.9028V15.3296Z" fill="#222052"/>
<path d="M28.4153 41.8012H33.3805C34.7825 41.8012 35.9234 40.6602 35.9234 39.2583V31.6851C35.9234 30.2832 34.7831 29.1422 33.3805 29.1422H28.4153C27.0134 29.1422 25.8724 30.2832 25.8724 31.6851V39.2583C25.8724 40.6602 27.0134 41.8012 28.4153 41.8012ZM28.1869 31.6851C28.1869 31.5591 28.2894 31.4567 28.4153 31.4567H33.3805C33.5065 31.4567 33.609 31.5591 33.609 31.6851V39.2583C33.609 39.3843 33.5065 39.4867 33.3805 39.4867H28.4153C28.2894 39.4867 28.1869 39.3843 28.1869 39.2583V31.6851Z" fill="#222052"/>
<path d="M45.6194 25.4457H50.5846C51.9866 25.4457 53.1275 24.3048 53.1275 22.9028V15.3296C53.1275 13.9277 51.9872 12.7867 50.5846 12.7867H45.6194C44.2175 12.7867 43.0765 13.9277 43.0765 15.3296V22.9028C43.0765 24.3048 44.2175 25.4457 45.6194 25.4457ZM45.391 15.3296C45.391 15.2037 45.4935 15.1012 45.6194 15.1012H50.5846C50.7106 15.1012 50.8131 15.2037 50.8131 15.3296V22.9028C50.8131 23.0288 50.7106 23.1313 50.5846 23.1313H45.6194C45.4935 23.1313 45.391 23.0288 45.391 22.9028V15.3296Z" fill="#222052"/>
<path d="M45.6194 41.8012H50.5846C51.9866 41.8012 53.1275 40.6602 53.1275 39.2583V31.6851C53.1275 30.2832 51.9872 29.1422 50.5846 29.1422H45.6194C44.2175 29.1422 43.0765 30.2832 43.0765 31.6851V39.2583C43.0765 40.6602 44.2175 41.8012 45.6194 41.8012ZM45.391 31.6851C45.391 31.5591 45.4935 31.4567 45.6194 31.4567H50.5846C50.7106 31.4567 50.8131 31.5591 50.8131 31.6851V39.2583C50.8131 39.3843 50.7106 39.4867 50.5846 39.4867H45.6194C45.4935 39.4867 45.391 39.3843 45.391 39.2583V31.6851Z" fill="#222052"/>
<path d="M13.5281 49.8819C14.9301 49.8819 16.0704 48.7415 16.0704 47.339V39.7658C16.0704 38.3639 14.9301 37.2235 13.5281 37.2235H8.5623C7.16037 37.2235 6.02002 38.3639 6.02002 39.7658V47.339C6.02002 48.7409 7.16037 49.8819 8.5623 49.8819H13.5281ZM8.33447 47.3396V39.7664C8.33447 39.6404 8.43694 39.538 8.5623 39.538H13.5281C13.6535 39.538 13.756 39.6404 13.756 39.7664V47.3396C13.756 47.465 13.6541 47.5674 13.5281 47.5674H8.5623C8.43694 47.5674 8.33447 47.465 8.33447 47.3396Z" fill="#222052"/>
<path d="M70.4377 20.2864H65.4719C64.07 20.2864 62.9296 21.4268 62.9296 22.8293V30.4025C62.9296 31.8045 64.07 32.9448 65.4719 32.9448H70.4377C71.8397 32.9448 72.98 31.8045 72.98 30.4025V22.8293C72.98 21.4268 71.8397 20.2864 70.4377 20.2864ZM70.6656 30.4019C70.6656 30.5279 70.5637 30.6304 70.4377 30.6304H65.4719C65.3465 30.6304 65.2441 30.5279 65.2441 30.4019V22.8287C65.2441 22.7034 65.3465 22.6009 65.4719 22.6009H70.4377C70.5631 22.6009 70.6656 22.7034 70.6656 22.8287V30.4019Z" fill="#222052"/>
<path d="M74.2258 14.0169H59.2247V8.85459C60.3723 8.39351 61.1865 7.27124 61.1865 5.96032V3.11909C61.1865 1.39952 59.787 0 58.0675 0H31.491C30.8515 0 30.3338 0.518341 30.3338 1.15723C30.3338 1.79611 30.8515 2.31445 31.491 2.31445H58.0675C58.5111 2.31445 58.8721 2.67548 58.8721 3.11909V5.96092C58.8721 6.40453 58.5111 6.76556 58.0675 6.76556H20.9331C20.4895 6.76556 20.1285 6.40453 20.1285 5.96092V3.11909C20.1285 2.67548 20.4889 2.31445 20.9331 2.31445H26.8621C27.501 2.31445 28.0193 1.79611 28.0193 1.15723C28.0193 0.518341 27.501 0 26.8621 0H20.9331C19.213 0 17.8141 1.39892 17.8141 3.11909V5.96092C17.8141 7.27124 18.6277 8.39411 19.7759 8.85459V14.0175H4.77416C2.14207 14.0169 0 16.159 0 18.7917V77.7265C0 78.3653 0.518341 78.8837 1.15723 78.8837H77.8428C78.4817 78.8837 79 78.3653 79 77.7265V18.7917C79 16.159 76.8579 14.0169 74.2258 14.0169ZM22.0904 9.07941H56.9102V45.7605H33.9146C31.1933 45.7605 28.5238 46.2427 25.9797 47.1931C24.6284 47.6982 23.3217 48.3317 22.0904 49.0827V9.07941ZM20.0743 53.4982C21.6004 52.0879 23.3507 50.9089 25.2275 50.0235V55.3365C25.2275 59.2169 22.0705 62.3739 18.1902 62.3739H11.6096C12.1027 61.597 12.6825 60.8707 13.3328 60.2198C13.3358 60.2168 13.3382 60.2138 13.3413 60.2113C13.3413 60.2113 19.882 53.676 20.0743 53.4982ZM2.31445 18.7917C2.31445 17.4349 3.41804 16.3314 4.77416 16.3314H19.7759V50.704C19.1135 51.2326 18.4783 51.7998 17.8719 52.4061C17.8719 52.4061 11.7055 58.5737 11.7049 58.5737C8.99261 61.2872 7.40203 65.0223 7.33151 68.858H2.31445V18.7917ZM76.6855 68.8586H62.9676C62.3281 68.8586 61.8104 69.3763 61.8104 70.0164C61.8104 70.6553 62.3281 71.1737 62.9676 71.1737H76.6855V76.5692H2.31445V71.1731L58.3387 71.1737C58.9776 71.1737 59.4959 70.6553 59.4959 70.0158C59.4959 69.3763 58.9776 68.8586 58.3387 68.8586H43.2031V57.8077C43.2031 55.4426 41.2792 53.5187 38.9142 53.5187H34.8398C32.4747 53.5187 30.5508 55.4426 30.5508 57.8077V68.8586H9.65079C9.6526 68.7754 9.6538 68.6923 9.65742 68.6091C9.71227 67.2698 9.98108 65.942 10.4554 64.6884H18.1902C23.3464 64.6884 27.542 60.4934 27.542 55.3365V49.0978C27.554 49.0941 27.5667 49.0893 27.5788 49.0857C29.5406 48.4426 31.6001 48.1021 33.6644 48.0767C33.7476 48.0755 76.6855 48.0749 76.6855 48.0749V68.8586ZM32.8652 68.8586V57.8077C32.8652 56.7186 33.7512 55.8332 34.8398 55.8332H38.9142C40.0033 55.8332 40.8887 56.7186 40.8887 57.8077V68.8586H32.8652ZM65.2441 45.7605V39.7658C65.2441 39.6404 65.3465 39.538 65.4725 39.538H70.4377C70.5637 39.538 70.6662 39.6398 70.6662 39.7658V45.7605H65.2441ZM76.6855 45.7605H72.98V39.7658C72.98 38.3639 71.8397 37.2235 70.4377 37.2235H65.4719C64.07 37.2235 62.9296 38.3639 62.9296 39.7658V45.7605H59.2241V16.3314H74.2258C75.582 16.3314 76.6855 17.4349 76.6855 18.7917V45.7605Z" fill="#222052"/>
</g>
<defs>
<clipPath id="clip0">
<rect width="79" height="79" fill="white"/>
</clipPath>
</defs>
</svg>
