<svg width="82" height="82" viewBox="0 0 82 82" fill="none" xmlns="http://www.w3.org/2000/svg">
<path d="M73.0277 65.3438C73.8629 64.2365 74.3139 62.8869 74.3125 61.5C74.3125 61.1602 74.1775 60.8343 73.9372 60.594C73.697 60.3537 73.3711 60.2188 73.0312 60.2188H68.028L68.6103 53.8125H73.9922C75.0962 53.8113 76.1546 53.3722 76.9353 52.5915C77.7159 51.8109 78.155 50.7524 78.1562 49.6484V40.0391C78.155 38.9351 77.7159 37.8766 76.9353 37.096C76.1546 36.3153 75.0962 35.8762 73.9922 35.875H70.241L70.4635 33.4286C70.4796 33.2513 70.4586 33.0726 70.4018 32.9038C70.345 32.7351 70.2537 32.58 70.1336 32.4486C70.0136 32.3171 69.8674 32.2121 69.7045 32.1402C69.5416 32.0684 69.3655 32.0313 69.1875 32.0313H56.375V31.3906C56.375 30.2013 55.9025 29.0607 55.0616 28.2197C54.2206 27.3787 53.08 26.9063 51.8906 26.9063C50.7013 26.9063 49.5607 27.3787 48.7197 28.2197C47.8787 29.0607 47.4062 30.2013 47.4062 31.3906V32.0313H46.125C45.7852 32.0313 45.4593 32.1662 45.219 32.4065C44.9787 32.6468 44.8438 32.9727 44.8438 33.3125V41C44.8438 41.3398 44.9787 41.6657 45.219 41.906C45.4593 42.1463 45.7852 42.2813 46.125 42.2813H49.4976L49.7304 44.8438H26.9062C26.817 44.8439 26.728 44.8532 26.6407 44.8716L26.7781 43.5625H26.9062C27.2461 43.5625 27.572 43.4275 27.8122 43.1872C28.0525 42.947 28.1875 42.6211 28.1875 42.2813V37.1563C28.1875 36.8165 28.0525 36.4906 27.8122 36.2503C27.572 36.01 27.2461 35.875 26.9062 35.875C26.9028 33.3797 25.9904 30.971 24.3397 29.0997C22.6889 27.2284 20.4129 26.0226 17.9375 25.708V22.3971L23.8633 17.6564L22.2617 15.6558L15.8555 20.7808C15.7055 20.9008 15.5844 21.0531 15.5013 21.2263C15.4181 21.3995 15.375 21.5891 15.375 21.7813V25.708C12.8996 26.0226 10.6236 27.2284 8.97283 29.0997C7.32208 30.971 6.40965 33.3797 6.40625 35.875C6.06644 35.875 5.74055 36.01 5.50027 36.2503C5.25999 36.4906 5.125 36.8165 5.125 37.1563V42.2813C5.125 42.6211 5.25999 42.947 5.50027 43.1872C5.74055 43.4275 6.06644 43.5625 6.40625 43.5625H6.53437L8.82685 65.3438H2.5625V67.9063H79.4375V65.3438H73.0277ZM69.5421 43.5625H70.4688V46.125H69.3092L69.5421 43.5625ZM69.0762 48.6875H71.75C72.0898 48.6875 72.4157 48.5525 72.656 48.3122C72.8963 48.072 73.0312 47.7461 73.0312 47.4063V42.2813C73.0312 41.9415 72.8963 41.6156 72.656 41.3753C72.4157 41.135 72.0898 41 71.75 41H69.7751L70.0081 38.4375H73.9922C74.4168 38.438 74.8239 38.6069 75.1241 38.9071C75.4244 39.2074 75.5933 39.6145 75.5938 40.0391V49.6484C75.5933 50.0731 75.4244 50.4802 75.1241 50.7804C74.8239 51.0807 74.4168 51.2495 73.9922 51.25H68.8433L69.0762 48.6875ZM67.7845 34.5938L65.4559 60.2188H56.375C56.375 59.879 56.24 59.5531 55.9997 59.3128C55.7594 59.0725 55.4336 58.9375 55.0938 58.9375H53.5848L53.4683 57.6563H57.3359C58.4399 57.655 59.4984 57.2159 60.279 56.4353C61.0597 55.6546 61.4988 54.5962 61.5 53.4922V49.0078C61.4988 47.9038 61.0597 46.8454 60.279 46.0647C59.4984 45.2841 58.4399 44.845 57.3359 44.8438H52.3035L52.0453 42.0034C52.1969 41.8837 52.3193 41.7313 52.4035 41.5575C52.4876 41.3837 52.5313 41.1931 52.5312 41V34.5938H67.7845ZM53.7529 49.9688C53.7912 49.5455 53.8125 49.1183 53.8125 48.6875V47.4063H57.3359C57.7606 47.4067 58.1676 47.5756 58.4679 47.8759C58.7681 48.1761 58.937 48.5832 58.9375 49.0078V53.4922C58.937 53.9168 58.7681 54.3239 58.4679 54.6242C58.1676 54.9244 57.7606 55.0933 57.3359 55.0938H52.2793C52.6971 54.2745 53.0333 53.4163 53.2832 52.5313H56.375V49.9688H53.7529ZM49.9688 31.3906C49.9688 30.8809 50.1712 30.3921 50.5317 30.0317C50.8921 29.6712 51.3809 29.4688 51.8906 29.4688C52.4003 29.4688 52.8892 29.6712 53.2496 30.0317C53.61 30.3921 53.8125 30.8809 53.8125 31.3906V32.0313H49.9688V31.3906ZM47.4062 39.7188V34.5938H49.9688V39.7188H47.4062ZM28.1875 47.4063H51.25V48.6875C51.2537 50.8016 50.6747 52.8758 49.5766 54.6823C48.4786 56.4888 46.9039 57.9578 45.0255 58.9279L45.0305 58.9375H34.4336C32.5461 57.9741 30.963 56.5059 29.8602 54.6963C28.7575 52.8867 28.1784 50.8066 28.1875 48.6875V47.4063ZM51.0118 58.9375H49.3991C49.8249 58.5358 50.2253 58.1079 50.5978 57.6563H50.8953L51.0118 58.9375ZM27.8352 56.2664C28.4597 57.244 29.2019 58.1411 30.0453 58.9375H25.1605L25.9315 51.6134C26.2805 53.2664 26.9254 54.8428 27.8352 56.2664ZM17.9375 28.2963C19.7276 28.6011 21.3524 29.5289 22.5247 30.9157C23.6969 32.3025 24.3413 34.0591 24.3438 35.875H17.9375V28.2963ZM15.375 28.2963V35.875H8.96875C8.97124 34.0591 9.61555 32.3025 10.7878 30.9157C11.9601 29.5289 13.5849 28.6011 15.375 28.2963ZM7.6875 38.4375H25.625V41H7.6875V38.4375ZM11.4031 65.3438L9.11081 43.5625H24.2017L21.9094 65.3438H11.4031ZM29.4688 65.3438C28.4497 65.3426 27.4727 64.9372 26.7521 64.2166C26.0315 63.4961 25.6262 62.5191 25.625 61.5H53.8125C53.8113 62.5191 53.406 63.4961 52.6854 64.2166C51.9648 64.9372 50.9878 65.3426 49.9688 65.3438H29.4688ZM55.0902 65.3438C55.6612 64.5862 56.0561 63.7107 56.2461 62.7813H71.5304C71.2646 63.5302 70.7736 64.1785 70.1247 64.6373C69.4759 65.096 68.7009 65.3428 67.9062 65.3438H55.0902Z" fill="#222052"/>
<path d="M16.6563 46.125C15.6426 46.125 14.6518 46.4256 13.809 46.9887C12.9662 47.5519 12.3093 48.3523 11.9214 49.2887C11.5335 50.2252 11.432 51.2557 11.6297 52.2498C11.8275 53.244 12.3156 54.1572 13.0323 54.8739C13.7491 55.5907 14.6623 56.0788 15.6564 56.2765C16.6506 56.4743 17.681 56.3728 18.6175 55.9849C19.554 55.597 20.3544 54.9401 20.9175 54.0973C21.4807 53.2545 21.7813 52.2636 21.7813 51.25C21.7797 49.8912 21.2393 48.5886 20.2785 47.6278C19.3177 46.667 18.015 46.1265 16.6563 46.125ZM16.6563 53.8125C16.1494 53.8125 15.654 53.6622 15.2326 53.3807C14.8112 53.0991 14.4828 52.6989 14.2888 52.2306C14.0949 51.7624 14.0441 51.2472 14.143 50.7501C14.2419 50.253 14.4859 49.7964 14.8443 49.438C15.2027 49.0797 15.6593 48.8356 16.1563 48.7367C16.6534 48.6379 17.1686 48.6886 17.6369 48.8826C18.1051 49.0765 18.5053 49.405 18.7869 49.8264C19.0685 50.2478 19.2188 50.7432 19.2188 51.25C19.2179 51.9294 18.9477 52.5807 18.4673 53.0611C17.9869 53.5415 17.3356 53.8117 16.6563 53.8125Z" fill="#222052"/>
<path d="M39.0781 41.0001C39.0781 41.3399 39.2131 41.6658 39.4534 41.9061C39.6937 42.1464 40.0196 42.2814 40.3594 42.2814C40.6992 42.2814 41.0251 42.1464 41.2654 41.9061C41.5056 41.6658 41.6406 41.3399 41.6406 41.0001C41.6406 40.4271 41.7828 40.2137 42.066 39.7888C42.4273 39.247 42.9219 38.505 42.9219 37.1564C42.9219 35.8077 42.4272 35.0652 42.066 34.5236C41.9597 34.3734 41.8645 34.2157 41.7812 34.0517C41.71 33.8993 41.6095 33.7623 41.4853 33.6487C41.3612 33.535 41.2159 33.447 41.0577 33.3895C40.8995 33.3321 40.7316 33.3063 40.5634 33.3138C40.3953 33.3212 40.2303 33.3617 40.0778 33.4329C39.9253 33.5041 39.7884 33.6047 39.6748 33.7288C39.5611 33.8529 39.4731 33.9983 39.4156 34.1564C39.3581 34.3146 39.3324 34.4826 39.3398 34.6507C39.3473 34.8188 39.3878 34.9838 39.459 35.1363C39.5955 35.418 39.7541 35.6885 39.9334 35.9451C40.2172 36.3698 40.3594 36.583 40.3594 37.1564C40.3594 37.7297 40.2172 37.9426 39.934 38.3676C39.5728 38.9091 39.0781 39.6511 39.0781 41.0001Z" fill="#222052"/>
<path d="M40.8373 31.9108C40.9897 31.9821 41.1547 32.0227 41.3228 32.0303C41.4909 32.0378 41.6589 32.0121 41.8171 31.9546C41.9752 31.8972 42.1205 31.8091 42.2447 31.6955C42.3688 31.5818 42.4693 31.4448 42.5404 31.2923C42.8019 30.7205 42.9322 30.0974 42.9219 29.4687C42.9219 29.1289 42.7869 28.803 42.5466 28.5628C42.3063 28.3225 41.9804 28.1875 41.6406 28.1875C41.3008 28.1875 40.9749 28.3225 40.7346 28.5628C40.4944 28.803 40.3594 29.1289 40.3594 29.4687C40.3704 29.7226 40.3223 29.9756 40.2187 30.2077C40.0749 30.5156 40.0593 30.868 40.1753 31.1874C40.2913 31.5067 40.5294 31.767 40.8373 31.9108Z" fill="#222052"/>
<path d="M33.9531 42.2814C34.2929 42.2814 34.6188 42.1464 34.8591 41.9061C35.0994 41.6658 35.2344 41.3399 35.2344 41.0001C35.2344 40.4269 35.3766 40.2138 35.6597 39.7889C35.7551 39.6489 35.8217 39.4915 35.8558 39.3256C35.8899 39.1598 35.8908 38.9888 35.8584 38.8226C35.826 38.6564 35.761 38.4983 35.6671 38.3573C35.5732 38.2164 35.4524 38.0955 35.3115 38.0016C35.1706 37.9076 35.0125 37.8426 34.8463 37.8101C34.6801 37.7777 34.5092 37.7785 34.3433 37.8125C34.1774 37.8465 34.02 37.9131 33.88 38.0084C33.74 38.1036 33.6203 38.2257 33.5277 38.3675C33.1666 38.9091 32.6719 39.6511 32.6719 41.0001C32.6719 41.3399 32.8069 41.6658 33.0471 41.9061C33.2874 42.1464 33.6133 42.2814 33.9531 42.2814Z" fill="#222052"/>
<path d="M33.8125 36.417C33.9562 36.7249 34.2164 36.9632 34.5358 37.0793C34.8552 37.1954 35.2077 37.1799 35.5156 37.0361C35.8236 36.8924 36.0618 36.6322 36.1779 36.3128C36.294 35.9934 36.2785 35.641 36.1348 35.333C35.9982 35.0511 35.8395 34.7804 35.6601 34.5236C35.3766 34.0985 35.2344 33.8852 35.2344 33.3125C35.2344 32.7398 35.3766 32.5264 35.6598 32.1016C36.0209 31.5596 36.5156 30.8176 36.5156 29.4687C36.5156 29.1289 36.3806 28.803 36.1404 28.5628C35.9001 28.3225 35.5742 28.1875 35.2344 28.1875C34.8946 28.1875 34.5687 28.3225 34.3284 28.5628C34.0881 28.803 33.9531 29.1289 33.9531 29.4687C33.9531 30.0416 33.8109 30.2548 33.5277 30.6798C33.1666 31.2213 32.6719 31.9633 32.6719 33.3125C32.6719 34.6617 33.1664 35.4033 33.5277 35.9451C33.634 36.0953 33.7292 36.253 33.8125 36.417Z" fill="#222052"/>
<path d="M64.7031 28.1876C64.7031 28.5274 64.8381 28.8533 65.0784 29.0936C65.3187 29.3339 65.6446 29.4689 65.9844 29.4689C66.3242 29.4689 66.6501 29.3339 66.8904 29.0936C67.1306 28.8533 67.2656 28.5274 67.2656 28.1876C67.2656 27.6146 67.4078 27.4013 67.691 26.9764C68.0523 26.4345 68.5469 25.6925 68.5469 24.3439C68.5469 22.9952 68.0522 22.2527 67.691 21.7111C67.5847 21.5609 67.4895 21.4032 67.4062 21.2392C67.2624 20.9313 67.0022 20.6931 66.6827 20.577C66.3632 20.461 66.0108 20.4766 65.7028 20.6204C65.3949 20.7642 65.1567 21.0245 65.0406 21.3439C64.9246 21.6634 64.9402 22.0159 65.084 22.3238C65.2205 22.6055 65.3791 22.876 65.5584 23.1326C65.8422 23.5573 65.9844 23.7705 65.9844 24.3439C65.9844 24.9172 65.8422 25.1301 65.559 25.5551C65.1978 26.0966 64.7031 26.8386 64.7031 28.1876Z" fill="#222052"/>
<path d="M65.9143 19.644C66.197 19.8325 66.543 19.9009 66.8762 19.8343C67.2094 19.7677 67.5025 19.5715 67.691 19.2887C68.0522 18.7469 68.5469 18.0049 68.5469 16.6563C68.5469 16.3164 68.4119 15.9906 68.1716 15.7503C67.9314 15.51 67.6055 15.375 67.2657 15.375C66.9258 15.375 66.6 15.51 66.3597 15.7503C66.1194 15.9906 65.9844 16.3164 65.9844 16.6563C65.9844 17.2291 65.8422 17.4423 65.559 17.8674C65.3706 18.1501 65.3021 18.496 65.3687 18.8292C65.4354 19.1624 65.6316 19.4555 65.9143 19.644Z" fill="#222052"/>
<path d="M59.5781 29.4689C59.9179 29.4689 60.2438 29.3339 60.4841 29.0936C60.7244 28.8533 60.8594 28.5274 60.8594 28.1876C60.8594 27.6146 61.0016 27.4013 61.2847 26.9765C61.464 26.7197 61.6227 26.449 61.7593 26.1671C61.903 25.8592 61.9185 25.5067 61.8024 25.1873C61.6863 24.8679 61.4481 24.6077 61.1401 24.464C60.8322 24.3203 60.4797 24.3047 60.1603 24.4209C59.8409 24.537 59.5808 24.7752 59.437 25.0832C59.3537 25.2472 59.2586 25.4049 59.1523 25.555C58.7914 26.0968 58.2969 26.8388 58.2969 28.1876C58.2969 28.5274 58.4319 28.8533 58.6721 29.0936C58.9124 29.3339 59.2383 29.4689 59.5781 29.4689Z" fill="#222052"/>
<path d="M60.2199 23.7031C60.4517 23.7029 60.679 23.6398 60.8778 23.5205C61.0766 23.4013 61.2393 23.2304 61.3485 23.0259C61.4578 22.8215 61.5096 22.5913 61.4984 22.3598C61.4871 22.1283 61.4133 21.9041 61.2848 21.7113C61.0016 21.2859 60.8594 21.0726 60.8594 20.5C60.8594 19.9274 61.0016 19.714 61.2848 19.2891C61.6459 18.7471 62.1406 18.0051 62.1406 16.6563C62.1406 16.3164 62.0056 15.9906 61.7654 15.7503C61.5251 15.51 61.1992 15.375 60.8594 15.375C60.5196 15.375 60.1937 15.51 59.9534 15.7503C59.7131 15.9906 59.5781 16.3164 59.5781 16.6563C59.5781 17.2291 59.4359 17.4423 59.1527 17.8674C58.7916 18.4088 58.2969 19.1508 58.2969 20.5C58.2969 21.8492 58.7914 22.5907 59.1524 23.1325C59.2696 23.3082 59.4283 23.4523 59.6145 23.5518C59.8007 23.6514 60.0087 23.7033 60.2199 23.7031Z" fill="#222052"/>
<path d="M34.5938 52.5312C34.9336 52.5312 35.2595 52.3963 35.4997 52.156C35.74 51.9157 35.875 51.5898 35.875 51.25C35.875 50.9102 35.74 50.5843 35.4997 50.344C35.2595 50.1037 34.9336 49.9688 34.5938 49.9688H32.0312C31.6914 49.9688 31.3655 50.1037 31.1253 50.344C30.885 50.5843 30.75 50.9102 30.75 51.25C30.75 51.5898 30.885 51.9157 31.1253 52.156C31.3655 52.3963 31.6914 52.5312 32.0312 52.5312H34.5938Z" fill="#222052"/>
<path d="M38.4375 52.5312H44.8438C45.1836 52.5312 45.5095 52.3963 45.7497 52.156C45.99 51.9157 46.125 51.5898 46.125 51.25C46.125 50.9102 45.99 50.5843 45.7497 50.344C45.5095 50.1037 45.1836 49.9688 44.8438 49.9688H38.4375C38.0977 49.9688 37.7718 50.1037 37.5315 50.344C37.2912 50.5843 37.1562 50.9102 37.1562 51.25C37.1562 51.5898 37.2912 51.9157 37.5315 52.156C37.7718 52.3963 38.0977 52.5312 38.4375 52.5312Z" fill="#222052"/>
</svg>
