<svg width="78" height="78" viewBox="0 0 78 78" fill="none" xmlns="http://www.w3.org/2000/svg">
<path d="M31.8214 8.17817C31.6182 7.65989 31.3293 7.19799 30.955 6.79169C30.5804 6.38523 30.1302 6.058 29.604 5.8112C29.0781 5.56441 28.4925 5.44055 27.847 5.44055C27.2174 5.44055 26.6374 5.55816 26.1079 5.79353C25.5777 6.0286 25.1195 6.34349 24.733 6.73776C24.3465 7.13187 24.0458 7.58844 23.8305 8.10626C23.6154 8.62453 23.5077 9.16231 23.5077 9.72019C23.5077 10.2702 23.6113 10.8038 23.8186 11.3218C24.026 11.8401 24.3165 12.3004 24.6911 12.7026C25.0657 13.1053 25.5159 13.4298 26.0418 13.677C26.5681 13.924 27.1534 14.0474 27.7992 14.0474C28.4284 14.0474 29.0084 13.9278 29.5384 13.689C30.0684 13.4503 30.5246 13.1331 30.9069 12.7387C31.2897 12.3445 31.5885 11.8899 31.8037 11.3759C32.0188 10.8619 32.1264 10.3259 32.1264 9.76803C32.1262 9.22614 32.0246 8.69644 31.8214 8.17817ZM29.6461 10.5448C29.5705 10.8158 29.455 11.057 29.2993 11.268C29.1438 11.4795 28.9427 11.6504 28.6958 11.7822C28.4485 11.9132 28.158 11.9793 27.8233 11.9793C27.4883 11.9793 27.1994 11.9153 26.9566 11.7875C26.7133 11.6603 26.5122 11.493 26.353 11.286C26.1934 11.0788 26.0739 10.8417 25.9942 10.5748C25.9147 10.3076 25.8748 10.0305 25.8748 9.74396C25.8748 9.46532 25.9124 9.19232 25.9883 8.9248C26.0639 8.65835 26.1813 8.41887 26.3408 8.20757C26.5 7.99657 26.7011 7.82717 26.9447 7.6995C27.1874 7.57184 27.4764 7.50846 27.8111 7.50846C28.1379 7.50846 28.4228 7.57016 28.6659 7.69356C28.9087 7.81711 29.1123 7.98043 29.2754 8.18365C29.4386 8.38688 29.5603 8.62194 29.6401 8.88916C29.72 9.15637 29.7597 9.43302 29.7597 9.72004C29.7596 9.99898 29.7216 10.2738 29.6461 10.5448Z" fill="white"/>
<path d="M39.8132 10.3656C39.6936 10.0868 39.5222 9.8498 39.299 9.65434C39.076 9.45919 38.807 9.28963 38.4922 9.14628C38.1772 9.00292 37.8247 8.8713 37.4342 8.75201C37.1869 8.67249 36.966 8.60439 36.7707 8.54878C36.5753 8.49333 36.41 8.43498 36.2746 8.37526C36.139 8.3157 36.0354 8.24988 35.9636 8.17828C35.8917 8.10638 35.8562 8.01467 35.8562 7.90285C35.8562 7.75157 35.9178 7.64432 36.0413 7.58018C36.1649 7.5165 36.3302 7.48481 36.5375 7.48481C36.7925 7.48481 37.0533 7.52656 37.3206 7.61019C37.5873 7.69383 37.8286 7.78326 38.0436 7.87908C38.2988 7.9909 38.5455 8.11826 38.7847 8.26177L39.789 6.33706C39.5976 6.24169 39.3825 6.13992 39.1435 6.03222C38.9043 5.92481 38.6473 5.82533 38.3723 5.73347C38.0974 5.64161 37.8125 5.56605 37.5175 5.50617C37.2229 5.4463 36.92 5.41675 36.6093 5.41675C36.1868 5.41675 35.7861 5.47875 35.4079 5.60185C35.0292 5.72555 34.6925 5.90669 34.3978 6.14587C34.1029 6.38504 33.8697 6.68364 33.6984 7.04241C33.5269 7.40118 33.4413 7.81571 33.4413 8.28569C33.4413 8.59631 33.483 8.87129 33.567 9.11078C33.6506 9.34981 33.7799 9.56278 33.9554 9.75017C34.1308 9.93755 34.3537 10.1048 34.625 10.2521C34.8955 10.3998 35.2184 10.5369 35.5933 10.6644C35.8483 10.7523 36.0892 10.828 36.3163 10.8914C36.5436 10.9555 36.7448 11.019 36.9202 11.0827C37.0955 11.1467 37.2328 11.2201 37.3326 11.3038C37.4321 11.3879 37.4819 11.4892 37.4819 11.6088C37.4819 11.7206 37.4321 11.8105 37.3326 11.8776C37.233 11.9454 37.0556 11.9794 36.8006 11.9794C36.4659 11.9794 36.137 11.9311 35.8143 11.8359C35.4915 11.7404 35.2025 11.6327 34.9476 11.5132C34.6448 11.3777 34.3538 11.2223 34.0752 11.0469L33.0709 13.0909C33.3259 13.2423 33.6029 13.3778 33.9017 13.4974C34.2007 13.617 34.5113 13.7205 34.8342 13.8083C35.157 13.8959 35.4813 13.9637 35.8082 14.0115C36.1352 14.0597 36.4539 14.0834 36.7646 14.0834C37.1551 14.0834 37.5436 14.0373 37.9304 13.9459C38.3172 13.8538 38.6638 13.7047 38.9706 13.4972C39.2771 13.2903 39.5244 13.0132 39.7117 12.6663C39.899 12.3194 39.9925 11.8915 39.9925 11.3813C39.9924 10.9831 39.9328 10.6444 39.8132 10.3656Z" fill="white"/>
<path d="M74.75 66.0833H73.5884C73.6392 65.7293 73.6666 65.3679 73.6666 65C73.6666 61.5649 71.382 58.6651 68.2498 57.7326V14.0832H63.5889V11.9435H59.7398V5.48859H57.4086V14.0834H55.7234V11.9435H52.0059V10.6046H55.0899V8.71553H52.0059V7.51994H55.6158V5.48828H49.6747V14.0832H45.7897V7.52024H48.2284V5.48859H41.0084V7.52024H43.4588V14.0834H39H36.7648H21.918V5.48859H19.5868V8.62001H16.742V5.48859H14.411V14.0834H9.75V57.7326C6.61781 58.6651 4.33327 61.5649 4.33327 65C4.33327 65.3679 4.36084 65.7293 4.41142 66.0833H3.2498C1.45519 66.0833 0 67.5383 0 69.3333C0 71.1282 1.45519 72.5832 3.24995 72.5832H25.9999V59.5833H52V72.5832H74.7499C76.5448 72.5832 77.9998 71.128 77.9998 69.3333C77.9998 67.5385 76.5448 66.0833 74.75 66.0833ZM16.7421 10.6521H19.5871V14.0832H16.7421V10.6521ZM22.7499 53.0832H16.2499V46.5832H22.7499V53.0832ZM22.7499 40.0833H16.2499V33.5832H22.7499V40.0833ZM22.7499 27.0833H16.2499V20.5833H22.7499V27.0833ZM35.7501 53.0832H29.25V46.5832H35.7501V53.0832ZM35.7501 40.0833H29.25V33.5832H35.7501V40.0833ZM35.7501 27.0833H29.25V20.5833H35.7501V27.0833ZM48.75 53.0832H42.25V46.5832H48.75V53.0832ZM48.75 40.0833H42.25V33.5832H48.75V40.0833ZM48.75 27.0833H42.25V20.5833H48.75V27.0833ZM61.75 53.0832H55.2499V46.5832H61.75V53.0832ZM61.75 40.0833H55.2499V33.5832H61.75V40.0833ZM61.75 27.0833H55.2499V20.5833H61.75V27.0833Z" fill="white"/>
</svg>
