<svg xmlns="http://www.w3.org/2000/svg" xmlns:xlink="http://www.w3.org/1999/xlink" viewBox="0 0 348.8 99.66"><defs><style>.cls-1{fill:none;}.cls-2,.cls-4{fill:#ffca05;}.cls-2,.cls-6,.cls-7{fill-rule:evenodd;}.cls-3,.cls-6{fill:#2b2873;}.cls-5{clip-path:url(#clip-path);}.cls-7{fill:#fff;}</style><clipPath id="clip-path"><path class="cls-1" d="M80.65,19A43.58,43.58,0,1,0,93.42,49.83,43.44,43.44,0,0,0,80.65,19"/></clipPath></defs><g id="Layer_2" data-name="Layer 2"><g id="Layer_1-2" data-name="Layer 1"><polygon class="cls-2" points="106.33 0 126.75 0 131.56 0 198.46 0 348.8 0 348.8 99.66 198.46 99.66 131.56 99.66 126.75 99.66 106.33 99.66 99.66 99.66 99.66 0 106.33 0"/><rect class="cls-3" width="99.66" height="99.66"/><path class="cls-4" d="M80.65,19A43.58,43.58,0,1,0,93.42,49.83,43.44,43.44,0,0,0,80.65,19"/><g class="cls-5"><path class="cls-3" d="M81.85,73.75l-3.14-2.24.62-.87,1.46.15.69.08.66.1-.68-.45-.56-.38-.8-.58.56-.77L83.79,71l-.61.86-1.5-.14-.59-.06-.7-.09L81,72l.48.33,1,.67Zm-4.29,2.16a2,2,0,0,1-.77-1.37,2.09,2.09,0,0,1,1.87-2.12,2.07,2.07,0,0,1,1.46.58,2.12,2.12,0,0,1,.77,1.38,1.92,1.92,0,0,1-.53,1.43A1.86,1.86,0,0,1,79,76.5,2,2,0,0,1,77.56,75.91Zm.66-.75a1.51,1.51,0,0,0,.84.42.86.86,0,0,0,.69-.31.83.83,0,0,0,.22-.73,1.79,1.79,0,0,0-1.36-1.19.91.91,0,0,0-.91,1A1.49,1.49,0,0,0,78.22,75.16Zm-.35,3.17-2.78-2.67.68-.71,2.79,2.67Zm-3.71,1.59.72-.61a.67.67,0,0,0,.47.25.72.72,0,0,0,.52-.22.92.92,0,0,0,.29-.37.35.35,0,0,0,0-.33.45.45,0,0,0-.14-.1.26.26,0,0,0-.15,0,3.84,3.84,0,0,0-.52.21c-.27.11-.5.21-.7.27a1.47,1.47,0,0,1-.76.08,1,1,0,0,1-.57-.34,1.07,1.07,0,0,1-.26-.94,1.79,1.79,0,0,1,.65-1,1.64,1.64,0,0,1,1.06-.45,1.16,1.16,0,0,1,.92.44l-.71.6a.6.6,0,0,0-.4-.18.78.78,0,0,0-.44.2.71.71,0,0,0-.23.33.27.27,0,0,0,0,.28c.11.13.39.1.85-.09l.19-.08h0a3.26,3.26,0,0,1,1-.3,1.13,1.13,0,0,1,.45.09,1.21,1.21,0,0,1,.37.28,1.06,1.06,0,0,1,.24,1,2,2,0,0,1-.74,1,1.72,1.72,0,0,1-1.09.48A1.45,1.45,0,0,1,74.16,79.92Zm-2.93,2.17.77-.55a.67.67,0,0,0,.45.3.75.75,0,0,0,.53-.18.79.79,0,0,0,.32-.35.28.28,0,0,0,0-.32.37.37,0,0,0-.13-.12.26.26,0,0,0-.15,0,3.29,3.29,0,0,0-.54.16c-.27.09-.51.16-.71.21a1.44,1.44,0,0,1-.77,0,1,1,0,0,1-.54-.39,1.07,1.07,0,0,1-.17-1A1.76,1.76,0,0,1,71,79a1.65,1.65,0,0,1,1.1-.36,1.16,1.16,0,0,1,.87.52l-.76.54a.56.56,0,0,0-.39-.22.72.72,0,0,0-.44.16.68.68,0,0,0-.26.31.27.27,0,0,0,0,.29c.1.14.38.13.86,0l.2-.06h0a3.25,3.25,0,0,1,1-.22.94.94,0,0,1,.43.13,1.14,1.14,0,0,1,.35.31,1,1,0,0,1,.15,1,2,2,0,0,1-.82,1,1.67,1.67,0,0,1-1.13.38A1.46,1.46,0,0,1,71.23,82.09ZM70.63,84l-2.07-3.26.83-.53,2.07,3.26Zm-4.38,2.34-1.73-3.45,1.21-.61L67,83.71l.33.38.29.36c0-.15-.08-.32-.12-.49s-.08-.36-.12-.56L67,81.6l1.22-.6L70,84.44l-.81.4-.77-1.52-.22-.46-.31-.68.67,3-.87.44-2-2.33c.17.3.32.57.44.82l.3.56.63,1.26Zm-5.18,1.92-1.26-3.65,1.74-.6a1.89,1.89,0,0,1,1.11-.11.94.94,0,0,1,.59.66,1,1,0,0,1,0,.57,1.24,1.24,0,0,1-.31.52.66.66,0,0,1,.42.13,1.14,1.14,0,0,1,.31.51l.12.3c.11.29.22.44.33.46l0,.12-1,.34A1.76,1.76,0,0,1,63,87c-.09-.22-.14-.36-.17-.42a.49.49,0,0,0-.25-.26.57.57,0,0,0-.4,0l-.62.21L62,87.92Zm.21-2.41.69-.24a.66.66,0,0,0,.38-.24.41.41,0,0,0,0-.38.34.34,0,0,0-.23-.25.66.66,0,0,0-.43,0L61,85Zm-4.94-.44.94-.21.55,2.34a.87.87,0,0,0,.27.52.84.84,0,0,0,1-.22.87.87,0,0,0,0-.59l-.55-2.35,1-.22L60,86.89a2.38,2.38,0,0,1,.09.78,1.14,1.14,0,0,1-.2.54,1.36,1.36,0,0,1-.44.42,2.26,2.26,0,0,1-1.33.31,1.5,1.5,0,0,1-.59-.18,1.27,1.27,0,0,1-.42-.41,2.49,2.49,0,0,1-.27-.73Zm-3.77,2.44a2.09,2.09,0,0,1,.34-1.54,2.07,2.07,0,0,1,2.8-.34,2.37,2.37,0,0,1,.36,3,1.87,1.87,0,0,1-1.34.71,1.84,1.84,0,0,1-1.46-.37A2.08,2.08,0,0,1,52.57,87.83Zm1-.13a1.45,1.45,0,0,0,.34.87.81.81,0,0,0,.72.23.84.84,0,0,0,.65-.39,1.42,1.42,0,0,0,.13-.93,1.4,1.4,0,0,0-.35-.87.85.85,0,0,0-.72-.23.8.8,0,0,0-.64.4A1.4,1.4,0,0,0,53.57,87.7Zm-6.3,2,.12-3.85,1.07,0,.69,1.29c.11.21.21.42.32.62l.28.61c0-.29,0-.56,0-.82s0-.48,0-.67l0-1,1,0-.12,3.86-1.07,0-.71-1.32c-.09-.16-.18-.33-.28-.53s-.2-.4-.31-.63c0,.25,0,.49,0,.7s0,.41,0,.58l0,1.16Zm-4.2-2.4a2.08,2.08,0,0,1,.7-1.41,1.84,1.84,0,0,1,1.46-.38,1.88,1.88,0,0,1,1.34.72,2.37,2.37,0,0,1-.36,3,1.87,1.87,0,0,1-1.47.37,1.85,1.85,0,0,1-1.33-.71A2.11,2.11,0,0,1,43.07,87.34Zm1,.12a1.42,1.42,0,0,0,.13.93.82.82,0,0,0,.64.39.79.79,0,0,0,.72-.23,1.39,1.39,0,0,0,.35-.86,1.42,1.42,0,0,0-.13-.93.82.82,0,0,0-.65-.4.84.84,0,0,0-.72.23A1.45,1.45,0,0,0,44.07,87.46Zm-2.8,1.42.87-3.75,1,.22-.87,3.75Zm-3.39-2.21.91.25a.66.66,0,0,0,.05.53.78.78,0,0,0,.47.31,1,1,0,0,0,.48,0,.3.3,0,0,0,.23-.23.3.3,0,0,0,0-.16.25.25,0,0,0-.08-.14,3.26,3.26,0,0,0-.45-.32,5.48,5.48,0,0,1-.62-.42,1.41,1.41,0,0,1-.49-.59,1,1,0,0,1,0-.66,1.06,1.06,0,0,1,.64-.74,1.78,1.78,0,0,1,1.17,0,1.69,1.69,0,0,1,1,.63,1.13,1.13,0,0,1,.14,1l-.89-.25a.56.56,0,0,0-.08-.43.75.75,0,0,0-.4-.25.78.78,0,0,0-.4,0,.27.27,0,0,0-.21.2c0,.17.13.39.55.66l.17.11,0,0a3.76,3.76,0,0,1,.77.61,1.07,1.07,0,0,1,.18.43,1.22,1.22,0,0,1,0,.46,1.06,1.06,0,0,1-.67.75,2.16,2.16,0,0,1-1.28,0,1.73,1.73,0,0,1-1-.64A1.43,1.43,0,0,1,37.88,86.67Zm-3.39-1.29.88.35a.69.69,0,0,0,0,.53.78.78,0,0,0,.44.36.93.93,0,0,0,.46.08.31.31,0,0,0,.26-.2.34.34,0,0,0,0-.17.35.35,0,0,0-.06-.14c-.06-.06-.2-.18-.43-.36s-.41-.34-.56-.49a1.43,1.43,0,0,1-.43-.64,1,1,0,0,1,0-.66,1,1,0,0,1,.71-.66,1.72,1.72,0,0,1,1.16.11,1.69,1.69,0,0,1,.9.73,1.12,1.12,0,0,1,0,1l-.86-.34a.54.54,0,0,0,0-.44.66.66,0,0,0-.37-.29.65.65,0,0,0-.4,0,.28.28,0,0,0-.23.17c-.06.16.09.4.48.72l.16.13,0,0a3.76,3.76,0,0,1,.71.7,1.17,1.17,0,0,1,.13.44,1.09,1.09,0,0,1-.08.46,1.07,1.07,0,0,1-.75.67,2,2,0,0,1-1.26-.17,1.66,1.66,0,0,1-.94-.74A1.46,1.46,0,0,1,34.49,85.38ZM33.38,82l1,.49-.53,4.05-.94-.48.11-.73-1.15-.59-.52.54-.91-.47Zm-1,2.14.75.38.22-1.38Zm-4.55-.91L29.94,80l1.49,1a1.55,1.55,0,0,1,.69.82,1.12,1.12,0,0,1-.2.94,1.25,1.25,0,0,1-.8.6,1.39,1.39,0,0,1-1-.26l-.68-.44-.75,1.16Zm2-1.27.55.35a.56.56,0,0,0,.4.12.43.43,0,0,0,.29-.22.42.42,0,0,0,.08-.36.57.57,0,0,0-.27-.32l-.54-.35Zm-6.43-2,2.37-3L27.24,78a1.74,1.74,0,0,1,.69.87,1,1,0,0,1-.22.86,1,1,0,0,1-1.06.37.69.69,0,0,1,.12.43,1.2,1.2,0,0,1-.26.53l-.18.26c-.18.26-.25.43-.21.53L26,82l-.82-.63a2.2,2.2,0,0,1,.28-.5l.26-.36a.5.5,0,0,0,.08-.36.55.55,0,0,0-.24-.31l-.52-.41-.89,1.14Zm2.13-1.14.58.45a.69.69,0,0,0,.41.18.41.41,0,0,0,.33-.19.38.38,0,0,0,.08-.33.69.69,0,0,0-.26-.34l-.6-.47Zm-2.31-4.42.7.67-1.67,1.74a.82.82,0,0,0-.28.51.8.8,0,0,0,.72.69.88.88,0,0,0,.5-.31l1.66-1.74.71.68L24,78.28a2.89,2.89,0,0,1-.61.49,1.22,1.22,0,0,1-.56.14,1.66,1.66,0,0,1-.6-.15,2,2,0,0,1-.56-.4,2.08,2.08,0,0,1-.42-.54,1.42,1.42,0,0,1-.17-.59,1.18,1.18,0,0,1,.11-.58,2.64,2.64,0,0,1,.46-.62Zm-4-1.85A2,2,0,0,1,20.76,72a1.84,1.84,0,0,1,1.3.77,1.87,1.87,0,0,1,.45,1.45,2.06,2.06,0,0,1-.84,1.33,2,2,0,0,1-1.49.51,1.87,1.87,0,0,1-1.31-.78,1.8,1.8,0,0,1-.44-1.44A2.06,2.06,0,0,1,19.27,72.53Zm.62.79a1.47,1.47,0,0,0-.56.74.83.83,0,0,0,.18.74.83.83,0,0,0,.67.35,1.49,1.49,0,0,0,.86-.37A1.4,1.4,0,0,0,21.6,74,.9.9,0,0,0,20.75,73,1.41,1.41,0,0,0,19.89,73.32ZM16.4,71.77,17.62,71l1.31-2.42.6.94-.93,1.43,1.69-.24.6.94-2.75.16-1.23.78Z"/><path class="cls-3" d="M62.79,77.49a.9.9,0,0,1-.48-.09A.89.89,0,0,1,62,77a.94.94,0,0,1,0-.83,1.53,1.53,0,0,1,.75-.68,1.51,1.51,0,0,1,1-.2.86.86,0,0,1,.64.51.88.88,0,0,1,.11.48.85.85,0,0,1-.21.44.88.88,0,0,1,.57.09,1,1,0,0,1,.39.44,1.06,1.06,0,0,1,.07,1,1.57,1.57,0,0,1-.8.76,1.66,1.66,0,0,1-1.08.2,1.12,1.12,0,0,1-.74-.63,1,1,0,0,1-.12-.57,1,1,0,0,1,.27-.52m0-.78a.4.4,0,0,0,.25.23.46.46,0,0,0,.34,0,.48.48,0,0,0,.24-.25.49.49,0,0,0,0-.35.46.46,0,0,0-.25-.23.49.49,0,0,0-.35,0,.44.44,0,0,0-.23.26A.38.38,0,0,0,62.8,76.71Zm.65,1.45a.54.54,0,0,0,.3.28.56.56,0,0,0,.67-.34.51.51,0,0,0,0-.41.51.51,0,0,0-.3-.28.56.56,0,0,0-.67.34A.55.55,0,0,0,63.45,78.16ZM59.33,79a2.42,2.42,0,0,1-.15-1.5,1.43,1.43,0,0,1,2-.72A2.54,2.54,0,0,1,62,78.05a2.43,2.43,0,0,1,.15,1.5,1.43,1.43,0,0,1-2,.72A2.45,2.45,0,0,1,59.33,79Zm.9-.32a3.08,3.08,0,0,0,.43.88.4.4,0,0,0,.44.15.37.37,0,0,0,.25-.4,2.77,2.77,0,0,0-.21-.95,2.9,2.9,0,0,0-.43-.86.39.39,0,0,0-.45-.15.37.37,0,0,0-.25.38,2.51,2.51,0,0,0,.21.9ZM56.16,80a2.52,2.52,0,0,1-.09-1.51,1.26,1.26,0,0,1,.89-.78,1.25,1.25,0,0,1,1.17.16,3.14,3.14,0,0,1,.85,2.8,1.44,1.44,0,0,1-2.06.63A2.55,2.55,0,0,1,56.16,80Zm.91-.28a2.82,2.82,0,0,0,.39.89.36.36,0,0,0,.43.17.37.37,0,0,0,.27-.38,2.82,2.82,0,0,0-.17-1,2.74,2.74,0,0,0-.39-.88.38.38,0,0,0-.44-.17.38.38,0,0,0-.27.37,3,3,0,0,0,.16.91ZM53.32,82.2a1.88,1.88,0,0,1,.1-.8,2.08,2.08,0,0,1,.46-.72c.07-.08.18-.18.32-.31l.32-.31a1.31,1.31,0,0,0,.23-.35.75.75,0,0,0,0-.33.54.54,0,0,0-.18-.36.41.41,0,0,0-.35-.08.43.43,0,0,0-.35.23.87.87,0,0,0,0,.53l-.86.12a1.42,1.42,0,0,1,.22-1.07,1.32,1.32,0,0,1,.93-.52,1.46,1.46,0,0,1,1,.18,1.06,1.06,0,0,1,.51.8,1.13,1.13,0,0,1,0,.55,1.86,1.86,0,0,1-.32.57,5.25,5.25,0,0,1-.44.46,2.46,2.46,0,0,0-.44.49L56,81.06l.11.73Zm-5.41.15L48,78.5l2.93,0v.79l-1.94,0V80l1.78,0v.77l-1.78,0v.83l2,0v.79ZM47.28,81a1.65,1.65,0,0,1-.68,1,1.7,1.7,0,0,1-1.2.23,1.8,1.8,0,0,1-1.28-.73,2.34,2.34,0,0,1,.4-2.92A1.89,1.89,0,0,1,46,78.16a1.73,1.73,0,0,1,1.09.52,1.42,1.42,0,0,1,.37,1.07l-.92-.13a.72.72,0,0,0-.2-.44.86.86,0,0,0-1.17,0,1.55,1.55,0,0,0-.35.86,1.42,1.42,0,0,0,.11.9.74.74,0,0,0,.59.39.82.82,0,0,0,.55-.09.71.71,0,0,0,.31-.43Zm-7.77-.23L40.56,77l1,.29.35,1.42c.06.23.11.46.16.68s.09.44.13.66c.06-.29.13-.55.19-.8s.12-.46.17-.65l.27-1,.92.26-1.05,3.71-1-.29-.37-1.46c0-.17-.09-.36-.14-.58s-.1-.44-.15-.68c0,.24-.1.47-.15.68s-.1.4-.15.56L40.43,81ZM37.64,80,39,76.41l.93.36-1.39,3.6Zm-3.14-2.9.85.43a.68.68,0,0,0-.05.53.78.78,0,0,0,.41.39.88.88,0,0,0,.46.12.31.31,0,0,0,.27-.18.34.34,0,0,0,0-.16.25.25,0,0,0,0-.15,4,4,0,0,0-.39-.4c-.21-.2-.39-.37-.53-.53a1.45,1.45,0,0,1-.37-.67,1,1,0,0,1,.09-.66,1.07,1.07,0,0,1,.76-.6,1.81,1.81,0,0,1,1.16.21,1.66,1.66,0,0,1,.83.8,1.13,1.13,0,0,1,0,1l-.83-.41a.56.56,0,0,0,0-.44.74.74,0,0,0-.35-.32.78.78,0,0,0-.39-.09.32.32,0,0,0-.25.16q-.12.22.42.75l.15.14,0,0a4.07,4.07,0,0,1,.65.75,1.2,1.2,0,0,1,.09.45,1.26,1.26,0,0,1-.12.45,1,1,0,0,1-.8.61,2.08,2.08,0,0,1-1.25-.27,1.75,1.75,0,0,1-.87-.82A1.47,1.47,0,0,1,34.5,77.11Z"/><path class="cls-6" d="M59.62,20.13a31.27,31.27,0,0,1,8.54,55l-.73-1A30,30,0,0,0,59.24,21.3ZM31.05,74.83a31.5,31.5,0,0,1-9.21-11A31.27,31.27,0,0,1,40,20.13l.38,1.17A30,30,0,0,0,19.8,49.83,29.81,29.81,0,0,0,23,63.23a30.13,30.13,0,0,0,8.84,10.62Z"/><path class="cls-6" d="M55.31,18.18l.49,1,1.11.16-.8.78.18,1.1-1-.52-1,.52.19-1.1-.8-.78,1.1-.16Zm-11,0,.5,1,1.1.16-.8.78.19,1.1-1-.52-1,.52.19-1.1-.8-.78,1.11-.16Zm5.48-1.59.74,1.5,1.66.24L51,19.51l.28,1.65-1.48-.78-1.49.78.29-1.65-1.21-1.18,1.66-.24Z"/><path class="cls-7" d="M49.83,24.08A25.75,25.75,0,1,1,24.08,49.83,25.75,25.75,0,0,1,49.83,24.08"/><path class="cls-7" d="M49.83,28l.79,1.6,1.76.25-1.27,1.25.3,1.76-1.58-.83-1.58.83.3-1.76-1.27-1.25L49,29.64Zm5.81,1.41.53,1.06,1.17.17-.85.83.2,1.17-1-.56-1,.56.2-1.17L54,30.68l1.17-.17ZM44,29.45l.53,1.06,1.17.17-.85.83.2,1.17L44,32.12l-1,.56.2-1.17-.84-.83,1.17-.17Z"/><path class="cls-6" d="M49.83,25.89A23.94,23.94,0,0,1,66.76,66.76c-.3.3-.61.59-.92.87L65.17,67c.32-.28.63-.58.93-.87a23,23,0,1,0-32.54,0c.3.29.61.59.92.87l-.66.66c-.31-.28-.62-.57-.92-.87A23.94,23.94,0,0,1,49.83,25.89"/><path class="cls-3" d="M86.23,49.67l-.11,1.52a1.13,1.13,0,0,0-.83.25,1.3,1.3,0,0,0-.33.85,1.56,1.56,0,0,0,.1.76.54.54,0,0,0,.43.3.59.59,0,0,0,.27,0,.35.35,0,0,0,.19-.17,6,6,0,0,0,.36-.82,10.61,10.61,0,0,1,.47-1.11,2.39,2.39,0,0,1,.78-1,1.56,1.56,0,0,1,1-.27,1.7,1.7,0,0,1,1.36.77,2.89,2.89,0,0,1,.39,1.85,2.71,2.71,0,0,1-.69,1.73,1.83,1.83,0,0,1-1.54.54l.11-1.49a1,1,0,0,0,.67-.25,1.25,1.25,0,0,0,.26-.72,1.15,1.15,0,0,0-.11-.64.47.47,0,0,0-.39-.27c-.27,0-.56.34-.86,1.08l-.13.31,0,.06a6.14,6.14,0,0,1-.73,1.43,1.77,1.77,0,0,1-.61.41,1.83,1.83,0,0,1-2.14-.72,3.36,3.36,0,0,1-.36-2,2.75,2.75,0,0,1,.69-1.8,2.34,2.34,0,0,1,1.73-.57m-2.65-5.61,6.17-.82.62,4.68-1.26.17L88.7,45l-1.09.14L88,48l-1.23.16-.38-2.84-1.32.18.43,3.2-1.26.17Zm-.93-4,4.76-1.37L86.92,37l1.21-.35,1.42,4.95L88.34,42l-.49-1.71-4.76,1.36Zm2.81-9.66.64,1.42-3.54,1.6a1.43,1.43,0,0,0-.73.6,1,1,0,0,0,.09.85,1,1,0,0,0,.57.61,1.36,1.36,0,0,0,.93-.16L87,33.76l.65,1.44-3.36,1.52a4.24,4.24,0,0,1-1.2.38,1.8,1.8,0,0,1-.92-.14,2.3,2.3,0,0,1-.81-.57,3.33,3.33,0,0,1-.61-.93,3.84,3.84,0,0,1-.3-1.07,2.54,2.54,0,0,1,.11-1,1.86,1.86,0,0,1,.51-.79A4,4,0,0,1,82.09,32Zm-8-.77,4.05-2.85-1-1.46,1-.73,3,4.21-1,.73-1-1.45-4,2.85ZM74.9,26.49l4.71-4.06,1,1.21L75.94,27.7Zm-3-2.81,3.24-3.75L73.8,18.77l.82-1,3.9,3.37-.82,1L76.35,21l-3.24,3.75Zm-5-6,1.3.81a1.05,1.05,0,0,0-.16.85,1.19,1.19,0,0,0,.59.69,1.41,1.41,0,0,0,.72.26.5.5,0,0,0,.46-.24.45.45,0,0,0,.09-.26.37.37,0,0,0-.06-.25,5.63,5.63,0,0,0-.56-.69,11.29,11.29,0,0,1-.76-.93A2.34,2.34,0,0,1,68,16.8a1.58,1.58,0,0,1,.24-1.05,1.73,1.73,0,0,1,1.32-.84,2.9,2.9,0,0,1,1.82.51,2.68,2.68,0,0,1,1.21,1.41,1.82,1.82,0,0,1-.24,1.62l-1.26-.79a1,1,0,0,0,.08-.71,1.18,1.18,0,0,0-.52-.56,1,1,0,0,0-.61-.2.46.46,0,0,0-.42.21c-.15.24,0,.66.56,1.27l.21.26,0,.05a5.68,5.68,0,0,1,.93,1.31,1.65,1.65,0,0,1,.08.73,1.76,1.76,0,0,1-.26.7,1.68,1.68,0,0,1-1.37.85,3.32,3.32,0,0,1-2-.62,2.73,2.73,0,0,1-1.27-1.45A2.33,2.33,0,0,1,66.89,17.7Zm-7-.65,2.25-5.8,1.6.62.36,2.33c.06.38.11.76.15,1.12s.07.73.1,1.08c.15-.45.29-.86.43-1.25s.27-.73.38-1l.58-1.48,1.43.56L65,19l-1.61-.62L63,16c-.05-.29-.09-.6-.14-1s-.09-.72-.13-1.13c-.12.39-.24.75-.35,1.08s-.22.62-.32.88l-.68,1.74Zm-2.78-.65,1.39-6.06,1.55.36-1.39,6.06Zm-7.79-.79.12-6.22,4.46.1,0,1.28-2.88-.06L51,12l2.5.05,0,1.29L51,13.29l0,2.35Zm-7.58-2.35a3.34,3.34,0,0,1,.52-2.49,3.38,3.38,0,0,1,4.52-.59A3.32,3.32,0,0,1,48,12.44a3.31,3.31,0,0,1-.53,2.48,3.37,3.37,0,0,1-4.52.6A3.31,3.31,0,0,1,41.79,13.26Zm1.6-.22a2.36,2.36,0,0,0,.58,1.4,1.28,1.28,0,0,0,1.16.35,1.3,1.3,0,0,0,1-.64,2.41,2.41,0,0,0,.2-1.5,2.42,2.42,0,0,0-.58-1.39,1.47,1.47,0,0,0-2.21.29A2.39,2.39,0,0,0,43.39,13Zm-9,6.08-2.27-5.79,2.64-1a2.45,2.45,0,0,1,1.72-.13,1.84,1.84,0,0,1,1.06,1.13,2,2,0,0,1,0,1.63A2.21,2.21,0,0,1,36.3,16l-1.2.48.81,2.06Zm.22-3.82,1-.39a.86.86,0,0,0,.52-.4.7.7,0,0,0,0-.6.71.71,0,0,0-.4-.44,1,1,0,0,0-.67.07l-1,.38Zm-9,2L27,16.46,29,19.74a1.37,1.37,0,0,0,.7.64,1,1,0,0,0,.82-.2,1,1,0,0,0,.53-.66,1.36,1.36,0,0,0-.29-.9l-2.08-3.28,1.33-.85,2,3.12a4.16,4.16,0,0,1,.54,1.13,1.73,1.73,0,0,1,0,.93,2.27,2.27,0,0,1-.45.89,3.4,3.4,0,0,1-.84.73,3.5,3.5,0,0,1-1,.45,2.36,2.36,0,0,1-1,0,1.84,1.84,0,0,1-.85-.39,4.12,4.12,0,0,1-.8-1Zm-4.05,7.91a3.37,3.37,0,0,1-1.06-2.31,3.39,3.39,0,0,1,3.29-3.16,3.37,3.37,0,0,1,2.27,1.14,3.32,3.32,0,0,1,1.05,2.32,3,3,0,0,1-1,2.21,3,3,0,0,1-2.25.94A3.32,3.32,0,0,1,21.59,25.21Zm1.16-1.12a2.44,2.44,0,0,0,1.29.78,1.33,1.33,0,0,0,1.15-.4,1.32,1.32,0,0,0,.45-1.14A2.28,2.28,0,0,0,24.92,22a2.32,2.32,0,0,0-1.29-.78,1.33,1.33,0,0,0-1.16.41A1.32,1.32,0,0,0,22,22.77,2.45,2.45,0,0,0,22.75,24.09Zm-2.54,8.35-5.07-3.6,1.72-2.42a2.9,2.9,0,0,1,1.35-1.18,1.54,1.54,0,0,1,1.39.3,1.63,1.63,0,0,1,.6.72,1.77,1.77,0,0,1,.08,1A1.14,1.14,0,0,1,21,27a2.08,2.08,0,0,1,.88.38l.43.28c.42.27.71.37.86.29l.18.12-1,1.37a3.1,3.1,0,0,1-.82-.41,6.06,6.06,0,0,0-.6-.39.76.76,0,0,0-.58-.11,1,1,0,0,0-.5.41l-.61.86,1.9,1.35Zm-2-3.35.68-1a1.12,1.12,0,0,0,.27-.68.68.68,0,0,0-.33-.51.59.59,0,0,0-.54-.12,1.18,1.18,0,0,0-.53.45l-.71,1Zm1,5.29-.78-.22a2.24,2.24,0,0,1,.32,1.06,2.54,2.54,0,0,1-.26,1.13,2.71,2.71,0,0,1-.66.93,2.54,2.54,0,0,1-1,.55,3,3,0,0,1-1.2.14,4.1,4.1,0,0,1-1.27-.35,3.41,3.41,0,0,1-1.86-1.81,3,3,0,0,1,.12-2.49A2.91,2.91,0,0,1,14,31.91a2.48,2.48,0,0,1,1.77-.19l-.63,1.39a1.23,1.23,0,0,0-.75.17,1.4,1.4,0,0,0-.5.61,1.33,1.33,0,0,0,.05,1.24,2.34,2.34,0,0,0,1.17,1,2.24,2.24,0,0,0,1.48.22,1.33,1.33,0,0,0,.94-.79,1.44,1.44,0,0,0,.13-1,1.25,1.25,0,0,0-.53-.74l-.58,1.26-1.08-.49,1.16-2.55,3.09,1.4ZM15.61,47.66l-6.16-.82.22-1.7,2.18-.9,1.05-.41,1-.35-1.31-.12-1.08-.13L10,43l.2-1.52,6.17.81L16.09,44,13.85,45,13,45.3c-.33.13-.68.27-1.06.4.41,0,.78,0,1.13.09s.65.06.92.1l1.86.24Zm-.09,2.16-.79.18a2.27,2.27,0,0,1,.79.78,2.54,2.54,0,0,1,.32,1.11A2.84,2.84,0,0,1,15.71,53a2.54,2.54,0,0,1-.58.95,3,3,0,0,1-1,.7,3.75,3.75,0,0,1-1.28.3,3.39,3.39,0,0,1-2.5-.68,3.05,3.05,0,0,1-1.1-2.24,3,3,0,0,1,.41-1.84,2.48,2.48,0,0,1,1.47-1l.11,1.52a1.19,1.19,0,0,0-.57.51,1.4,1.4,0,0,0-.15.78,1.36,1.36,0,0,0,.64,1.06,2.48,2.48,0,0,0,1.51.31,2.28,2.28,0,0,0,1.4-.53,1.35,1.35,0,0,0,.45-1.15,1.52,1.52,0,0,0-.35-.9,1.32,1.32,0,0,0-.83-.39l.11,1.38-1.19.09-.21-2.79,3.38-.26Z"/><path class="cls-6" d="M45.94,59.37a20.62,20.62,0,0,1-3.51.3c-3.51,0-6.74-.84-9.32-3.31a12.88,12.88,0,0,1-3.51-9.31c0-7.92,5.7-12.9,13.5-12.9a15.65,15.65,0,0,1,6.19,1.16l.57.28L48.7,39.5l-.78-.35A11.69,11.69,0,0,0,43,38.2c-5.4,0-8.71,3.31-8.71,8.71s3,8.75,8.32,8.75a12.4,12.4,0,0,0,3.3-.38V49.51H41.16V45.57h6.28v0h2.92l10.69,13-.32-18.13h4.38v25H60.93L50.1,52.26l.22,13.25H45.94Z"/><path class="cls-6" d="M46.69,55.78a9.89,9.89,0,0,1-4,.63c-5.48,0-9.08-3.53-9.08-9.5S37.3,37.45,43,37.45a12.2,12.2,0,0,1,5.2,1L49,36A14.68,14.68,0,0,0,43.1,34.9c-7.89,0-12.71,5.13-12.75,12.15a12.1,12.1,0,0,0,3.28,8.76c2.31,2.2,5.24,3.11,8.8,3.11a20.7,20.7,0,0,0,4.26-.45Z"/><rect class="cls-3" x="41.91" y="46.32" width="4.78" height="2.44"/><polygon class="cls-6" points="49.55 64.75 49.31 50.11 61.28 64.75 64.36 64.75 64.36 41.22 61.49 41.22 61.84 60.74 50.01 46.34 46.69 46.34 46.69 64.75 49.55 64.75"/><path class="cls-7" d="M47.31,69.27s0,.09-.05.13l-.74,1.94-.67-2c-1.6-4.64,3.06-6.07,3.64-10.27l.55-4L51,59A11.53,11.53,0,0,1,51.27,61l.41-3,.93,3.92a11.53,11.53,0,0,1,.31,1.93l.41-3,.93,3.91c.56,2.37.49,4.37-.95,6.39-1,1.38-2.13,2.32-2.76,4l-.16.43h-1.1l-.15-.45a5,5,0,0,1-.18-3l-.06.13-.73,1.94-.68-2a5,5,0,0,1-.18-3"/><path class="cls-2" d="M50.23,59.21C51.6,65,48,65.41,46.56,69.13c-1.46-4.24,3-5.27,3.67-9.92m1.65,2.87c1.37,5.75-2.26,6.2-3.68,9.92C46.74,67.76,51.24,66.73,51.88,62.08ZM53.53,65c1.36,5.75-2.27,6.2-3.68,9.92C48.39,70.63,52.89,69.6,53.53,65Z"/><path class="cls-6" d="M63.05,39.83h0L62.6,40h0l.44-.19,4-1.76c.23-.1.24-.29,0-.4l-1.88-1c-.23-.12-.22-.14,0-.05L68,37.68c.24.09.24.23,0,.32Zm5.74,2.82h0l-.37.23s-.22.09-.81-.91C67.61,42,68.25,42.71,68.79,42.65ZM69.12,38c.25-.09.25-.23,0-.32l-5.76-2.18a1.44,1.44,0,0,0-.87,0l-5.76,2.18c-.24.09-.24.23,0,.32l5.76,2.17a1.44,1.44,0,0,0,.87,0l3.45-1.29.27,2.25a.49.49,0,0,0-.26.43.47.47,0,0,0,.44.45,4,4,0,0,0,.61,1.35,1.76,1.76,0,0,0,1.29-.82,2.08,2.08,0,0,1-1.47-.74.5.5,0,0,0,.08-.27.47.47,0,0,0-.42-.45l-.13-2.36ZM62.2,44.08V42.84l-2.44-1a.51.51,0,0,1-.29-.43V39.86a.2.2,0,0,1,.29-.2l2.83,1.05a1,1,0,0,0,.59,0l2.91-1.06a.21.21,0,0,1,.29.21V41.4a.49.49,0,0,1-.28.42l-2.45,1v1.27Z"/><path class="cls-6" d="M49.83,75.58c-5-6.4-8.82-7.37-12.56-7.91l.45,2.06a16.69,16.69,0,0,1,12.11,5.85c5.89-5,10.41-5,14.82-4.45-.17.64-.35,1.28-.53,1.93-5.45-1.08-10.66-.27-14.29,2.52m0,0c-5.89-5-10.41-5-14.83-4.45.18.64.36,1.28.53,1.93C41,72,46.2,72.79,49.83,75.58c5-6.4,8.82-7.37,12.56-7.91l-.45,2.06a16.66,16.66,0,0,0-12.11,5.85"/></g><path class="cls-3" d="M316.89,50.11V18.61H331.3c3.66,0,6.44.85,8.35,2.53s2.87,4.13,2.87,7.32q0,5-2.82,7.71t-8.15,2.68H325V50.11ZM325,32.5h5.34a4.7,4.7,0,0,0,3.21-.93,3.64,3.64,0,0,0,1-2.87,3.5,3.5,0,0,0-1.08-2.81,4.9,4.9,0,0,0-3.26-.93H325ZM284.39,18.61h7.93V38.27c0,2.17.41,3.71,1.23,4.63a5.23,5.23,0,0,0,4.08,1.38,5.16,5.16,0,0,0,4-1.38c.81-.91,1.22-2.46,1.22-4.63V18.61h8V37.32a21.1,21.1,0,0,1-.76,6.31,9.23,9.23,0,0,1-2.55,4,12.36,12.36,0,0,1-4.33,2.53,18.71,18.71,0,0,1-11.15,0,12.27,12.27,0,0,1-4.33-2.53,9.4,9.4,0,0,1-2.6-4,20.66,20.66,0,0,1-.78-6.28ZM248.1,34.38q0-7.68,4.24-12.14t11.53-4.46q7.29,0,11.58,4.46t4.28,12.14q0,7.66-4.28,12.14T263.87,51q-7.28,0-11.53-4.46C249.52,43.56,248.1,39.5,248.1,34.38Zm8.19,0q0,4.82,2,7.38a6.65,6.65,0,0,0,5.62,2.57,6.73,6.73,0,0,0,5.65-2.57q2-2.57,2-7.38t-2-7.37a6.73,6.73,0,0,0-5.65-2.57A6.64,6.64,0,0,0,258.25,27C256.94,28.71,256.29,31.18,256.29,34.38ZM217.22,50.11V18.61h15.07q6,0,8.82,2.14t2.83,6.63a8.29,8.29,0,0,1-1.2,4.54A9.35,9.35,0,0,1,239,35.1a5.67,5.67,0,0,1,2.92,2.14,10.56,10.56,0,0,1,1,4.79c0,.64.09,1.5.13,2.58q.15,3.81,1.32,4.41v1.09h-8.46a15,15,0,0,1-.71-4.58c0-1.93-.11-3.15-.16-3.66a3.91,3.91,0,0,0-1.24-2.69,4.91,4.91,0,0,0-3.15-.86h-5.38V50.11Zm8-18h6a5.75,5.75,0,0,0,3.57-.9A3.38,3.38,0,0,0,236,28.34a3,3,0,0,0-1.11-2.58,5.64,5.64,0,0,0-3.4-.84h-6.22Zm-18.9,18L205.7,46a11.47,11.47,0,0,1-4.23,3.69,12.71,12.71,0,0,1-5.72,1.21,14.17,14.17,0,0,1-5.65-1.11,13.29,13.29,0,0,1-4.6-3.27,15.16,15.16,0,0,1-3.15-5.24,19.67,19.67,0,0,1-1.06-6.59q0-7.72,4.42-12.38t11.75-4.66a14.59,14.59,0,0,1,9.15,2.78,12.35,12.35,0,0,1,4.56,7.78h-7.71a6.13,6.13,0,0,0-2.35-3.08,6.87,6.87,0,0,0-3.88-1A6.72,6.72,0,0,0,191.62,27a12.13,12.13,0,0,0-2.14,7.47,11.59,11.59,0,0,0,2.11,7.29,6.79,6.79,0,0,0,5.64,2.7A7.36,7.36,0,0,0,201.9,43a6.16,6.16,0,0,0,2.3-4h-7v-6h14.2V50.11Zm-64.48,0V18.61h8.72L156.53,29q1.46,2.52,2.76,5t2.46,4.89c-.12-2.38-.2-4.61-.26-6.69s-.08-3.92-.08-5.5V18.61h7.8v31.5h-8.72l-6.18-10.65q-1.09-1.87-2.38-4.22c-.86-1.57-1.76-3.25-2.71-5.07.15,2.06.27,4,.33,5.74s.11,3.33.11,4.71v9.49Zm-10.87,0L130.35,46a11.31,11.31,0,0,1-4.23,3.69,12.73,12.73,0,0,1-5.73,1.21,14.24,14.24,0,0,1-5.65-1.11,13.25,13.25,0,0,1-4.59-3.27A15,15,0,0,1,107,41.32a19.67,19.67,0,0,1-1.06-6.59q0-7.72,4.41-12.38t11.75-4.66a14.55,14.55,0,0,1,9.15,2.78,12.31,12.31,0,0,1,4.57,7.78h-7.71a6.1,6.1,0,0,0-2.36-3.08,6.84,6.84,0,0,0-3.87-1A6.72,6.72,0,0,0,116.27,27a12.06,12.06,0,0,0-2.14,7.47,11.53,11.53,0,0,0,2.11,7.29,6.78,6.78,0,0,0,5.64,2.7A7.36,7.36,0,0,0,126.55,43a6.16,6.16,0,0,0,2.3-4h-7v-6H136V50.11Z"/><path class="cls-3" d="M309.09,75.07h4.72a3.3,3.3,0,0,0,1,2.47,3.86,3.86,0,0,0,2.67.83,4.45,4.45,0,0,0,2.31-.5,1.54,1.54,0,0,0,.83-1.39,1.69,1.69,0,0,0-.2-.82,1.25,1.25,0,0,0-.55-.54,17.82,17.82,0,0,0-2.61-.9c-1.39-.4-2.56-.8-3.51-1.18a7.35,7.35,0,0,1-3.14-2.17,4.89,4.89,0,0,1-1.08-3.14,5.28,5.28,0,0,1,2.06-4.37,8.81,8.81,0,0,1,5.59-1.62,8.23,8.23,0,0,1,5.48,1.71,5.69,5.69,0,0,1,2,4.61H320a2.83,2.83,0,0,0-.94-2,3.6,3.6,0,0,0-2.28-.63,3.38,3.38,0,0,0-1.92.49,1.42,1.42,0,0,0-.75,1.23c0,.85,1.18,1.66,3.53,2.41l1,.31.2.06a16.69,16.69,0,0,1,4.55,1.92,5,5,0,0,1,1.4,1.78,5.61,5.61,0,0,1-1.71,6.72A10.25,10.25,0,0,1,317,82a8.34,8.34,0,0,1-5.69-1.72,7.17,7.17,0,0,1-2.17-5.18m-16.87,6.37V62.28h14.56v3.91h-9.65v3.39H306v3.83h-8.82v4.11h10v3.92Zm-12.55,0V66.17h-5.49V62.28h15.88v3.89h-5.49V81.44ZM256.06,62.28h4.82v12a4.2,4.2,0,0,0,.75,2.81,3.19,3.19,0,0,0,2.48.84,3.12,3.12,0,0,0,2.45-.84,4.19,4.19,0,0,0,.74-2.81v-12h4.88V73.65a12.8,12.8,0,0,1-.46,3.84,5.56,5.56,0,0,1-1.55,2.42,7.44,7.44,0,0,1-2.64,1.54,11.31,11.31,0,0,1-6.78,0,7.31,7.31,0,0,1-2.63-1.54,5.65,5.65,0,0,1-1.58-2.44,12.35,12.35,0,0,1-.48-3.82ZM243.64,81.44V66.17h-5.49V62.28H254v3.89h-5.49V81.44Zm-12.64,0V62.28h4.91V81.44Zm-12.66,0V66.17h-5.49V62.28h15.88v3.89h-5.48V81.44Zm-23-6.37h4.72a3.34,3.34,0,0,0,1,2.47,3.86,3.86,0,0,0,2.67.83,4.52,4.52,0,0,0,2.32-.5,1.55,1.55,0,0,0,.82-1.39,1.69,1.69,0,0,0-.2-.82,1.28,1.28,0,0,0-.54-.54,18.62,18.62,0,0,0-2.62-.9c-1.39-.4-2.56-.8-3.51-1.18a7.35,7.35,0,0,1-3.14-2.17,4.89,4.89,0,0,1-1.08-3.14,5.28,5.28,0,0,1,2.06-4.37,8.83,8.83,0,0,1,5.59-1.62,8.25,8.25,0,0,1,5.49,1.71,5.72,5.72,0,0,1,2,4.61h-4.62a2.83,2.83,0,0,0-.94-2,3.56,3.56,0,0,0-2.28-.63,3.38,3.38,0,0,0-1.92.49,1.41,1.41,0,0,0-.74,1.23c0,.85,1.17,1.66,3.53,2.41l1,.31.2.06a16.69,16.69,0,0,1,4.55,1.92,5.13,5.13,0,0,1,1.41,1.78,5.65,5.65,0,0,1-1.72,6.72,10.25,10.25,0,0,1-6.15,1.6,8.36,8.36,0,0,1-5.69-1.72A7.17,7.17,0,0,1,195.39,75.07Zm-19.48,6.37V62.28h5.3l3.62,6.29c.59,1,1.15,2,1.67,3.05s1,2,1.5,3c-.07-1.45-.12-2.8-.15-4.07s-.06-2.38-.06-3.34v-4.9h4.75V81.44h-5.3L183.48,75c-.45-.76-.93-1.62-1.45-2.57s-1.07-2-1.65-3.08c.09,1.25.16,2.41.2,3.49s.07,2,.07,2.86v5.78Zm-8.77,0V62.28H172V81.44Zm-21.75,0V62.28h13.76v4h-8.88v4H158v4h-7.7v7.25Zm-22.23-9.57a10.34,10.34,0,0,1,2.58-7.39,10.46,10.46,0,0,1,14.06,0,10.25,10.25,0,0,1,2.61,7.38,10.28,10.28,0,0,1-2.61,7.38,10.46,10.46,0,0,1-14.06,0A10.34,10.34,0,0,1,123.16,71.87Zm5,0a7.25,7.25,0,0,0,1.19,4.49,4,4,0,0,0,3.41,1.56,4.09,4.09,0,0,0,3.44-1.56,7.19,7.19,0,0,0,1.2-4.49,7.18,7.18,0,0,0-1.2-4.48,4.53,4.53,0,0,0-6.85,0A7.25,7.25,0,0,0,128.15,71.87Z"/></g></g></svg>