<svg xmlns="http://www.w3.org/2000/svg" xmlns:xlink="http://www.w3.org/1999/xlink" viewBox="0 0 309.59 88.45"><defs><style>.cls-1{fill:none;}.cls-2,.cls-4{fill:#ffca05;}.cls-2,.cls-7,.cls-8{fill-rule:evenodd;}.cls-3,.cls-8{fill:#fff;}.cls-5{clip-path:url(#clip-path);}.cls-6,.cls-7{fill:#2b2873;}</style><clipPath id="clip-path"><path class="cls-1" d="M71.58,16.87A38.69,38.69,0,1,0,82.91,44.23,38.56,38.56,0,0,0,71.58,16.87"/></clipPath></defs><g id="Layer_2" data-name="Layer 2"><g id="Layer_1-2" data-name="Layer 1"><polygon class="cls-2" points="94.38 0 112.5 0 116.77 0 176.15 0 309.59 0 309.59 88.45 176.15 88.45 116.77 88.45 112.5 88.45 94.38 88.45 88.45 88.45 88.45 0 94.38 0"/><rect class="cls-3" width="88.46" height="88.45"/><path class="cls-4" d="M71.58,16.87A38.69,38.69,0,1,0,82.91,44.23,38.56,38.56,0,0,0,71.58,16.87"/><g class="cls-5"><path class="cls-6" d="M72.65,65.46l-2.78-2,.54-.77,1.3.13.61.07.59.09-.61-.4c-.19-.12-.35-.24-.49-.34l-.71-.5.49-.69,2.79,2-.55.77-1.34-.12L72,63.63l-.62-.08.53.33.42.29.84.6Zm-3.81,1.92a1.78,1.78,0,0,1-.68-1.22,1.85,1.85,0,0,1,1.65-1.88,1.81,1.81,0,0,1,1.3.52A1.8,1.8,0,0,1,71.79,66a1.85,1.85,0,0,1-1.65,1.88A1.81,1.81,0,0,1,68.84,67.38Zm.59-.67a1.33,1.33,0,0,0,.74.37.69.69,0,0,0,.61-.27.72.72,0,0,0,.2-.65,1.27,1.27,0,0,0-.46-.69,1.33,1.33,0,0,0-.74-.37.75.75,0,0,0-.62.28A.72.72,0,0,0,69,66,1.27,1.27,0,0,0,69.43,66.71Zm-.31,2.81-2.47-2.36.6-.64,2.48,2.37Zm-3.3,1.42.65-.55a.6.6,0,0,0,.41.23.69.69,0,0,0,.46-.2.75.75,0,0,0,.26-.33.28.28,0,0,0,0-.29.2.2,0,0,0-.12-.08.23.23,0,0,0-.14,0,4.14,4.14,0,0,0-.46.19l-.61.24a1.38,1.38,0,0,1-.68.07.86.86,0,0,1-.51-.31.91.91,0,0,1-.22-.83,1.61,1.61,0,0,1,.57-.87,1.49,1.49,0,0,1,.94-.4,1,1,0,0,1,.81.4l-.62.53a.53.53,0,0,0-.36-.16.62.62,0,0,0-.39.18.64.64,0,0,0-.2.28.26.26,0,0,0,0,.26c.1.11.35.09.76-.08l.17-.07,0,0a3.12,3.12,0,0,1,.84-.26.87.87,0,0,1,.4.08,1,1,0,0,1,.33.25.92.92,0,0,1,.21.86,1.75,1.75,0,0,1-.65.93,1.45,1.45,0,0,1-1,.42A1.26,1.26,0,0,1,65.82,70.94Zm-2.6,1.92.69-.48a.63.63,0,0,0,.39.26.75.75,0,0,0,.48-.16.73.73,0,0,0,.28-.31.28.28,0,0,0,0-.29.35.35,0,0,0-.11-.1.23.23,0,0,0-.14,0,4,4,0,0,0-.47.14c-.25.08-.46.15-.64.19a1.31,1.31,0,0,1-.68,0,.88.88,0,0,1-.48-.35.93.93,0,0,1-.15-.85,1.57,1.57,0,0,1,.65-.81,1.48,1.48,0,0,1,1-.32,1,1,0,0,1,.77.46l-.67.48a.52.52,0,0,0-.34-.19.75.75,0,0,0-.63.41.26.26,0,0,0,0,.26c.09.12.34.12.77,0l.17-.06h0a2.88,2.88,0,0,1,.86-.19.94.94,0,0,1,.38.11,1,1,0,0,1,.31.28.94.94,0,0,1,.14.88,1.91,1.91,0,0,1-.73.87,1.48,1.48,0,0,1-1,.33A1.25,1.25,0,0,1,63.22,72.86Zm-.53,1.68-1.84-2.89.74-.47,1.84,2.89ZM58.8,76.61l-1.53-3.06L58.35,73,59.5,74.3l.28.33A3.75,3.75,0,0,1,60,75c0-.14-.07-.28-.1-.44s-.07-.32-.11-.49l-.32-1.6,1.07-.54L62.12,75l-.72.36L60.72,74c0-.09-.11-.23-.19-.4s-.18-.38-.28-.61l.59,2.65-.77.39-1.76-2.07.39.72c.11.22.2.38.26.51l.56,1.11Zm-4.59,1.71-1.12-3.23,1.55-.54a1.59,1.59,0,0,1,1-.09.81.81,0,0,1,.52.58.8.8,0,0,1,0,.5,1,1,0,0,1-.27.46.71.71,0,0,1,.38.12,1.07,1.07,0,0,1,.27.46l.1.26c.1.25.2.39.29.4l0,.11-.87.31a1.55,1.55,0,0,1-.23-.45c-.08-.2-.12-.32-.15-.37a.41.41,0,0,0-.22-.23.48.48,0,0,0-.35,0l-.56.19L55,78Zm.18-2.13L55,76a.61.61,0,0,0,.33-.22.34.34,0,0,0,0-.33.33.33,0,0,0-.21-.23.59.59,0,0,0-.38,0l-.63.22ZM50,75.79l.84-.19.48,2.08a.71.71,0,0,0,.24.46.53.53,0,0,0,.46,0,.6.6,0,0,0,.4-.25.74.74,0,0,0,0-.52L52,75.34l.85-.19.46,2a2.26,2.26,0,0,1,.07.68,1,1,0,0,1-.17.49,1.29,1.29,0,0,1-.4.37,1.94,1.94,0,0,1-1.18.27,1.37,1.37,0,0,1-.52-.16,1.06,1.06,0,0,1-.37-.36,2.48,2.48,0,0,1-.24-.65ZM46.66,78a1.8,1.8,0,0,1,.3-1.36,1.87,1.87,0,0,1,2.49-.3,1.77,1.77,0,0,1,.62,1.25,1.8,1.8,0,0,1-.3,1.36,1.69,1.69,0,0,1-1.19.64,1.67,1.67,0,0,1-1.3-.33A1.84,1.84,0,0,1,46.66,78Zm.89-.1a1.33,1.33,0,0,0,.3.77.76.76,0,0,0,.64.2.73.73,0,0,0,.58-.35,1.62,1.62,0,0,0-.2-1.59.71.71,0,0,0-.64-.21.75.75,0,0,0-.57.35A1.27,1.27,0,0,0,47.55,77.85ZM42,79.66l.1-3.42.95,0,.61,1.15.29.55.25.54c0-.26,0-.5,0-.73s0-.42,0-.6l0-.87.84,0-.1,3.43-1,0-.63-1.18c-.08-.14-.16-.29-.25-.47l-.28-.55c0,.22,0,.43,0,.62v.51l0,1Zm-3.73-2.14a1.81,1.81,0,0,1,.62-1.25,1.59,1.59,0,0,1,1.3-.33,1.65,1.65,0,0,1,1.19.63A2.11,2.11,0,0,1,41,79.19a1.69,1.69,0,0,1-1.31.33,1.64,1.64,0,0,1-1.18-.63A1.82,1.82,0,0,1,38.23,77.52Zm.88.11a1.3,1.3,0,0,0,.12.82.81.81,0,0,0,1.21.15,1.27,1.27,0,0,0,.31-.77,1.3,1.3,0,0,0-.11-.82.74.74,0,0,0-.58-.35.69.69,0,0,0-.64.2A1.3,1.3,0,0,0,39.11,77.63Zm-2.48,1.26.78-3.33.85.2-.78,3.33Zm-3-2,.81.23a.57.57,0,0,0,0,.47.65.65,0,0,0,.41.28.92.92,0,0,0,.43,0,.28.28,0,0,0,.21-.2.38.38,0,0,0,0-.15.19.19,0,0,0-.07-.12,3.06,3.06,0,0,0-.4-.28l-.55-.37a1.34,1.34,0,0,1-.44-.53.85.85,0,0,1,0-.59,1,1,0,0,1,.57-.65,1.56,1.56,0,0,1,1,0,1.49,1.49,0,0,1,.87.56,1,1,0,0,1,.12.89l-.79-.22a.5.5,0,0,0-.07-.39.64.64,0,0,0-.36-.22.6.6,0,0,0-.35,0c-.1,0-.17.09-.19.18s.12.34.49.59a.76.76,0,0,1,.15.1l0,0a3.66,3.66,0,0,1,.7.54,1,1,0,0,1,.15.38,1,1,0,0,1,0,.41.92.92,0,0,1-.59.66,1.82,1.82,0,0,1-1.13,0,1.5,1.5,0,0,1-.9-.57A1.27,1.27,0,0,1,33.62,76.92Zm-3-1.14.78.31a.62.62,0,0,0,0,.48.7.7,0,0,0,.39.31.76.76,0,0,0,.42.07.26.26,0,0,0,.23-.17.39.39,0,0,0,0-.15.31.31,0,0,0-.06-.13,3.4,3.4,0,0,0-.37-.32,6.29,6.29,0,0,1-.5-.43,1.24,1.24,0,0,1-.38-.57.86.86,0,0,1,0-.59A1,1,0,0,1,31.8,74a1.59,1.59,0,0,1,1,.11,1.43,1.43,0,0,1,.8.64,1,1,0,0,1,0,.9l-.76-.3a.53.53,0,0,0,0-.4.63.63,0,0,0-.33-.25.68.68,0,0,0-.36,0,.24.24,0,0,0-.2.16q-.09.21.42.63l.15.12,0,0a3.22,3.22,0,0,1,.63.62.89.89,0,0,1,.12.39,1,1,0,0,1-.07.41,1,1,0,0,1-.66.59,1.88,1.88,0,0,1-1.13-.14,1.52,1.52,0,0,1-.83-.67A1.27,1.27,0,0,1,30.62,75.78Zm-1-3,.85.44L30,76.81l-.84-.42.1-.65-1-.52-.46.47L27,75.28Zm-.87,1.9.67.34.19-1.23Zm-4-.81L26.58,71l1.31.85a1.38,1.38,0,0,1,.62.72,1.06,1.06,0,0,1-.17.84,1.1,1.1,0,0,1-.72.54,1.25,1.25,0,0,1-.9-.24l-.6-.38-.66,1Zm1.78-1.12.49.31a.5.5,0,0,0,.34.11.46.46,0,0,0,.27-.2.4.4,0,0,0,.07-.32.5.5,0,0,0-.25-.28l-.48-.31ZM20.79,71l2.1-2.7,1.29,1a1.58,1.58,0,0,1,.61.78.82.82,0,0,1-.2.75.84.84,0,0,1-.4.31.94.94,0,0,1-.53,0,.66.66,0,0,1,.1.38,1.12,1.12,0,0,1-.23.48l-.16.23c-.16.22-.22.38-.18.47l-.08.09-.72-.56a1.63,1.63,0,0,1,.24-.44,3.68,3.68,0,0,0,.23-.33.43.43,0,0,0,.08-.31.62.62,0,0,0-.22-.29l-.46-.36-.79,1Zm1.89-1,.51.4a.61.61,0,0,0,.37.16.36.36,0,0,0,.29-.17.32.32,0,0,0,.07-.29.55.55,0,0,0-.23-.3l-.54-.42ZM20.62,66l.63.59-1.48,1.55a.74.74,0,0,0-.25.45.55.55,0,0,0,.21.42.57.57,0,0,0,.42.19A.76.76,0,0,0,20.6,69l1.47-1.54.63.6-1.4,1.47a2.29,2.29,0,0,1-.54.43,1,1,0,0,1-.49.13,1.38,1.38,0,0,1-.53-.13,1.92,1.92,0,0,1-.88-.84,1.24,1.24,0,0,1-.15-.52,1,1,0,0,1,.1-.51,2,2,0,0,1,.41-.55Zm-3.51-1.64a1.8,1.8,0,0,1,1.32-.46,1.62,1.62,0,0,1,1.15.69,1.64,1.64,0,0,1,.4,1.28,1.82,1.82,0,0,1-.75,1.19,1.85,1.85,0,0,1-1.32.45,1.68,1.68,0,0,1-1.16-.69,1.66,1.66,0,0,1-.4-1.29A1.84,1.84,0,0,1,17.11,64.38Zm.55.7a1.24,1.24,0,0,0-.5.66.7.7,0,0,0,.16.65.72.72,0,0,0,.6.31,1.27,1.27,0,0,0,.76-.33,1.22,1.22,0,0,0,.49-.66.72.72,0,0,0-.16-.66.71.71,0,0,0-.59-.3A1.23,1.23,0,0,0,17.66,65.08ZM14.55,63.7,15.64,63l1.16-2.15.53.83L16.51,63l1.5-.22.53.84-2.44.14L15,64.42Z"/><path class="cls-6" d="M55.73,68.78a.83.83,0,0,1-.43-.08A.88.88,0,0,1,55,67.64a1.4,1.4,0,0,1,.66-.6,1.36,1.36,0,0,1,.88-.18.79.79,0,0,1,.57.46.67.67,0,0,1,.09.42.69.69,0,0,1-.18.39.84.84,0,0,1,.51.08,1,1,0,0,1,.35.39,1,1,0,0,1,.06.85,1.47,1.47,0,0,1-.71.68,1.43,1.43,0,0,1-1,.17,1,1,0,0,1-.65-.55.8.8,0,0,1,.13-1m0-.69a.36.36,0,0,0,.53.16.41.41,0,0,0,.21-.22.37.37,0,0,0,0-.3.38.38,0,0,0-.22-.21.39.39,0,0,0-.31,0,.38.38,0,0,0-.21.22A.39.39,0,0,0,55.74,68.09Zm.58,1.28a.48.48,0,0,0,.26.25.43.43,0,0,0,.36,0,.41.41,0,0,0,.24-.26.47.47,0,0,0,0-.36.5.5,0,0,0-.27-.25.43.43,0,0,0-.36,0,.47.47,0,0,0-.24.26A.52.52,0,0,0,56.32,69.37Zm-3.66.76a2.15,2.15,0,0,1-.13-1.33,1.26,1.26,0,0,1,1.8-.64,2.85,2.85,0,0,1,.87,2.45,1.13,1.13,0,0,1-.76.73,1.11,1.11,0,0,1-1-.09A2.19,2.19,0,0,1,52.66,70.13Zm.8-.28a2.84,2.84,0,0,0,.38.77.32.32,0,0,0,.39.13.34.34,0,0,0,.23-.35,2.68,2.68,0,0,0-.2-.84,2.36,2.36,0,0,0-.38-.77.34.34,0,0,0-.39-.13.32.32,0,0,0-.22.34,2.2,2.2,0,0,0,.18.8ZM49.84,71a2.22,2.22,0,0,1-.07-1.33,1.26,1.26,0,0,1,1.83-.56,2.23,2.23,0,0,1,.68,1.15,2.17,2.17,0,0,1,.07,1.34,1.11,1.11,0,0,1-.79.69,1.08,1.08,0,0,1-1-.14A2.18,2.18,0,0,1,49.84,71Zm.81-.25a2.83,2.83,0,0,0,.35.8.33.33,0,0,0,.62-.2,2.3,2.3,0,0,0-.15-.84,2.93,2.93,0,0,0-.34-.79.36.36,0,0,0-.39-.15.32.32,0,0,0-.24.33,2.25,2.25,0,0,0,.14.81ZM47.33,73a1.81,1.81,0,0,1,.08-.71,2,2,0,0,1,.41-.64l.29-.28.28-.27a1.08,1.08,0,0,0,.2-.31.63.63,0,0,0,0-.3.45.45,0,0,0-.16-.31.36.36,0,0,0-.31-.07.37.37,0,0,0-.31.2.77.77,0,0,0,0,.47l-.76.11a1.21,1.21,0,0,1,.2-.95,1.16,1.16,0,0,1,.82-.47,1.33,1.33,0,0,1,.92.16,1.08,1.08,0,0,1,.42,1.2,1.68,1.68,0,0,1-.29.51c-.08.09-.21.23-.39.4a3.36,3.36,0,0,0-.4.44l1.33-.2.1.66Zm-4.8.14,0-3.43,2.6,0v.69l-1.72,0V71L45,71v.68l-1.58,0v.74l1.78,0v.7ZM42,71.86a1.52,1.52,0,0,1-.61.88,1.49,1.49,0,0,1-1.06.2,1.59,1.59,0,0,1-1.14-.64,2.1,2.1,0,0,1,.36-2.6,1.65,1.65,0,0,1,1.3-.32,1.46,1.46,0,0,1,1,.46,1.28,1.28,0,0,1,.33.94l-.82-.11a.62.62,0,0,0-.18-.39.68.68,0,0,0-.42-.18.64.64,0,0,0-.61.21,1.3,1.3,0,0,0-.32.76,1.34,1.34,0,0,0,.1.8.68.68,0,0,0,.53.35.82.82,0,0,0,.48-.08.64.64,0,0,0,.28-.39Zm-6.9-.21L36,68.36l.91.26.32,1.26c.05.2.1.4.14.6s.08.4.11.59c.06-.25.12-.49.17-.71s.11-.41.16-.58l.23-.84.82.23-.94,3.3L37,72.21l-.33-1.3q-.06-.22-.12-.51c0-.19-.09-.39-.13-.61,0,.22-.09.42-.14.61a3.8,3.8,0,0,1-.13.49l-.28,1ZM33.41,71l1.23-3.2.82.32-1.24,3.19Zm-2.79-2.57.76.37a.58.58,0,0,0-.05.47.68.68,0,0,0,.36.35.79.79,0,0,0,.41.1.26.26,0,0,0,.24-.15.28.28,0,0,0,0-.15.21.21,0,0,0-.05-.13A2.37,2.37,0,0,0,32,69c-.19-.18-.35-.33-.47-.47a1.29,1.29,0,0,1-.33-.6A1,1,0,0,1,32,66.77,1.58,1.58,0,0,1,33,67a1.43,1.43,0,0,1,.74.71,1,1,0,0,1,0,.9l-.74-.37a.48.48,0,0,0,0-.39.66.66,0,0,0-.32-.29.63.63,0,0,0-.34-.07.25.25,0,0,0-.22.14c-.07.13.06.36.37.66l.13.13,0,0a2.91,2.91,0,0,1,.57.67.92.92,0,0,1,.09.39,1,1,0,0,1-.11.4.91.91,0,0,1-.7.54,1.85,1.85,0,0,1-1.11-.23,1.55,1.55,0,0,1-.78-.73A1.31,1.31,0,0,1,30.62,68.45Z"/><path class="cls-7" d="M52.92,17.87A27.75,27.75,0,0,1,60.5,66.71l-.65-.89a26.65,26.65,0,0,0-7.27-46.91ZM27.56,66.42a27.83,27.83,0,0,1-8.17-9.81A27.75,27.75,0,0,1,35.54,17.87l.34,1a26.65,26.65,0,0,0-7.66,46.63Z"/><path class="cls-7" d="M49.09,16.14l.44.88,1,.15-.71.69.17,1-.88-.47-.88.47.17-1-.71-.69,1-.15Zm-9.72,0,.43.88,1,.15-.71.69.16,1-.87-.47-.88.47.17-1L38,17.17l1-.15Zm4.86-1.42.66,1.34,1.47.21-1.07,1,.26,1.47-1.32-.69-1.32.69.25-1.47-1.07-1,1.48-.21Z"/><path class="cls-8" d="M44.23,21.37A22.86,22.86,0,1,1,21.37,44.23,22.85,22.85,0,0,1,44.23,21.37"/><path class="cls-8" d="M44.23,24.89l.7,1.42,1.56.22-1.13,1.11.27,1.56-1.4-.74-1.4.74.26-1.56L42,26.53l1.57-.22Zm5.16,1.25.47.94,1,.15-.76.74.18,1-.93-.49-.93.49.18-1-.76-.74,1-.15Zm-10.32,0,.46.94,1,.15-.75.74L40,29l-.93-.49-.94.49.18-1-.75-.74,1-.15Z"/><path class="cls-7" d="M44.23,23a21.24,21.24,0,0,1,15,36.27q-.39.41-.81.78l-.59-.59c.28-.25.55-.51.82-.77a20.42,20.42,0,1,0-28.88,0c.26.26.54.52.82.77L30,60c-.28-.25-.55-.51-.82-.78A21.25,21.25,0,0,1,44.23,23"/><path class="cls-6" d="M76.54,44.08l-.1,1.36a1,1,0,0,0-.73.22,1.08,1.08,0,0,0-.3.75,1.37,1.37,0,0,0,.09.68.44.44,0,0,0,.38.26.38.38,0,0,0,.24,0,.34.34,0,0,0,.17-.14,5.73,5.73,0,0,0,.32-.73,10.38,10.38,0,0,1,.41-1,2.22,2.22,0,0,1,.69-.85,1.39,1.39,0,0,1,.93-.24,1.52,1.52,0,0,1,1.21.69,2.53,2.53,0,0,1,.34,1.64,2.33,2.33,0,0,1-.61,1.53,1.63,1.63,0,0,1-1.37.49l.1-1.33a.78.78,0,0,0,.59-.23,1,1,0,0,0,.23-.64A1,1,0,0,0,79,46a.43.43,0,0,0-.34-.24c-.25,0-.5.3-.77,1-.05.12-.09.21-.11.28l0,0a5.42,5.42,0,0,1-.65,1.27,1.6,1.6,0,0,1-.54.36,1.62,1.62,0,0,1-1.9-.64,3,3,0,0,1-.32-1.8A2.4,2.4,0,0,1,75,44.6a2.11,2.11,0,0,1,1.54-.52m-2.35-5,5.47-.73.55,4.16-1.12.15-.36-2.76-1,.13.33,2.52L77,42.72l-.34-2.52-1.17.16.38,2.84-1.12.15Zm-.83-3.52,4.22-1.22-.43-1.52,1.07-.3,1.27,4.39-1.08.31L78,35.73,73.75,37ZM75.85,27l.57,1.26L73.28,29.7a1.25,1.25,0,0,0-.65.53.94.94,0,0,0,.08.75.9.9,0,0,0,.51.55,1.3,1.3,0,0,0,.83-.14L77.18,30l.58,1.28-3,1.35a3.62,3.62,0,0,1-1.07.33,1.59,1.59,0,0,1-.81-.12,2.25,2.25,0,0,1-.72-.51,3.31,3.31,0,0,1-.81-1.78,2.31,2.31,0,0,1,.1-.87,1.63,1.63,0,0,1,.45-.71,3.56,3.56,0,0,1,.94-.57Zm-7.07-.68,3.59-2.54-.91-1.29.92-.65L75,25.6l-.91.65L73.19,25l-3.6,2.53Zm-2.3-2.82,4.18-3.61L71.58,21l-4.17,3.61ZM63.82,21l2.88-3.33-1.2-1,.73-.85,3.47,3-.74.85-1.19-1-2.88,3.32Zm-4.45-5.31,1.15.72a.93.93,0,0,0-.14.75,1.07,1.07,0,0,0,.52.61,1.34,1.34,0,0,0,.64.24.45.45,0,0,0,.42-.22.48.48,0,0,0,.07-.23.3.3,0,0,0-.05-.21,3.65,3.65,0,0,0-.5-.62c-.27-.31-.5-.59-.67-.83a2.07,2.07,0,0,1-.44-1,1.41,1.41,0,0,1,.22-.93,1.5,1.5,0,0,1,1.17-.75,2.55,2.55,0,0,1,1.61.46,2.41,2.41,0,0,1,1.08,1.25,1.66,1.66,0,0,1-.21,1.44l-1.13-.71a.78.78,0,0,0,.08-.62,1.09,1.09,0,0,0-.46-.51,1.06,1.06,0,0,0-.55-.17.42.42,0,0,0-.37.19c-.13.21,0,.58.5,1.13l.19.22,0,.05a4.71,4.71,0,0,1,.82,1.16,1.31,1.31,0,0,1,.07.65,1.5,1.5,0,0,1-.22.62,1.52,1.52,0,0,1-1.22.76,3.06,3.06,0,0,1-1.75-.55,2.41,2.41,0,0,1-1.12-1.29A2,2,0,0,1,59.37,15.71Zm-6.17-.58,2-5.14,1.42.55.32,2.07c.05.33.09.66.13,1s.07.64.09,1c.13-.39.26-.76.38-1.1l.34-.91.51-1.31,1.27.49-2,5.14-1.42-.55-.33-2.13q-.06-.37-.12-.84c0-.31-.08-.64-.12-1-.11.35-.21.67-.31,1s-.2.55-.28.77l-.61,1.55Zm-2.47-.57L52,9.18l1.38.31-1.23,5.38Zm-6.91-.71.11-5.51,4,.08,0,1.14-2.56-.05,0,1.14,2.21,0,0,1.14-2.22,0,0,2.08Zm-6.73-2.08a3,3,0,0,1,.46-2.21,3,3,0,0,1,4-.53,2.88,2.88,0,0,1,1,2,2.94,2.94,0,0,1-.46,2.21,2.7,2.7,0,0,1-1.91,1,2.66,2.66,0,0,1-2.1-.51A3,3,0,0,1,37.09,11.77Zm1.42-.19A2.22,2.22,0,0,0,39,12.82a1.32,1.32,0,0,0,2-.26,2.05,2.05,0,0,0,.17-1.33A2,2,0,0,0,40.64,10a1.31,1.31,0,0,0-2,.25A2.19,2.19,0,0,0,38.51,11.58Zm-8,5.39-2-5.14,2.35-.92a2.2,2.2,0,0,1,1.53-.12,1.59,1.59,0,0,1,.93,1,1.77,1.77,0,0,1,0,1.44,2,2,0,0,1-1.16,1l-1.07.42.72,1.83Zm.19-3.39.88-.34a.84.84,0,0,0,.46-.36.65.65,0,0,0,0-.53.59.59,0,0,0-.36-.39.84.84,0,0,0-.59,0l-.86.34Zm-8,1.78,1.17-.75,1.85,2.91a1.2,1.2,0,0,0,.62.57.91.91,0,0,0,.73-.18.87.87,0,0,0,.46-.59,1.18,1.18,0,0,0-.25-.79l-1.85-2.91,1.19-.76,1.75,2.77a3.46,3.46,0,0,1,.48,1,1.43,1.43,0,0,1,0,.82,2.07,2.07,0,0,1-.4.78,3,3,0,0,1-.74.65,2.88,2.88,0,0,1-.91.4,2.18,2.18,0,0,1-.88,0,1.59,1.59,0,0,1-.76-.34,3.67,3.67,0,0,1-.7-.86Zm-3.6,7a3,3,0,0,1-.94-2.05,3,3,0,0,1,2.92-2.8,2.93,2.93,0,0,1,2,1,2.91,2.91,0,0,1,.93,2.05,2.7,2.7,0,0,1-.92,2,2.67,2.67,0,0,1-2,.83A2.93,2.93,0,0,1,19.16,22.37Zm1-1a2,2,0,0,0,1.14.69,1.17,1.17,0,0,0,1-.35,1.18,1.18,0,0,0,.4-1,2.08,2.08,0,0,0-.64-1.18A2.13,2.13,0,0,0,21,18.84a1.2,1.2,0,0,0-1,.36,1.15,1.15,0,0,0-.4,1A2.11,2.11,0,0,0,20.2,21.38Zm-2.26,7.41-4.5-3.19L15,23.45a2.58,2.58,0,0,1,1.2-1.05,1.38,1.38,0,0,1,1.23.27,1.5,1.5,0,0,1,.53.63,1.72,1.72,0,0,1,.07.86,1,1,0,0,1,.6-.2,1.85,1.85,0,0,1,.79.35l.38.24c.37.24.63.33.76.26l.16.11-.86,1.21a2.93,2.93,0,0,1-.73-.37c-.28-.18-.46-.3-.54-.34a.65.65,0,0,0-.51-.1.88.88,0,0,0-.44.36l-.54.77,1.68,1.2Zm-1.76-3,.61-.86a1,1,0,0,0,.23-.6.58.58,0,0,0-.29-.45.52.52,0,0,0-.48-.1,1,1,0,0,0-.47.4l-.63.89Zm.92,4.7-.7-.2a2,2,0,0,1,.28.94,2.25,2.25,0,0,1-.22,1,2.57,2.57,0,0,1-.59.82,2.4,2.4,0,0,1-.85.49A2.74,2.74,0,0,1,14,33.7a3.36,3.36,0,0,1-1.12-.31,3,3,0,0,1-1.66-1.6,2.72,2.72,0,0,1,.11-2.21,2.57,2.57,0,0,1,1.11-1.26A2.15,2.15,0,0,1,14,28.16l-.56,1.23a1,1,0,0,0-.66.15,1.21,1.21,0,0,0-.45.54,1.19,1.19,0,0,0,.05,1.1,2.08,2.08,0,0,0,1,.88,2.08,2.08,0,0,0,1.32.2,1.22,1.22,0,0,0,.84-.71,1.34,1.34,0,0,0,.11-.84,1.07,1.07,0,0,0-.47-.66l-.51,1.12-1-.44,1-2.27,2.73,1.25ZM13.85,42.3l-5.47-.72.2-1.51,1.94-.8.93-.36c.31-.12.61-.22.91-.32l-1.17-.11-1-.11-1.4-.18L9,36.83l5.47.72-.2,1.52-2,.83-.79.31-.94.36,1,.07.82.09L14,41Zm-.07,1.92-.71.16a2,2,0,0,1,.7.69,2.17,2.17,0,0,1,.29,1,2.43,2.43,0,0,1-.12,1,2.16,2.16,0,0,1-.51.84,2.6,2.6,0,0,1-.87.62,3.41,3.41,0,0,1-1.14.27,3,3,0,0,1-2.22-.6,2.75,2.75,0,0,1-1-2,2.51,2.51,0,0,1,.37-1.64,2.19,2.19,0,0,1,1.29-.9L10,45a1.13,1.13,0,0,0-.51.45,1.26,1.26,0,0,0,.44,1.63,2.06,2.06,0,0,0,1.33.28,2,2,0,0,0,1.24-.47,1.18,1.18,0,0,0,.4-1,1.26,1.26,0,0,0-.31-.79,1.06,1.06,0,0,0-.73-.35L12,46l-1,.08-.19-2.48,3-.23Z"/><path class="cls-7" d="M40.78,52.7a19.14,19.14,0,0,1-3.12.27A11.39,11.39,0,0,1,29.39,50a11.39,11.39,0,0,1-3.12-8.26c0-7,5.07-11.45,12-11.45a13.79,13.79,0,0,1,5.5,1l.51.25-1,3.47-.69-.31a10.29,10.29,0,0,0-4.35-.84c-4.79,0-7.73,2.93-7.73,7.73s2.63,7.76,7.39,7.76a10.87,10.87,0,0,0,2.93-.34V44H36.53v-3.5H44.7L54.19,52,53.9,35.92h3.89V58.14H54.08L44.47,46.39l.19,11.75H40.78Z"/><path class="cls-7" d="M41.44,49.51a8.78,8.78,0,0,1-3.59.56c-4.87,0-8.06-3.13-8.06-8.43s3.32-8.4,8.4-8.4a10.78,10.78,0,0,1,4.62.9l.65-2.2a13,13,0,0,0-5.21-1c-7,0-11.28,4.55-11.31,10.78a10.76,10.76,0,0,0,2.91,7.78,10.76,10.76,0,0,0,7.81,2.76,19.14,19.14,0,0,0,3.78-.4Z"/><rect class="cls-6" x="37.2" y="41.11" width="4.25" height="2.17"/><polygon class="cls-7" points="43.98 57.48 43.77 44.48 54.4 57.48 57.12 57.48 57.12 36.59 54.58 36.59 54.89 53.91 44.39 41.13 41.44 41.13 41.44 57.48 43.98 57.48"/><path class="cls-8" d="M42,61.48s0,.08,0,.12l-.66,1.72-.6-1.74c-1.41-4.12,2.72-5.38,3.24-9.12l.48-3.53.83,3.47a11.11,11.11,0,0,1,.27,1.72l.36-2.65L46.7,55A9.77,9.77,0,0,1,47,56.66L47.33,54l.83,3.47a6.4,6.4,0,0,1-.84,5.67c-.88,1.22-1.89,2.06-2.45,3.53l-.15.39h-1l-.13-.41A4.46,4.46,0,0,1,43.45,64l0,.12-.66,1.72-.6-1.74A4.48,4.48,0,0,1,42,61.48"/><path class="cls-2" d="M44.59,52.55c1.21,5.11-2,5.51-3.27,8.81C40,57.6,44,56.68,44.59,52.55m1.46,2.55c1.21,5.11-2,5.5-3.27,8.81C41.49,60.14,45.48,59.23,46.05,55.1Zm1.46,2.55c1.21,5.11-2,5.5-3.26,8.81C43,62.69,46.94,61.77,47.51,57.65Z"/><path class="cls-7" d="M56,35.35h0l-.4.15h0l.39-.17,3.55-1.56c.21-.09.22-.25,0-.36l-1.67-.86c-.2-.11-.19-.13,0,0l2.49.94c.22.08.22.21,0,.29Zm5.1,2.51h0l-.33.2s-.2.08-.72-.8C60,37.26,60.58,37.91,61.06,37.86Zm.29-4.14c.22-.08.22-.21,0-.29L56.24,31.5a1.3,1.3,0,0,0-.78,0l-5.11,1.93c-.21.08-.21.21,0,.29l5.11,1.92a1.3,1.3,0,0,0,.78,0L59.3,34.5l.24,2a.44.44,0,0,0-.23.39.43.43,0,0,0,.39.4,3.17,3.17,0,0,0,.54,1.19,1.55,1.55,0,0,0,1.15-.72,1.84,1.84,0,0,1-1.31-.66.4.4,0,0,0,.07-.24.43.43,0,0,0-.37-.4l-.11-2.09Zm-6.14,5.41V38L53,37.13a.46.46,0,0,1-.26-.39V35.38A.18.18,0,0,1,53,35.2l2.52.93a.81.81,0,0,0,.51,0l2.59-.93a.18.18,0,0,1,.26.18v1.36a.42.42,0,0,1-.25.38L56.49,38v1.13Z"/><path class="cls-7" d="M44.23,67.08c-4.43-5.67-7.83-6.54-11.15-7,.13.61.27,1.22.4,1.83a14.84,14.84,0,0,1,10.75,5.19c5.22-4.45,9.24-4.39,13.16-3.95-.16.57-.32,1.14-.47,1.72-4.84-1-9.47-.24-12.69,2.23m0,0C39,62.63,35,62.69,31.07,63.13c.16.57.31,1.14.47,1.72,4.84-1,9.47-.24,12.69,2.23,4.43-5.67,7.83-6.54,11.15-7-.14.61-.27,1.22-.4,1.83a14.84,14.84,0,0,0-10.75,5.19"/></g><path class="cls-6" d="M281.27,44.48v-28h12.79q4.86,0,7.41,2.25A8.18,8.18,0,0,1,304,25.26c0,3-.84,5.26-2.51,6.84s-4.09,2.38-7.23,2.38h-5.82v10Zm7.19-15.64h4.75a4.18,4.18,0,0,0,2.85-.82,3.23,3.23,0,0,0,.92-2.55A3.1,3.1,0,0,0,296,23a4.33,4.33,0,0,0-2.89-.82h-4.67Zm-36-12.32h7V34a6.15,6.15,0,0,0,1.09,4.11,4.66,4.66,0,0,0,3.62,1.23,4.56,4.56,0,0,0,3.58-1.23A6.17,6.17,0,0,0,268.83,34V16.52H276v16.6a18.74,18.74,0,0,1-.68,5.6A8.08,8.08,0,0,1,273,42.25a10.65,10.65,0,0,1-3.84,2.25,16.5,16.5,0,0,1-9.9,0,10.82,10.82,0,0,1-3.84-2.25,8.32,8.32,0,0,1-2.3-3.55,18,18,0,0,1-.7-5.58Zm-32.21,14q0-6.82,3.77-10.78t10.23-4q6.47,0,10.27,4t3.81,10.78q0,6.79-3.81,10.77t-10.27,4c-4.31,0-7.72-1.33-10.23-4S220.21,35.06,220.21,30.52Zm7.27,0a10.64,10.64,0,0,0,1.74,6.55,5.89,5.89,0,0,0,5,2.27,6,6,0,0,0,5-2.27A10.58,10.58,0,0,0,241,30.52,10.54,10.54,0,0,0,239.22,24a6.62,6.62,0,0,0-10,0Q227.48,26.24,227.48,30.52Zm-34.68,14v-28h13.38q5.31,0,7.83,1.9c1.68,1.26,2.51,3.22,2.51,5.88a7.28,7.28,0,0,1-1.07,4,8.13,8.13,0,0,1-3.33,2.82,5,5,0,0,1,2.59,1.91,9.27,9.27,0,0,1,.88,4.24c0,.57.08,1.34.12,2.3.09,2.25.48,3.56,1.16,3.91v1h-7.5a13,13,0,0,1-.63-4.07c-.05-1.71-.1-2.8-.15-3.24a3.44,3.44,0,0,0-1.1-2.4A4.38,4.38,0,0,0,204.7,34h-4.78V44.48Zm7.12-16h5.33a5.17,5.17,0,0,0,3.18-.79,3,3,0,0,0,1-2.54,2.69,2.69,0,0,0-1-2.29,5,5,0,0,0-3-.75h-5.52Zm-16.77,16-.57-3.62a10.13,10.13,0,0,1-3.75,3.28,11.32,11.32,0,0,1-5.09,1.08,12.55,12.55,0,0,1-5-1,11.87,11.87,0,0,1-4.08-2.9,13.29,13.29,0,0,1-2.79-4.66,17.41,17.41,0,0,1-1-5.84q0-6.85,3.92-11a13.71,13.71,0,0,1,10.43-4.13,12.93,12.93,0,0,1,8.12,2.47,11,11,0,0,1,4.05,6.9h-6.84a5.51,5.51,0,0,0-2.09-2.73,6.11,6.11,0,0,0-3.44-.92,6,6,0,0,0-5,2.5,10.77,10.77,0,0,0-1.9,6.64A10.23,10.23,0,0,0,170.06,37a6,6,0,0,0,5,2.4,6.58,6.58,0,0,0,4.15-1.27,5.54,5.54,0,0,0,2-3.55H175V29.23h12.61V44.48Zm-57.23,0v-28h7.74l5.27,9.18q1.29,2.25,2.45,4.45c.77,1.46,1.51,2.91,2.19,4.34-.11-2.11-.18-4.09-.23-5.94s-.08-3.47-.08-4.88V16.52h6.92v28h-7.73L137,35c-.65-1.12-1.35-2.37-2.1-3.76s-1.57-2.88-2.42-4.49c.14,1.83.24,3.52.3,5.09s.1,3,.1,4.18v8.43Zm-9.65,0-.57-3.62a10.08,10.08,0,0,1-3.76,3.28,11.25,11.25,0,0,1-5.08,1.08,12.6,12.6,0,0,1-5-1,11.93,11.93,0,0,1-4.07-2.9A13.31,13.31,0,0,1,95,36.67,17.66,17.66,0,0,1,94,30.83Q94,24,98,19.83a13.71,13.71,0,0,1,10.43-4.13,12.87,12.87,0,0,1,8.12,2.47,11,11,0,0,1,4,6.9h-6.84a5.51,5.51,0,0,0-2.09-2.73,6.11,6.11,0,0,0-3.44-.92,6,6,0,0,0-5,2.5,10.79,10.79,0,0,0-1.9,6.64A10.23,10.23,0,0,0,103.17,37a6,6,0,0,0,5,2.4,6.58,6.58,0,0,0,4.15-1.27,5.54,5.54,0,0,0,2-3.55h-6.23V29.23h12.61V44.48Z"/><path class="cls-6" d="M274.35,66.63h4.18a2.93,2.93,0,0,0,.86,2.19,3.37,3.37,0,0,0,2.37.74,4,4,0,0,0,2.05-.44,1.39,1.39,0,0,0,.73-1.24,1.53,1.53,0,0,0-.17-.72,1.13,1.13,0,0,0-.49-.48,15.36,15.36,0,0,0-2.32-.8c-1.23-.36-2.27-.72-3.12-1a6.64,6.64,0,0,1-2.79-1.93,4.34,4.34,0,0,1-.95-2.78,4.68,4.68,0,0,1,1.83-3.88,7.81,7.81,0,0,1,5-1.44,7.32,7.32,0,0,1,4.87,1.52,5.06,5.06,0,0,1,1.8,4.09h-4.09a2.52,2.52,0,0,0-.84-1.76,3.2,3.2,0,0,0-2-.56,3.14,3.14,0,0,0-1.71.43,1.29,1.29,0,0,0-.66,1.1c0,.76,1.05,1.47,3.13,2.14l.87.28.18.05a15.15,15.15,0,0,1,4,1.7,4.4,4.4,0,0,1,1.24,1.58,4.56,4.56,0,0,1,.43,2,4.6,4.6,0,0,1-2,4,9.16,9.16,0,0,1-5.46,1.42,7.42,7.42,0,0,1-5.05-1.53,6.36,6.36,0,0,1-1.92-4.6m-15,5.65v-17H272.3v3.47h-8.57v3h7.82v3.4h-7.82v3.65h8.84v3.47Zm-11.14,0V58.73h-4.87V55.28h14.09v3.45h-4.87V72.28Zm-20.95-17h4.28V65.89a3.76,3.76,0,0,0,.66,2.5,2.81,2.81,0,0,0,2.2.75,2.76,2.76,0,0,0,2.18-.75,3.75,3.75,0,0,0,.66-2.5V55.28h4.33v10.1a11.16,11.16,0,0,1-.42,3.4,4.91,4.91,0,0,1-1.37,2.15,6.63,6.63,0,0,1-2.34,1.37,10.08,10.08,0,0,1-6,0,6.54,6.54,0,0,1-2.34-1.37,5.12,5.12,0,0,1-1.4-2.16,11.18,11.18,0,0,1-.42-3.39Zm-11,17V58.73h-4.87V55.28h14.09v3.45H220.6V72.28Zm-11.21,0v-17h4.35v17Zm-11.24,0V58.73h-4.88V55.28H203v3.45h-4.87V72.28Zm-20.37-5.65h4.18a3,3,0,0,0,.86,2.19,3.37,3.37,0,0,0,2.37.74,4,4,0,0,0,2-.44,1.37,1.37,0,0,0,.73-1.24,1.53,1.53,0,0,0-.17-.72,1.08,1.08,0,0,0-.49-.48,14.93,14.93,0,0,0-2.32-.8c-1.23-.36-2.27-.72-3.12-1a6.54,6.54,0,0,1-2.78-1.93,4.29,4.29,0,0,1-1-2.78,4.68,4.68,0,0,1,1.83-3.88,7.82,7.82,0,0,1,5-1.44,7.32,7.32,0,0,1,4.87,1.52,5.06,5.06,0,0,1,1.8,4.09h-4.09a2.52,2.52,0,0,0-.84-1.76,3.18,3.18,0,0,0-2-.56,3.14,3.14,0,0,0-1.71.43,1.29,1.29,0,0,0-.66,1.1c0,.76,1.05,1.47,3.14,2.14l.86.28.18.05a15,15,0,0,1,4,1.7,4.4,4.4,0,0,1,1.24,1.58,4.56,4.56,0,0,1,.43,2,4.6,4.6,0,0,1-1.95,4,9.13,9.13,0,0,1-5.45,1.42,7.38,7.38,0,0,1-5-1.53A6.33,6.33,0,0,1,173.43,66.63Zm-17.3,5.65v-17h4.71l3.21,5.58c.52.91,1,1.81,1.49,2.71s.91,1.77,1.33,2.64c-.06-1.29-.11-2.49-.14-3.61s0-2.12,0-3V55.28h4.21v17h-4.7l-3.34-5.75c-.39-.67-.82-1.44-1.28-2.28s-.95-1.75-1.47-2.73q.14,1.66.18,3.09t.06,2.55v5.12Zm-7.78,0v-17h4.35v17Zm-19.3,0v-17h12.21V58.8h-7.88v3.52h6.84v3.53h-6.84v6.43Zm-19.73-8.49a9.13,9.13,0,0,1,2.29-6.56,9.28,9.28,0,0,1,12.47,0,9.1,9.1,0,0,1,2.32,6.55,9.08,9.08,0,0,1-2.32,6.55,9.26,9.26,0,0,1-12.47,0A9.13,9.13,0,0,1,109.32,63.79Zm4.42,0a6.47,6.47,0,0,0,1.06,4,3.59,3.59,0,0,0,3,1.38,3.63,3.63,0,0,0,3-1.38,6.4,6.4,0,0,0,1.07-4,6.39,6.39,0,0,0-1.07-4,3.64,3.64,0,0,0-3-1.39,3.59,3.59,0,0,0-3,1.38A6.47,6.47,0,0,0,113.74,63.79Z"/></g></g></svg>