<svg width="90" height="90" viewBox="0 0 90 90" fill="none" xmlns="http://www.w3.org/2000/svg">
<g clip-path="url(#clip0)">
<path d="M81.9141 60.8208H55.5469C51.2385 60.8208 47.4064 62.8985 45 66.1048C42.5936 62.8985 38.7615 60.8208 34.4531 60.8208H8.08594C6.63047 60.8208 5.44922 62.0021 5.44922 63.4575V66.0942H27.5607C33.7293 66.0942 39.866 67.3161 45 70.7384C50.1325 67.317 56.2683 66.0942 62.4393 66.0942H84.5508V63.4575C84.5508 62.0021 83.3695 60.8208 81.9141 60.8208Z" fill="#222052"/>
<path d="M40.0512 80.1755C37.129 77.8303 32.9263 76.6411 27.5599 76.6411H2.63672C1.18055 76.6411 0 75.4606 0 74.0044C0 72.5482 1.18055 71.3677 2.63672 71.3677H27.5599C34.1568 71.3677 39.4701 72.9474 43.3521 76.063C44.3141 76.8352 45.6854 76.8355 46.6479 76.063C50.5299 72.9474 55.8432 71.3677 62.4401 71.3677H87.3633C88.8195 71.3677 90 72.5482 90 74.0044C90 75.4606 88.8195 76.6411 87.3633 76.6411H62.4401C57.0737 76.6411 52.871 77.8303 49.9486 80.1755C47.0772 82.4804 42.9537 82.5052 40.0512 80.1755Z" fill="#222052"/>
<path d="M63.457 34.77V42.3638C63.457 43.3622 62.8928 44.2763 61.9998 44.7227L50.3385 50.5517C49.0465 51.1985 47.8635 52.0317 46.8229 53.0266C45.8033 54.0005 44.1967 54.0005 43.1771 53.0266C42.1365 52.0317 40.9535 51.1985 39.6615 50.5517L28.0002 44.7227C27.1072 44.2763 26.543 43.3622 26.543 42.3638V34.77L42.8273 39.4229C44.2194 39.8211 45.73 39.8357 47.1727 39.4229L63.457 34.77Z" fill="#222052"/>
<path d="M74.0039 31.7573V47.6374C74.0039 49.0929 72.8227 50.2741 71.3672 50.2741C69.9117 50.2741 68.7305 49.0929 68.7305 47.6374V33.2638L74.0039 31.7573Z" fill="#222052"/>
<path d="M44.2757 34.3523L7.36159 23.8054C4.82226 23.08 4.81786 19.4617 7.36159 18.7348L44.2757 8.18794C44.749 8.05259 45.2509 8.05259 45.7243 8.18794L82.6383 18.7348C85.1777 19.4603 85.1821 23.0785 82.6383 23.8054L45.7243 34.3523C45.2528 34.4869 44.751 34.488 44.2757 34.3523Z" fill="#222052"/>
</g>
<defs>
<clipPath id="clip0">
<rect width="90" height="90" fill="white"/>
</clipPath>
</defs>
</svg>
