<svg width="84" height="84" viewBox="0 0 84 84" fill="none" xmlns="http://www.w3.org/2000/svg">
<path d="M69.5625 59.0625C68.5242 59.0625 67.5091 59.3704 66.6458 59.9473C65.7824 60.5242 65.1095 61.3441 64.7121 62.3034C64.3148 63.2627 64.2108 64.3183 64.4134 65.3367C64.616 66.3551 65.116 67.2906 65.8502 68.0248C66.5844 68.759 67.5199 69.2591 68.5383 69.4616C69.5567 69.6642 70.6123 69.5602 71.5716 69.1629C72.5309 68.7655 73.3509 68.0926 73.9277 67.2293C74.5046 66.3659 74.8125 65.3509 74.8125 64.3125C74.8125 62.9201 74.2594 61.5848 73.2748 60.6002C72.2903 59.6156 70.9549 59.0625 69.5625 59.0625ZM69.5625 66.9375C69.0433 66.9375 68.5358 66.7836 68.1041 66.4951C67.6725 66.2067 67.336 65.7967 67.1373 65.317C66.9386 64.8374 66.8867 64.3096 66.9879 63.8004C67.0892 63.2912 67.3392 62.8235 67.7063 62.4563C68.0735 62.0892 68.5412 61.8392 69.0504 61.7379C69.5596 61.6367 70.0874 61.6886 70.5671 61.8873C71.0467 62.086 71.4567 62.4225 71.7451 62.8541C72.0336 63.2858 72.1875 63.7933 72.1875 64.3125C72.1875 65.0087 71.911 65.6764 71.4187 66.1687C70.9264 66.6609 70.2587 66.9375 69.5625 66.9375Z" fill="white"/>
<path d="M80.3775 60.4144L79.4981 60.1912L79.9706 59.4169C80.1208 59.1661 80.1829 58.8725 80.1473 58.5824C80.1116 58.2924 79.9802 58.0225 79.7738 57.8156L76.0594 54.1012C75.8511 53.8972 75.5815 53.7674 75.2921 53.7319C75.0027 53.6963 74.7096 53.7569 74.4581 53.9044L73.6838 54.3769L73.4606 53.4975C73.3903 53.2129 73.2267 52.9601 72.996 52.7794C72.7652 52.5986 72.4806 52.5002 72.1875 52.5H66.9375C66.6444 52.5002 66.3598 52.5986 66.129 52.7794C65.8983 52.9601 65.7347 53.2129 65.6644 53.4975L65.6119 53.6944C65.5794 52.2089 65.0425 50.7786 64.0894 49.6387L65.9925 47.7488C68.2116 48.3515 70.5507 48.3569 72.7726 47.7645C74.9945 47.1722 77.0204 46.0031 78.645 44.3756C80.1301 42.9056 81.2 41.0691 81.7463 39.0522C82.2926 37.0353 82.2958 34.9098 81.7556 32.8912C81.7022 32.6822 81.5974 32.4899 81.4507 32.3318C81.3039 32.1736 81.12 32.0546 80.9156 31.9856C80.7134 31.9189 80.498 31.902 80.2878 31.9363C80.0776 31.9705 79.8787 32.055 79.7081 32.1825L73.1981 37.065L69.2475 33.1144L74.13 26.6044C74.2575 26.4338 74.342 26.2349 74.3762 26.0247C74.4105 25.8145 74.3936 25.5991 74.3269 25.3969C74.2579 25.1925 74.1389 25.0086 73.9808 24.8619C73.8226 24.7151 73.6303 24.6103 73.4213 24.5569C71.4027 24.0167 69.2772 24.0199 67.2603 24.5662C65.2434 25.1125 63.4069 26.1824 61.9369 27.6675C58.4719 31.1325 57.0938 36.4087 58.5244 40.3594L51.6469 47.25H51.6206L47.25 43.9688V40.8975C49.3831 39.9632 51.2299 38.4794 52.602 36.5978C53.974 34.7162 54.822 32.5041 55.0594 30.1875H55.125C56.1683 30.1844 57.168 29.7685 57.9058 29.0308C58.6435 28.293 59.0594 27.2933 59.0625 26.25V24.9375C59.0594 23.8942 58.6435 22.8945 57.9058 22.1567C57.168 21.419 56.1683 21.0031 55.125 21V20.6325C56.336 19.7893 57.326 18.6668 58.0114 17.36C58.6968 16.0533 59.0573 14.6006 59.0625 13.125V3.9375C59.0625 3.5894 58.9242 3.25556 58.6781 3.00942C58.4319 2.76328 58.0981 2.625 57.75 2.625H36.75C33.6186 2.62986 30.6169 3.87595 28.4027 6.09017C26.1884 8.30439 24.9424 11.3061 24.9375 14.4375V17.0625C24.9391 17.9121 25.1465 18.7487 25.542 19.5007C25.9374 20.2527 26.5091 20.8977 27.2081 21.3806C26.5312 21.697 25.9582 22.1994 25.5561 22.8292C25.154 23.459 24.9395 24.1903 24.9375 24.9375V26.25C24.9406 27.2933 25.3565 28.293 26.0942 29.0308C26.832 29.7685 27.8317 30.1844 28.875 30.1875H28.9406C29.178 32.5041 30.026 34.7162 31.398 36.5978C32.7701 38.4794 34.6169 39.9632 36.75 40.8975V43.9688L32.6156 47.0662L20.8425 34.4269L15.3038 27.0375C15.1618 26.8552 14.977 26.7109 14.7656 26.6175L8.26875 23.835C8.02807 23.7316 7.76197 23.7026 7.50467 23.7518C7.24738 23.8009 7.01067 23.9259 6.825 24.1106L3.11062 27.825C2.92586 28.0107 2.80088 28.2474 2.75176 28.5047C2.70264 28.762 2.73163 29.0281 2.835 29.2687L5.6175 35.7656C5.71088 35.977 5.85518 36.1618 6.0375 36.3037L13.4269 41.8425L20.8294 48.7331C20.0844 49.3312 19.4796 50.0854 19.0578 50.9427C18.636 51.7999 18.4074 52.7392 18.3881 53.6944L18.3356 53.4975C18.2653 53.2129 18.1017 52.9601 17.871 52.7794C17.6402 52.5986 17.3556 52.5002 17.0625 52.5H11.8125C11.5194 52.5002 11.2348 52.5986 11.004 52.7794C10.7733 52.9601 10.6097 53.2129 10.5394 53.4975L10.3163 54.3769L9.54188 53.9044C9.29024 53.7573 8.99729 53.697 8.70802 53.7325C8.41875 53.7681 8.14915 53.8976 7.94063 54.1012L4.22625 57.8156C4.02224 58.0239 3.89243 58.2936 3.85686 58.5829C3.82128 58.8723 3.8819 59.1654 4.02938 59.4169L4.50188 60.1912L3.6225 60.4144C3.33795 60.4847 3.08513 60.6483 2.90435 60.879C2.72357 61.1098 2.62523 61.3944 2.625 61.6875V66.9375C2.62523 67.2306 2.72357 67.5152 2.90435 67.746C3.08513 67.9767 3.33795 68.1403 3.6225 68.2106L4.50188 68.4337L4.02938 69.2081C3.87924 69.4589 3.81708 69.7525 3.85274 70.0426C3.8884 70.3326 4.01985 70.6025 4.22625 70.8094L7.94063 74.5238C8.14752 74.7301 8.41737 74.8616 8.70743 74.8973C8.99749 74.9329 9.29115 74.8708 9.54188 74.7206L10.3163 74.2481L10.5394 75.1275C10.6097 75.4121 10.7733 75.6649 11.004 75.8456C11.2348 76.0264 11.5194 76.1248 11.8125 76.125H17.0625C17.3556 76.1248 17.6402 76.0264 17.871 75.8456C18.1017 75.6649 18.2653 75.4121 18.3356 75.1275L18.375 74.97V77.4375C18.3781 78.4808 18.794 79.4805 19.5317 80.2183C20.2695 80.956 21.2692 81.3719 22.3125 81.375H61.6875C62.7308 81.3719 63.7305 80.956 64.4683 80.2183C65.206 79.4805 65.6219 78.4808 65.625 77.4375V74.97L65.6644 75.1275C65.7347 75.4121 65.8983 75.6649 66.129 75.8456C66.3598 76.0264 66.6444 76.1248 66.9375 76.125H72.1875C72.4806 76.1248 72.7652 76.0264 72.996 75.8456C73.2267 75.6649 73.3903 75.4121 73.4606 75.1275L73.6838 74.2481L74.4581 74.7206C74.7089 74.8708 75.0025 74.9329 75.2926 74.8973C75.5826 74.8616 75.8525 74.7301 76.0594 74.5238L79.7738 70.8094C79.9802 70.6025 80.1116 70.3326 80.1473 70.0426C80.1829 69.7525 80.1208 69.4589 79.9706 69.2081L79.4981 68.4337L80.3775 68.2106C80.6621 68.1403 80.9149 67.9767 81.0957 67.746C81.2764 67.5152 81.3748 67.2306 81.375 66.9375V61.6875C81.3748 61.3944 81.2764 61.1098 81.0957 60.879C80.9149 60.6483 80.6621 60.4847 80.3775 60.4144ZM61.0181 41.5931C61.213 41.3966 61.3407 41.1436 61.3832 40.8702C61.4256 40.5968 61.3805 40.3169 61.2544 40.0706C59.7581 37.0781 60.8738 32.445 63.8006 29.5312C64.6985 28.6161 65.7774 27.8982 66.9684 27.4236C68.1594 26.9491 69.4363 26.7281 70.7175 26.775L66.465 32.445C66.2739 32.6976 66.1806 33.0108 66.2023 33.3268C66.224 33.6428 66.3593 33.9403 66.5831 34.1644L72.1481 39.7294C72.3722 39.9532 72.6697 40.0885 72.9857 40.1102C73.3017 40.1319 73.6149 40.0386 73.8675 39.8475L79.5375 35.595C79.5832 36.8761 79.3617 38.1526 78.8872 39.3434C78.4126 40.5343 77.6955 41.6133 76.7813 42.5119C75.4259 43.8855 73.7109 44.8493 71.8328 45.2927C69.9547 45.7361 67.9897 45.6412 66.1631 45.0187C65.9225 44.9154 65.6563 44.8864 65.3991 44.9355C65.1418 44.9846 64.9051 45.1096 64.7194 45.2944L62.0288 47.9981C61.1143 47.5146 60.0969 47.258 59.0625 47.25H55.3481L61.0181 41.5931ZM56.4375 24.9375V26.25C56.4375 26.5981 56.2992 26.9319 56.0531 27.1781C55.8069 27.4242 55.4731 27.5625 55.125 27.5625V23.625C55.4731 23.625 55.8069 23.7633 56.0531 24.0094C56.2992 24.2556 56.4375 24.5894 56.4375 24.9375ZM28.875 27.5625C28.5269 27.5625 28.1931 27.4242 27.9469 27.1781C27.7008 26.9319 27.5625 26.5981 27.5625 26.25V24.9375C27.5625 24.5894 27.7008 24.2556 27.9469 24.0094C28.1931 23.7633 28.5269 23.625 28.875 23.625V27.5625ZM28.875 18.375V19.32C28.4772 19.0922 28.1464 18.7636 27.916 18.3673C27.6856 17.9709 27.5637 17.5209 27.5625 17.0625V14.4375C27.5653 12.0017 28.5341 9.66641 30.2565 7.94403C31.9789 6.22164 34.3142 5.25278 36.75 5.25H56.4375V13.125C56.4343 14.735 55.836 16.287 54.7575 17.4825C54.5963 17.3039 54.3865 17.1761 54.1538 17.115L46.7513 15.0938C46.4787 15.0168 46.1884 15.0316 45.9251 15.136C45.6618 15.2403 45.4402 15.4284 45.2944 15.6712C44.9147 16.3152 44.4158 16.8809 43.8244 17.3381C42.9396 17.9948 41.9158 18.4394 40.8319 18.6375C41.5191 17.3803 41.9181 15.986 42 14.5556C42.0165 14.3736 41.9947 14.1901 41.9362 14.017C41.8776 13.8439 41.7835 13.6849 41.66 13.5502C41.5364 13.4155 41.3861 13.3081 41.2186 13.2349C41.0512 13.1617 40.8703 13.1243 40.6875 13.125H39.375C39.1991 13.1256 39.0251 13.1613 38.8631 13.23L29.6756 17.1675C29.4384 17.268 29.236 17.436 29.0936 17.6508C28.9512 17.8655 28.8752 18.1174 28.875 18.375ZM31.5 28.875V19.2412L39.1125 15.9862C38.9912 16.5293 38.7539 17.0397 38.4169 17.4825C38.2031 17.6947 37.9751 17.892 37.7344 18.0731C37.3843 18.2631 37.1054 18.5616 36.9397 18.9238C36.774 19.286 36.7304 19.6922 36.8156 20.0813C36.9118 20.3591 37.0765 20.6081 37.2944 20.8054C37.5124 21.0027 37.7765 21.1419 38.0625 21.21C39.3445 21.4347 40.6591 21.3921 41.9239 21.0849C43.1887 20.7778 44.3763 20.2126 45.4125 19.425C45.9987 18.9788 46.52 18.4531 46.9613 17.8631L52.5 19.3725V28.875C52.5 31.6598 51.3938 34.3305 49.4246 36.2996C47.4555 38.2688 44.7848 39.375 42 39.375C39.2152 39.375 36.5445 38.2688 34.5754 36.2996C32.6062 34.3305 31.5 31.6598 31.5 28.875ZM38.85 45.675C39.012 45.5518 39.1435 45.393 39.2345 45.211C39.3255 45.029 39.3736 44.8285 39.375 44.625V41.7375C41.1075 42.0875 42.8925 42.0875 44.625 41.7375V44.625C44.6264 44.8285 44.6745 45.029 44.7655 45.211C44.8565 45.393 44.988 45.5518 45.15 45.675L48.7988 48.4181L42 52.3031L35.2013 48.4181L38.85 45.675ZM7.90125 34.4137L5.60438 29.0588L8.05875 26.6044L13.4138 28.9013L18.0863 35.1225L14.1225 39.0863L7.90125 34.4137ZM16.1438 40.7794L19.7794 37.1437L29.19 47.25H24.9375C24.3922 47.257 23.8499 47.332 23.3231 47.4731L16.1438 40.7794ZM18.3881 71.085C18.2105 70.9821 18.0115 70.9215 17.8067 70.9078C17.6018 70.8941 17.3966 70.9278 17.2069 71.0062C17.0174 71.0847 16.8488 71.2062 16.7144 71.3611C16.58 71.5161 16.4835 71.7001 16.4325 71.8988L16.0388 73.5H12.8363L12.4425 71.8988C12.3915 71.7001 12.295 71.5161 12.1606 71.3611C12.0262 71.2062 11.8576 71.0847 11.6681 71.0062C11.4784 70.9278 11.2732 70.8941 11.0683 70.9078C10.8635 70.9215 10.6645 70.9821 10.4869 71.085L9.06938 71.9381L6.81188 69.6806L7.665 68.2631C7.76791 68.0855 7.82854 67.8865 7.84219 67.6817C7.85585 67.4768 7.82217 67.2716 7.74375 67.0819C7.66526 66.8924 7.54376 66.7238 7.38886 66.5894C7.23395 66.455 7.0499 66.3585 6.85125 66.3075L5.25 65.9137V62.7113L6.85125 62.3175C7.0499 62.2665 7.23395 62.17 7.38886 62.0356C7.54376 61.9012 7.66526 61.7326 7.74375 61.5431C7.82217 61.3534 7.85585 61.1482 7.84219 60.9433C7.82854 60.7385 7.76791 60.5395 7.665 60.3619L6.81188 58.9444L9.06938 56.6869L10.4869 57.5269C10.6624 57.6348 10.861 57.6995 11.0664 57.7154C11.2718 57.7314 11.4781 57.6983 11.6681 57.6188C11.8576 57.5403 12.0262 57.4188 12.1606 57.2639C12.295 57.109 12.3915 56.9249 12.4425 56.7262L12.8363 55.125H16.0388L16.4325 56.7262C16.4835 56.9249 16.58 57.109 16.7144 57.2639C16.8488 57.4188 17.0174 57.5403 17.2069 57.6188C17.3969 57.6983 17.6032 57.7314 17.8086 57.7154C18.014 57.6995 18.2127 57.6348 18.3881 57.5269L19.8056 56.6869L22.0631 58.9444L21.21 60.3619C21.1071 60.5395 21.0465 60.7385 21.0328 60.9433C21.0192 61.1482 21.0528 61.3534 21.1313 61.5431C21.2097 61.7326 21.3312 61.9012 21.4861 62.0356C21.6411 62.17 21.8251 62.2665 22.0238 62.3175L23.625 62.7113V65.9137L22.0238 66.3075C21.8251 66.3585 21.6411 66.455 21.4861 66.5894C21.3312 66.7238 21.2097 66.8924 21.1313 67.0819C21.0528 67.2716 21.0192 67.4768 21.0328 67.6817C21.0465 67.8865 21.1071 68.0855 21.21 68.2631L22.0631 69.6806L19.8056 71.9381L18.3881 71.085ZM44.2706 78.75H39.7294C39.4979 78.351 39.3757 77.8981 39.375 77.4369C39.3743 76.9756 39.4951 76.5224 39.7253 76.1227C39.9556 75.723 40.287 75.391 40.6863 75.1602C41.0857 74.9294 41.5388 74.8078 42 74.8078C42.4612 74.8078 42.9143 74.9294 43.3137 75.1602C43.713 75.391 44.0445 75.723 44.2747 76.1227C44.5049 76.5224 44.6257 76.9756 44.625 77.4369C44.6243 77.8981 44.5021 78.351 44.2706 78.75ZM51.1875 78.75H47.0663C47.1797 78.3214 47.2414 77.8808 47.25 77.4375C47.25 76.0451 46.6969 74.7098 45.7123 73.7252C44.7277 72.7406 43.3924 72.1875 42 72.1875C40.6076 72.1875 39.2723 72.7406 38.2877 73.7252C37.3031 74.7098 36.75 76.0451 36.75 77.4375C36.7586 77.8808 36.8203 78.3214 36.9338 78.75H32.8125V75.8363L34.4138 75.4425C34.6134 75.3937 34.7985 75.298 34.9538 75.1634C35.109 75.0287 35.2298 74.8589 35.3063 74.6681C35.3844 74.4806 35.418 74.2775 35.4043 74.0748C35.3907 73.8721 35.3301 73.6753 35.2275 73.5L34.3744 72.0825L36.645 69.8119L38.0625 70.665C38.2366 70.7709 38.4336 70.8334 38.6369 70.8471C38.8403 70.8608 39.0439 70.8254 39.2306 70.7438C39.4214 70.6673 39.5912 70.5465 39.7259 70.3913C39.8606 70.236 39.9562 70.0509 40.005 69.8512L40.3988 68.25H43.6013L43.995 69.8512C44.0438 70.0509 44.1395 70.236 44.2741 70.3913C44.4088 70.5465 44.5786 70.6673 44.7694 70.7438C44.9569 70.8219 45.16 70.8555 45.3627 70.8418C45.5654 70.8282 45.7622 70.7676 45.9375 70.665L47.355 69.8119L49.6256 72.0825L48.7725 73.5C48.6699 73.6753 48.6093 73.8721 48.5957 74.0748C48.582 74.2775 48.6156 74.4806 48.6938 74.6681C48.7702 74.8589 48.891 75.0287 49.0462 75.1634C49.2015 75.298 49.3866 75.3937 49.5863 75.4425L51.1875 75.8363V78.75ZM63 77.4375C63 77.7856 62.8617 78.1194 62.6156 78.3656C62.3694 78.6117 62.0356 78.75 61.6875 78.75H53.8125V74.8125C53.8123 74.5194 53.7139 74.2348 53.5332 74.004C53.3524 73.7733 53.0996 73.6097 52.815 73.5394L51.9356 73.3163L52.4081 72.5419C52.5552 72.2902 52.6155 71.9973 52.58 71.708C52.5444 71.4187 52.4149 71.1491 52.2113 70.9406L48.4969 67.2262C48.2884 67.0226 48.0188 66.8931 47.7295 66.8575C47.4402 66.822 47.1473 66.8823 46.8956 67.0294L46.1213 67.5019L45.8981 66.6225C45.8278 66.3379 45.6642 66.0851 45.4335 65.9044C45.2027 65.7236 44.9181 65.6252 44.625 65.625H39.375C39.0819 65.6252 38.7973 65.7236 38.5665 65.9044C38.3358 66.0851 38.1722 66.3379 38.1019 66.6225L37.8788 67.5019L37.1044 67.0294C36.8527 66.8823 36.5598 66.822 36.2705 66.8575C35.9813 66.8931 35.7117 67.0226 35.5031 67.2262L31.7888 70.9406C31.5851 71.1491 31.4556 71.4187 31.42 71.708C31.3845 71.9973 31.4448 72.2902 31.5919 72.5419L32.0644 73.3163L31.185 73.5394C30.9004 73.6097 30.6476 73.7733 30.4669 74.004C30.2861 74.2348 30.1877 74.5194 30.1875 74.8125V78.75H22.3125C21.9644 78.75 21.6306 78.6117 21.3844 78.3656C21.1383 78.1194 21 77.7856 21 77.4375V74.4581L24.6488 70.8094C24.8528 70.6011 24.9826 70.3314 25.0181 70.0421C25.0537 69.7527 24.9931 69.4596 24.8456 69.2081L24.3731 68.4337L25.2525 68.2106C25.5371 68.1403 25.7899 67.9767 25.9707 67.746C26.1514 67.5152 26.2498 67.2306 26.25 66.9375V61.6875C26.2498 61.3944 26.1514 61.1098 25.9707 60.879C25.7899 60.6483 25.5371 60.4847 25.2525 60.4144L24.3731 60.1912L24.8456 59.4169C24.9958 59.1661 25.0579 58.8725 25.0223 58.5824C24.9866 58.2924 24.8552 58.0225 24.6488 57.8156L21 54.1669V53.8125C21.0031 52.7692 21.419 51.7695 22.1567 51.0317C22.8945 50.294 23.8942 49.8781 24.9375 49.875H32.4581L41.3438 54.9544C41.5451 55.0642 41.7707 55.1217 42 55.1217C42.2293 55.1217 42.455 55.0642 42.6563 54.9544L51.5419 49.875H59.0625C60.1058 49.8781 61.1055 50.294 61.8433 51.0317C62.581 51.7695 62.9969 52.7692 63 53.8125V54.1669L59.3513 57.8156C59.1449 58.0225 59.0134 58.2924 58.9777 58.5824C58.9421 58.8725 59.0042 59.1661 59.1544 59.4169L59.6269 60.1912L58.7475 60.4144C58.4629 60.4847 58.2101 60.6483 58.0294 60.879C57.8486 61.1098 57.7502 61.3944 57.75 61.6875V66.9375C57.7502 67.2306 57.8486 67.5152 58.0294 67.746C58.2101 67.9767 58.4629 68.1403 58.7475 68.2106L59.6269 68.4337L59.1544 69.2081C59.0042 69.4589 58.9421 69.7525 58.9777 70.0426C59.0134 70.3326 59.1449 70.6025 59.3513 70.8094L63 74.4581V77.4375ZM78.75 65.9137L77.1488 66.3075C76.9501 66.3585 76.7661 66.455 76.6112 66.5894C76.4562 66.7238 76.3347 66.8924 76.2563 67.0819C76.1778 67.2716 76.1442 67.4768 76.1578 67.6817C76.1715 67.8865 76.2321 68.0855 76.335 68.2631L77.1881 69.6806L74.9306 71.9381L73.5131 71.085C73.3355 70.9821 73.1365 70.9215 72.9317 70.9078C72.7269 70.8941 72.5216 70.9278 72.3319 71.0062C72.1424 71.0847 71.9738 71.2062 71.8394 71.3611C71.705 71.5161 71.6085 71.7001 71.5575 71.8988L71.1638 73.5H67.9613L67.5675 71.8988C67.5165 71.7001 67.42 71.5161 67.2856 71.3611C67.1512 71.2062 66.9826 71.0847 66.7931 71.0062C66.6034 70.9278 66.3982 70.8941 66.1933 70.9078C65.9885 70.9215 65.7895 70.9821 65.6119 71.085L64.1944 71.9381L61.9369 69.6806L62.79 68.2631C62.8929 68.0855 62.9535 67.8865 62.9672 67.6817C62.9809 67.4768 62.9472 67.2716 62.8688 67.0819C62.7903 66.8924 62.6688 66.7238 62.5139 66.5894C62.359 66.455 62.1749 66.3585 61.9763 66.3075L60.375 65.9137V62.7113L61.9763 62.3175C62.1749 62.2665 62.359 62.17 62.5139 62.0356C62.6688 61.9012 62.7903 61.7326 62.8688 61.5431C62.9472 61.3534 62.9809 61.1482 62.9672 60.9433C62.9535 60.7385 62.8929 60.5395 62.79 60.3619L61.9369 58.9444L64.1944 56.6869L65.6119 57.5269C65.7874 57.6348 65.986 57.6995 66.1914 57.7154C66.3968 57.7314 66.6031 57.6983 66.7931 57.6188C66.9826 57.5403 67.1512 57.4188 67.2856 57.2639C67.42 57.109 67.5165 56.9249 67.5675 56.7262L67.9613 55.125H71.1638L71.5575 56.7262C71.6085 56.9249 71.705 57.109 71.8394 57.2639C71.9738 57.4188 72.1424 57.5403 72.3319 57.6188C72.5219 57.6983 72.7282 57.7314 72.9336 57.7154C73.139 57.6995 73.3377 57.6348 73.5131 57.5269L74.9306 56.6869L77.1881 58.9444L76.335 60.3619C76.2321 60.5395 76.1715 60.7385 76.1578 60.9433C76.1442 61.1482 76.1778 61.3534 76.2563 61.5431C76.3347 61.7326 76.4562 61.9012 76.6112 62.0356C76.7661 62.17 76.9501 62.2665 77.1488 62.3175L78.75 62.7113V65.9137Z" fill="white"/>
<path d="M14.4375 59.0625C13.3992 59.0625 12.3841 59.3704 11.5208 59.9473C10.6574 60.5242 9.98449 61.3441 9.58713 62.3034C9.18977 63.2627 9.08581 64.3183 9.28838 65.3367C9.49095 66.3551 9.99097 67.2906 10.7252 68.0248C11.4594 68.759 12.3949 69.2591 13.4133 69.4616C14.4317 69.6642 15.4873 69.5602 16.4466 69.1629C17.4059 68.7655 18.2258 68.0926 18.8027 67.2293C19.3796 66.3659 19.6875 65.3509 19.6875 64.3125C19.6875 62.9201 19.1344 61.5848 18.1498 60.6002C17.1652 59.6156 15.8299 59.0625 14.4375 59.0625ZM14.4375 66.9375C13.9183 66.9375 13.4108 66.7836 12.9791 66.4951C12.5475 66.2067 12.211 65.7967 12.0123 65.317C11.8136 64.8374 11.7617 64.3096 11.8629 63.8004C11.9642 63.2912 12.2142 62.8235 12.5813 62.4563C12.9485 62.0892 13.4162 61.8392 13.9254 61.7379C14.4346 61.6367 14.9624 61.6886 15.442 61.8873C15.9217 62.086 16.3317 62.4225 16.6201 62.8541C16.9085 63.2858 17.0625 63.7933 17.0625 64.3125C17.0625 65.0087 16.7859 65.6764 16.2937 66.1687C15.8014 66.6609 15.1337 66.9375 14.4375 66.9375Z" fill="white"/>
</svg>
