<svg width="84" height="84" viewBox="0 0 84 84" fill="none" xmlns="http://www.w3.org/2000/svg">
<path d="M19.8516 11.2383H7.38281C6.02257 11.2383 4.92188 12.339 4.92188 13.6992C4.92188 15.0595 6.02257 16.1602 7.38281 16.1602H19.8516C21.2118 16.1602 22.3125 15.0595 22.3125 13.6992C22.3125 12.339 21.2118 11.2383 19.8516 11.2383Z" fill="#222052"/>
<path d="M19.8516 30.9258H7.38281C6.02257 30.9258 4.92188 32.0265 4.92188 33.3867C4.92188 34.747 6.02257 35.8477 7.38281 35.8477H19.8516C21.2118 35.8477 22.3125 34.747 22.3125 33.3867C22.3125 32.0265 21.2118 30.9258 19.8516 30.9258Z" fill="#222052"/>
<path d="M14.9297 21.082H2.46094C1.1007 21.082 0 22.1827 0 23.543C0 24.9032 1.1007 26.0039 2.46094 26.0039H14.9297C16.2899 26.0039 17.3906 24.9032 17.3906 23.543C17.3906 22.1827 16.2899 21.082 14.9297 21.082Z" fill="#222052"/>
<path d="M79.0781 33.3867H64.1484V23.543C64.1484 19.2206 58.8608 16.9447 55.7451 20.0645L36.0591 39.7505C34.1365 41.6732 34.1365 44.7877 36.0591 46.7104L47.3448 57.9961L33.5982 71.7427C31.6755 73.6654 31.6755 76.7799 33.5982 78.7026C35.5207 80.6251 38.6354 80.6252 40.558 78.7026L57.7846 61.476C59.7072 59.5534 59.7072 56.4388 57.7846 54.5162L46.4989 43.2305L54.3047 35.4247V38.3086C54.3047 41.0266 56.5085 43.2305 59.2265 43.2305H79.0781C81.7961 43.2305 84 41.0266 84 38.3086C84 35.5906 81.7961 33.3867 79.0781 33.3867Z" fill="#222052"/>
<path d="M45.9604 8.37375C44.0042 7.07355 41.4087 7.3308 39.7503 8.98898L26.2152 22.5241C24.2925 24.4468 24.2925 27.5613 26.2152 29.484C28.1378 31.4066 31.2526 31.4065 33.1752 29.4838L43.8576 18.8014L47.4562 21.3936L52.2642 16.5856C53.0684 15.7813 54.017 15.1571 55.0544 14.6696L45.9604 8.37375Z" fill="#222052"/>
<path d="M32.5792 50.1903C31.3321 48.9433 30.4997 47.4085 30.0608 45.7488L4.06693 71.7427C2.14428 73.6654 2.14428 76.7799 4.06693 78.7026C5.98941 80.6251 9.10414 80.6252 11.0268 78.7026L36.0591 53.6703L32.5792 50.1903Z" fill="#222052"/>
<path d="M66.6094 18.6211C70.6868 18.6211 73.9922 15.3157 73.9922 11.2383C73.9922 7.16087 70.6868 3.85547 66.6094 3.85547C62.532 3.85547 59.2266 7.16087 59.2266 11.2383C59.2266 15.3157 62.532 18.6211 66.6094 18.6211Z" fill="#222052"/>
</svg>
