<svg width="80" height="80" viewBox="0 0 80 80" fill="none" xmlns="http://www.w3.org/2000/svg">
<g clip-path="url(#clip0)">
<path d="M22.6643 67.7886C22.6604 67.7847 22.6564 67.7808 22.6525 67.7768L19.2909 64.5103C18.8266 64.0589 18.0846 64.0699 17.6336 64.534C17.1826 64.9981 17.1932 65.7403 17.6573 66.1913L21.0135 69.4526C21.8062 70.2417 22.8461 70.6363 23.8858 70.6363C24.9283 70.6363 25.9709 70.2396 26.7645 69.4462C27.5313 68.6795 27.9537 67.6573 27.9537 66.5679C27.9537 65.4784 27.5313 64.4562 26.7645 63.6895L16.4697 53.3974C14.8824 51.8104 12.2995 51.8104 10.7122 53.3974C9.94526 54.164 9.52301 55.1862 9.52301 56.2756C9.52301 57.365 9.94526 58.3872 10.7122 59.154L13.8277 62.2685C14.2856 62.7264 15.0277 62.7259 15.4851 62.2684C15.9429 61.8105 15.9427 61.0683 15.485 60.6109L12.3695 57.4964C12.0454 57.1725 11.867 56.7388 11.867 56.2756C11.867 55.8126 12.0454 55.3791 12.3695 55.055C13.0432 54.3816 14.1389 54.3816 14.8122 55.055L25.107 65.3471C25.431 65.6711 25.6096 66.1047 25.6096 66.5679C25.6096 67.0309 25.431 67.4645 25.107 67.7886C24.4337 68.4619 23.3376 68.4619 22.6643 67.7886Z" fill="#222052"/>
<path d="M77.8092 15.4916L79.2716 14.0295C79.6404 13.661 79.8434 13.1703 79.8434 12.6479C79.8434 12.1255 79.6404 11.635 79.2716 11.2663L74.0883 6.08397L68.9071 0.908671C68.5419 0.538147 68.0531 0.33296 67.5305 0.331241C67.528 0.331241 67.5257 0.331241 67.5232 0.331241C67.0012 0.331241 66.511 0.533928 66.1425 0.902576L65.0078 2.03696L63.3099 0.342493C62.8517 -0.114763 62.1095 -0.114137 61.6524 0.344212C61.1953 0.802561 61.196 1.54455 61.6542 2.00165L63.3503 3.69424L60.273 6.77079L58.7404 5.23884C58.2823 4.78065 57.5401 4.78112 57.083 5.239C56.6253 5.69688 56.6255 6.43902 57.0832 6.89643L58.6153 8.42807L58.5828 8.46057C57.8373 9.20553 57.742 9.3432 57.3057 10.3038C57.2569 10.4112 57.2246 10.5251 57.2099 10.642L56.6603 15.005L42.8943 28.7677C39.4266 27.029 35.5854 26.4631 31.9821 27.1807C31.3473 27.307 30.9351 27.9239 31.0613 28.5589C31.1876 29.1937 31.8049 29.6057 32.4395 29.4796C35.2887 28.9133 38.3251 29.2857 41.1347 30.5268L30.3208 41.3383C27.9503 41.2523 25.5516 42.1101 23.746 43.9152C22.0764 45.5845 21.1569 47.8033 21.1569 50.163C21.1569 52.5227 22.0766 54.7417 23.746 56.4108C25.4697 58.134 27.7333 58.9957 29.9974 58.9954C32.2611 58.9953 34.5254 58.1337 36.2487 56.4108C37.9185 54.7417 38.838 52.5227 38.838 50.163C38.838 50.053 38.8339 49.9436 38.83 49.8342L40.151 48.5136L49.6399 39.027C51.9963 44.3386 51.1653 50.1804 47.3925 53.9522C46.1406 55.2039 44.9606 56.0117 43.7824 56.4227C40.7775 57.4766 40.5452 59.7988 40.5634 61.8959C40.6076 65.8527 38.9127 69.7509 35.7908 72.872C28.8201 79.8412 16.755 79.1182 8.89586 71.261C1.03782 63.4048 0.315057 51.3408 7.2839 44.3695C10.3705 41.2879 14.2159 39.5966 18.1265 39.5966C18.1724 39.5966 18.2183 39.5968 18.2643 39.5974C20.3569 39.6174 22.6824 39.3917 23.7331 36.38C24.1464 35.2064 24.9562 34.0269 26.2092 32.7745C26.6844 32.2991 27.2089 31.8572 27.768 31.4609C28.2961 31.0864 28.4206 30.3551 28.0462 29.8269C27.6719 29.299 26.9409 29.1743 26.4122 29.5487C25.746 30.021 25.12 30.5485 24.5518 31.1169C23.0453 32.6229 22.0545 34.0898 21.521 35.6049C21.0205 37.0397 20.2774 37.2767 18.2888 37.2534C13.7014 37.2117 9.1995 39.145 5.62694 42.7116C-2.25642 50.5981 -1.53334 64.149 7.23859 72.9189C11.9324 77.6116 17.9928 80.0004 23.8228 79.9999C28.8893 79.9996 33.7819 78.1948 37.4481 74.5298C41.0197 70.9588 42.9587 66.4628 42.9075 61.8726C42.8903 59.8835 43.1263 59.1368 44.5565 58.6352C46.0731 58.1062 47.5429 57.1166 49.0498 55.6099C51.463 53.1974 52.906 50.0588 53.2228 46.5331C53.5048 43.3933 52.8732 40.2092 51.3978 37.2694L52.2717 36.3957C52.272 36.3953 52.2723 36.395 52.2726 36.3947C52.2729 36.3944 52.2732 36.3941 52.2736 36.3938L65.1612 23.5092L69.5297 22.9598C69.6485 22.9448 69.764 22.9118 69.8726 22.8619C70.6913 22.4859 70.916 22.3587 71.4131 21.8812L72.9501 23.4178C73.179 23.6467 73.4789 23.761 73.7788 23.761C74.0788 23.761 74.3789 23.6466 74.6077 23.4176C75.0654 22.9598 75.0652 22.2178 74.6075 21.7602L73.0732 20.2264L76.1512 17.1492L77.5114 18.5091C77.7403 18.7379 78.0402 18.8523 78.3401 18.8523C78.6401 18.8523 78.9402 18.7379 79.1689 18.5089C79.6267 18.0511 79.6267 17.3091 79.1688 16.8515L77.8092 15.4916ZM34.5914 54.7532C32.0584 57.2858 27.9365 57.2856 25.4035 54.7532C24.1766 53.5266 23.501 51.8966 23.501 50.163C23.501 48.4295 24.1766 46.7994 25.4035 45.5728C26.6701 44.3064 28.3336 43.6735 29.9974 43.6735C31.661 43.6735 33.325 44.3068 34.5912 45.5728C35.8181 46.7994 36.4939 48.4295 36.4939 50.163C36.4939 51.8966 35.8183 53.5268 34.5914 54.7532ZM38.2808 47.0686C37.8439 45.8985 37.1587 44.8247 36.2487 43.9151C35.3335 43.0001 34.2651 42.3309 33.1262 41.9018C33.1137 41.8968 33.1016 41.8904 33.089 41.8857L38.0108 36.9668L43.198 42.1528L38.2808 47.0686ZM49.1298 36.2225C49.1298 36.2225 49.1295 36.2227 49.1295 36.2228L44.8556 40.4956L39.6687 35.3102L43.9429 31.0386C43.9559 31.0256 43.9668 31.0114 43.9792 30.998L44.5982 30.3791L49.7865 35.5662L49.1298 36.2225ZM51.4442 33.9087L46.2559 28.7217L51.1868 23.7919L56.3751 28.9789L51.4442 33.9087ZM58.0327 27.3217L52.8444 22.1346L57.7728 17.2075L62.9594 22.3961L58.0327 27.3217ZM70.0545 19.9296C69.6014 20.3828 69.5606 20.4234 69.0581 20.6563L65.0403 21.1617L59.0077 15.1266L59.5134 11.1119C59.7395 10.6185 59.7809 10.577 60.2399 10.1183L67.5218 2.83802L77.3379 12.6478L70.0545 19.9296Z" fill="#222052"/>
<path d="M66.7651 17.2336C66.9939 17.4622 67.2936 17.5764 67.5935 17.5764C67.8936 17.5764 68.1938 17.4619 68.4227 17.2328L72.7421 12.9101C73.1997 12.4522 73.1993 11.7101 72.7413 11.2527C72.2836 10.7951 71.5414 10.7953 71.0839 11.2535L66.7645 15.5761C66.3068 16.034 66.3071 16.7762 66.7651 17.2336Z" fill="#222052"/>
<path d="M62.9383 11.7492C62.4802 12.2066 62.4798 12.9487 62.9372 13.4066C63.1661 13.6359 63.4663 13.7504 63.7665 13.7504C64.0662 13.7504 64.366 13.6362 64.5948 13.4077L68.9185 9.08941C69.3766 8.632 69.377 7.88986 68.9196 7.43197C68.4622 6.97378 67.7201 6.97363 67.2622 7.43088L62.9383 11.7492Z" fill="#222052"/>
</g>
<defs>
<clipPath id="clip0">
<rect width="80" height="80" fill="white"/>
</clipPath>
</defs>
</svg>
