<svg width="84" height="84" viewBox="0 0 84 84" fill="none" xmlns="http://www.w3.org/2000/svg">
<g clip-path="url(#clip0)">
<path d="M42 33.9004C49.883 33.9004 56.2734 27.51 56.2734 19.627C56.2734 11.744 49.883 5.35352 42 5.35352C34.117 5.35352 27.7266 11.744 27.7266 19.627C27.7266 27.51 34.117 33.9004 42 33.9004Z" fill="white"/>
<path d="M70.875 33.9002C75.8585 33.9002 79.8984 29.8603 79.8984 24.8768C79.8984 19.8933 75.8585 15.8533 70.875 15.8533C65.8915 15.8533 61.8516 19.8933 61.8516 24.8768C61.8516 29.8603 65.8915 33.9002 70.875 33.9002Z" fill="white"/>
<path d="M13.125 33.9002C18.1085 33.9002 22.1484 29.8603 22.1484 24.8768C22.1484 19.8933 18.1085 15.8533 13.125 15.8533C8.14149 15.8533 4.10156 19.8933 4.10156 24.8768C4.10156 29.8603 8.14149 33.9002 13.125 33.9002Z" fill="white"/>
<path d="M22.0155 42.0035C18.4636 39.0933 15.2468 39.4785 11.1398 39.4785C4.99734 39.4785 0 44.4464 0 50.5511V68.4684C0 71.1196 2.16398 73.2754 4.82508 73.2754C16.3137 73.2754 14.9297 73.4833 14.9297 72.7799C14.9297 60.0838 13.4259 50.7731 22.0155 42.0035Z" fill="white"/>
<path d="M45.9063 39.544C38.7329 38.9457 32.4977 39.5509 27.1195 43.9901C18.1195 51.199 19.8516 60.9054 19.8516 72.7798C19.8516 75.9214 22.4076 78.5252 25.597 78.5252C60.2277 78.5252 61.606 79.6423 63.6595 75.0947C64.333 73.5568 64.1484 74.0455 64.1484 59.3332C64.1484 47.6477 54.0302 39.544 45.9063 39.544Z" fill="white"/>
<path d="M72.8601 39.4783C68.7307 39.4783 65.5316 39.097 61.9844 42.0032C70.5099 50.7077 69.0703 59.3832 69.0703 72.7797C69.0703 73.4875 67.9214 73.2752 79.0026 73.2752C81.7589 73.2752 84 71.0423 84 68.2975V50.5509C84 44.4461 79.0026 39.4783 72.8601 39.4783Z" fill="white"/>
</g>
<defs>
<clipPath id="clip0">
<rect width="84" height="84" fill="white"/>
</clipPath>
</defs>
</svg>
