<svg width="80" height="80" viewBox="0 0 80 80" fill="none" xmlns="http://www.w3.org/2000/svg">
<path d="M65.7897 64.8192C65.1425 64.8192 64.6178 65.3439 64.6178 65.9911V77.0089C64.6178 77.3656 64.3275 77.6559 63.9708 77.6559H57.6712V54.5783C57.6712 53.9311 57.1465 53.4064 56.4994 53.4064C55.8522 53.4064 55.3275 53.9311 55.3275 54.5783V77.6561H42.6423L46.3209 73.6092C46.7228 73.167 46.9123 72.5372 46.8278 71.9238C46.8262 71.9119 46.8244 71.9 46.8223 71.8881L43.3187 51.1902L44.2626 49.7692C44.7845 50.1398 45.1865 50.4967 45.9405 50.4967C46.7073 50.4967 47.4244 50.0675 47.7772 49.3609V49.3608L51.4725 41.9545L59.8906 45.2147C60.1951 45.3453 64.6175 47.3369 64.6175 52.5956V60.5222C64.6173 61.1692 65.142 61.6941 65.7894 61.6941C66.4365 61.6941 66.9612 61.1694 66.9612 60.5222V52.5956C66.9612 45.6669 61.0286 43.1483 60.7761 43.0444C60.7687 43.0413 60.7612 43.0383 60.7537 43.0355L46.7431 37.6095V34.3236C48.9684 32.593 50.5114 30.0275 50.8987 27.1006C52.0083 27.0225 53.0378 26.6081 53.8786 25.8852C54.9765 24.9409 55.6065 23.5667 55.6065 22.1155C55.6065 20.9111 55.172 19.7611 54.3976 18.865V14.5239C54.3975 6.51547 47.8822 0 39.8737 0C31.8653 0 25.35 6.51547 25.35 14.5239V18.9788C24.5673 19.8658 24.1417 20.9577 24.1417 22.1153C24.1417 23.567 24.7714 24.9411 25.8697 25.8855C26.7098 26.6081 27.7387 27.022 28.8479 27.1003C29.2384 30.082 30.8264 32.7431 33.2412 34.497V37.6095L19.2458 43.0353C19.2384 43.0381 19.2311 43.0411 19.2237 43.0441C18.9711 43.148 13.0386 45.6666 13.0386 52.5953V77.0086C13.0386 78.6578 14.3803 79.9995 16.0295 79.9995H27.1947C27.8419 79.9995 28.3665 79.4748 28.3665 78.8277C28.3665 78.1805 27.8419 77.6558 27.1947 77.6558H24.6733V54.5783C24.6733 53.9311 24.1486 53.4064 23.5014 53.4064C22.8542 53.4064 22.3295 53.9311 22.3295 54.5783V77.6561H16.0297C15.6729 77.6561 15.3826 77.3658 15.3826 77.0091V52.5955C15.3826 47.3191 19.8347 45.332 20.1081 45.2152L28.5197 41.9542L32.2153 49.3608C32.5689 50.0691 33.2869 50.4967 34.0522 50.4967C34.8023 50.4967 35.2005 50.1453 35.73 49.7692L36.6739 51.1902L33.1706 71.8883C33.1686 71.9 33.1669 71.9117 33.1651 71.9236C33.0804 72.5367 33.27 73.1669 33.672 73.6094L37.3506 77.6562H32.6639C32.0167 77.6562 31.492 78.1809 31.492 78.8281C31.492 79.4753 32.0167 80 32.6639 80H63.9709C65.6201 80 66.9619 78.6581 66.9619 77.0091V65.9912C66.9615 65.3439 66.4369 64.8192 65.7897 64.8192ZM49.2773 41.1045L45.8322 48.0092C45.7465 47.9484 43.9208 46.6512 41.6889 45.0664C42.6573 43.8709 41.5244 45.2694 45.9444 39.8138L49.2773 41.1045ZM42.3505 48.4114L41.457 49.7562H38.5347L37.6412 48.4114L39.9959 46.7391L42.3505 48.4114ZM35.5848 37.9877V35.7945C37.0086 36.3684 38.5301 36.6345 40.0161 36.6345C41.5525 36.6345 43.0592 36.307 44.3992 35.7211V37.9972L39.9959 43.4323L35.5848 37.9877ZM53.2626 22.1155C53.2625 22.8831 52.93 23.6095 52.3503 24.1081C51.967 24.4378 51.504 24.6486 50.997 24.7311V19.5003C52.3439 19.7191 53.2626 20.8363 53.2626 22.1155ZM28.7511 24.7311C27.3889 24.51 26.4854 23.3837 26.4854 22.1153C26.4854 20.8625 27.524 19.8428 28.7511 19.5592V24.7311ZM28.814 17.1713C28.4408 17.2141 28.0129 17.3152 27.694 17.4236V14.5239C27.694 7.80781 33.1578 2.34391 39.8739 2.34391C46.59 2.34391 52.0537 7.80781 52.0537 14.5239V17.3431C51.7131 17.2395 51.3598 17.1711 50.9972 17.1389C50.9972 16.0081 51.007 16.2262 47.3078 12.2492C46.6275 11.5183 45.5022 11.3652 44.6458 11.9247C40.563 14.5917 35.5825 15.9316 30.9872 15.6016C29.9792 15.5261 29.0611 16.19 28.814 17.1713ZM31.095 25.6538V18.3425V17.9573C36.1536 18.2536 41.4572 16.7508 45.7417 14.0069C47.4383 15.8284 48.357 16.7839 48.6533 17.1473C48.6533 18.0667 48.6533 24.6012 48.6533 25.6536C48.6533 30.4109 44.7742 34.2905 40.0162 34.2905C34.6734 34.2906 31.095 30.1459 31.095 25.6538ZM34.1598 48.0092L30.7147 41.1045L34.0417 39.8159L38.2981 45.0698C36.1336 46.6069 34.3562 47.8697 34.1598 48.0092ZM35.5044 72.1409L38.8964 52.0998H41.095L44.487 72.1409L39.9958 77.082L35.5044 72.1409Z" fill="white"/>
</svg>
