<svg width="72" height="72" viewBox="0 0 72 72" fill="none" xmlns="http://www.w3.org/2000/svg">
<path d="M70.875 34.875V1.125H23.625V12.375H17.3925C18.4657 11.1791 19.125 9.60525 19.125 7.875C19.125 4.15237 16.0976 1.125 12.375 1.125C8.65238 1.125 5.625 4.15237 5.625 7.875C5.625 9.8955 6.52163 11.7067 7.93237 12.9442C3.97688 14.3224 1.125 18.0799 1.125 22.5V25.875C1.125 28.3568 3.14325 30.375 5.625 30.375V42.1875C5.625 42.7939 5.77462 43.362 6.01987 43.875H1.125V52.875H6.01875C5.769 53.5804 5.625 54.3353 5.625 55.125C5.625 57.1455 6.52163 58.9567 7.93237 60.1943C3.97688 61.5724 1.125 65.3299 1.125 69.75V70.875H21.375H23.625H41.625H43.875H64.125V69.75C64.125 65.3299 61.2731 61.5724 57.3176 60.1943C58.7284 58.9567 59.625 57.1455 59.625 55.125C59.625 54.3353 59.481 53.5804 59.2313 52.875H70.875V43.875H63.6368L58.2367 34.875H70.875ZM25.875 3.375H68.625V32.625H25.875V19.125H29.25C30.7148 19.125 31.9522 18.1811 32.418 16.875H46.125V5.625H28.125V12.375H25.875V3.375ZM18.7301 43.875C18.9754 43.362 19.125 42.7939 19.125 42.1875V19.125H23.625V34.875H36.2633L30.8633 43.875H18.7301ZM38.8868 34.875H41.8883L36.4882 43.875H33.4868L38.8868 34.875ZM43.875 35.937V43.875H39.1117L43.875 35.937ZM46.125 34.875H48.375V43.875H46.125V34.875ZM50.625 35.937L55.3883 43.875H50.625V35.937ZM32.418 14.625C32.0783 13.6721 31.3279 12.9218 30.375 12.582V7.875H43.875V14.625H32.418ZM12.375 3.375C14.8568 3.375 16.875 5.39325 16.875 7.875C16.875 10.3568 14.8568 12.375 12.375 12.375C9.89325 12.375 7.875 10.3568 7.875 7.875C7.875 5.39325 9.89325 3.375 12.375 3.375ZM7.875 42.1875V22.5H5.625V28.125C4.38412 28.125 3.375 27.1159 3.375 25.875V22.5C3.375 18.1575 6.9075 14.625 11.25 14.625H29.25C29.8699 14.625 30.375 15.1301 30.375 15.75C30.375 16.3699 29.8699 16.875 29.25 16.875H16.875V42.1875C16.875 43.1179 16.1179 43.875 15.1875 43.875C14.2571 43.875 13.5 43.1179 13.5 42.1875V27H11.25V42.1875C11.25 43.1179 10.4929 43.875 9.5625 43.875C8.63212 43.875 7.875 43.1179 7.875 42.1875ZM12.375 50.625C14.8568 50.625 16.875 52.6432 16.875 55.125C16.875 57.6068 14.8568 59.625 12.375 59.625C9.89325 59.625 7.875 57.6068 7.875 55.125C7.875 52.6432 9.89325 50.625 12.375 50.625ZM3.45487 68.625C4.00275 64.8135 7.28888 61.875 11.25 61.875H13.5C17.4611 61.875 20.7473 64.8135 21.2951 68.625H3.45487ZM16.8176 60.1943C18.2284 58.9567 19.125 57.1455 19.125 55.125C19.125 54.3353 18.981 53.5804 18.7312 52.875H26.2688C26.019 53.5804 25.875 54.3353 25.875 55.125C25.875 57.1455 26.7716 58.9567 28.1824 60.1943C25.7153 61.0537 23.6824 62.8358 22.5 65.1319C21.3165 62.8358 19.2836 61.0537 16.8176 60.1943ZM37.125 55.125C37.125 57.6068 35.1068 59.625 32.625 59.625C30.1432 59.625 28.125 57.6068 28.125 55.125C28.125 52.6432 30.1432 50.625 32.625 50.625C35.1068 50.625 37.125 52.6432 37.125 55.125ZM23.7049 68.625C24.2527 64.8135 27.5389 61.875 31.5 61.875H33.75C37.7111 61.875 40.9972 64.8135 41.5451 68.625H23.7049ZM37.0676 60.1943C38.4784 58.9567 39.375 57.1455 39.375 55.125C39.375 54.3353 39.231 53.5804 38.9813 52.875H46.5187C46.269 53.5804 46.125 54.3353 46.125 55.125C46.125 57.1455 47.0216 58.9567 48.4324 60.1943C45.9652 61.0537 43.9324 62.8358 42.75 65.1319C41.5665 62.8358 39.5336 61.0537 37.0676 60.1943ZM54 61.875C57.9611 61.875 61.2472 64.8135 61.7951 68.625H43.9549C44.5028 64.8135 47.7889 61.875 51.75 61.875H54ZM52.875 59.625C50.3932 59.625 48.375 57.6068 48.375 55.125C48.375 52.6432 50.3932 50.625 52.875 50.625C55.3568 50.625 57.375 52.6432 57.375 55.125C57.375 57.6068 55.3568 59.625 52.875 59.625ZM68.625 50.625H57.8925C56.6561 49.248 54.8685 48.375 52.875 48.375C50.8815 48.375 49.095 49.248 47.8575 50.625H37.6425C36.4061 49.248 34.6185 48.375 32.625 48.375C30.6315 48.375 28.845 49.248 27.6075 50.625H17.3925C16.1561 49.248 14.3685 48.375 12.375 48.375C10.3815 48.375 8.595 49.248 7.3575 50.625H3.375V46.125H68.625V50.625ZM61.0133 43.875H58.0118L52.6117 34.875H55.6132L61.0133 43.875Z" fill="#222052"/>
<path d="M46.125 25.875V28.125H43.875V19.125H41.625V28.125H39.375V30.375H66.375V14.625H64.125V28.125H61.875V16.875H59.625V28.125H57.375V23.625H55.125V28.125H52.875V21.375H50.625V28.125H48.375V25.875H46.125Z" fill="#222052"/>
<path d="M48.375 5.625H50.625V7.875H48.375V5.625Z" fill="#222052"/>
<path d="M52.875 5.625H66.375V7.875H52.875V5.625Z" fill="#222052"/>
<path d="M48.375 10.125H66.375V12.375H48.375V10.125Z" fill="#222052"/>
<path d="M28.125 23.625H30.375V25.875H28.125V23.625Z" fill="#222052"/>
<path d="M28.125 28.125H30.375V30.375H28.125V28.125Z" fill="#222052"/>
</svg>
